Kufam-BlackItalic.ufo
<glyph name="quotedbl" format="2">
  <advance width="452"/>
  <unicode hex="0022"/>
  <note>
quotedbl
</note>
  <outline>
    <contour>
      <point x="304" y="460" type="line"/>
      <point x="448" y="460" type="line"/>
      <point x="508" y="720" type="line"/>
      <point x="348" y="720" type="line"/>
    </contour>
    <contour>
      <point x="92" y="460" type="line"/>
      <point x="236" y="460" type="line"/>
      <point x="296" y="720" type="line"/>
      <point x="136" y="720" type="line"/>
    </contour>
  </outline>
</glyph>
<glyph name="numbersign" format="2">
  <advance width="616"/>
  <unicode hex="0023"/>
  <note>
numbersign
</note>
  <outline>
    <contour>
      <point x="304" y="0" type="line"/>
      <point x="432" y="0" type="line"/>
      <point x="564" y="720" type="line"/>
      <point x="436" y="720" type="line"/>
    </contour>
    <contour>
      <point x="44" y="180" type="line"/>
      <point x="572" y="180" type="line"/>
      <point x="572" y="296" type="line"/>
      <point x="44" y="296" type="line"/>
    </contour>
    <contour>
      <point x="76" y="0" type="line"/>
      <point x="204" y="0" type="line"/>
      <point x="336" y="720" type="line"/>
      <point x="208" y="720" type="line"/>
    </contour>
    <contour>
      <point x="68" y="424" type="line"/>
      <point x="596" y="424" type="line"/>
      <point x="596" y="540" type="line"/>
      <point x="68" y="540" type="line"/>
    </contour>
  </outline>
</glyph>
<glyph name="dollar" format="2">
  <advance width="616"/>
  <unicode hex="0024"/>
  <note>
dollar
</note>
  <outline>
    <contour>
      <point x="296" y="648" type="line" name="hr00"/>
      <point x="468" y="648" type="line"/>
      <point x="508" y="860" type="line"/>
      <point x="336" y="860" type="line"/>
    </contour>
    <contour>
      <point x="24" y="31" type="line"/>
      <point x="68" y="11"/>
      <point x="183" y="-12"/>
      <point x="252" y="-12" type="curve" smooth="yes"/>
      <point x="412" y="-12"/>
      <point x="568" y="52"/>
      <point x="568" y="212" type="curve" smooth="yes"/>
      <point x="568" y="328"/>
      <point x="491" y="381"/>
      <point x="392" y="408" type="curve" smooth="yes"/>
      <point x="348" y="420" type="line" smooth="yes"/>
      <point x="308" y="431"/>
      <point x="288" y="448"/>
      <point x="288" y="484" type="curve" smooth="yes"/>
      <point x="288" y="531"/>
      <point x="328" y="572"/>
      <point x="424" y="572" type="curve" smooth="yes"/>
      <point x="484" y="572"/>
      <point x="544" y="552"/>
      <point x="576" y="536" type="curve"/>
      <point x="588" y="536" type="line"/>
      <point x="620" y="704" type="line"/>
      <point x="568" y="722"/>
      <point x="496" y="732"/>
      <point x="428" y="732" type="curve" smooth="yes"/>
      <point x="184" y="732"/>
      <point x="84" y="616"/>
      <point x="84" y="472" type="curve" smooth="yes"/>
      <point x="84" y="360"/>
      <point x="149" y="295"/>
      <point x="276" y="260" type="curve" smooth="yes"/>
      <point x="320" y="248" type="line" smooth="yes"/>
      <point x="350" y="240"/>
      <point x="364" y="222"/>
      <point x="364" y="204" type="curve" smooth="yes"/>
      <point x="364" y="180"/>
      <point x="334" y="152"/>
      <point x="260" y="152" type="curve" smooth="yes"/>
      <point x="180" y="152"/>
      <point x="110" y="180"/>
      <point x="70" y="208" type="curve"/>
      <point x="58" y="208" type="line"/>
    </contour>
    <contour>
      <point x="184" y="52" type="line"/>
      <point x="144" y="-160" type="line"/>
      <point x="316" y="-160" type="line"/>
      <point x="356" y="52" type="line"/>
    </contour>
  </outline>
</glyph>
<glyph name="ampersand" format="2">
  <advance width="704"/>
  <unicode hex="0026"/>
  <note>
ampersand
</note>
  <outline>
    <contour>
      <point x="32" y="184" type="curve" smooth="yes"/>
      <point x="32" y="48"/>
      <point x="144" y="-12"/>
      <point x="308" y="-12" type="curve" smooth="yes"/>
      <point x="400" y="-12"/>
      <point x="488" y="4"/>
      <point x="564" y="28" type="curve"/>
      <point x="568" y="36" type="line"/>
      <point x="572" y="96"/>
      <point x="581" y="148"/>
      <point x="592" y="208" type="curve" smooth="yes"/>
      <point x="606" y="284" type="line"/>
      <point x="672" y="284" type="line"/>
      <point x="700" y="432" type="line"/>
      <point x="388" y="432" type="line" smooth="yes"/>
      <point x="332" y="432"/>
      <point x="292" y="440"/>
      <point x="292" y="488" type="curve" smooth="yes"/>
      <point x="292" y="536"/>
      <point x="340" y="564"/>
      <point x="436" y="564" type="curve" smooth="yes"/>
      <point x="516" y="564"/>
      <point x="584" y="544"/>
      <point x="624" y="524" type="curve"/>
      <point x="636" y="524" type="line"/>
      <point x="670" y="700" type="line"/>
      <point x="629" y="718"/>
      <point x="540" y="732"/>
      <point x="448" y="732" type="curve" smooth="yes"/>
      <point x="192" y="732"/>
      <point x="80" y="636"/>
      <point x="80" y="476" type="curve" smooth="yes"/>
      <point x="80" y="400"/>
      <point x="132" y="348"/>
      <point x="200" y="316" type="curve"/>
      <point x="188" y="368" type="line"/>
      <point x="92" y="344"/>
      <point x="32" y="284"/>
    </contour>
    <contour>
      <point x="328" y="144" type="curve" smooth="yes"/>
      <point x="280" y="144"/>
      <point x="240" y="160"/>
      <point x="240" y="204" type="curve" smooth="yes"/>
      <point x="240" y="260"/>
      <point x="280" y="284"/>
      <point x="344" y="284" type="curve" smooth="yes"/>
      <point x="414" y="284" type="line"/>
      <point x="404" y="232" type="line" smooth="yes"/>
      <point x="395" y="191"/>
      <point x="393" y="154"/>
      <point x="400" y="128" type="curve"/>
      <point x="424" y="176" type="line"/>
      <point x="404" y="160"/>
      <point x="392" y="144"/>
    </contour>
  </outline>
</glyph>
<glyph name="quotesingle" format="2">
  <advance width="240"/>
  <unicode hex="0027"/>
  <note>
quotesingle
</note>
  <outline>
    <contour>
      <point x="136" y="720" type="line"/>
      <point x="92" y="460" type="line"/>
      <point x="236" y="460" type="line"/>
      <point x="296" y="720" type="line"/>
    </contour>
  </outline>
</glyph>
<glyph name="parenright" format="2">
  <advance width="392"/>
  <unicode hex="0029"/>
  <note>
parenright
</note>
  <outline>
    <contour>
      <point x="-68" y="-80" type="curve"/>
      <point x="-68" y="-88" type="line"/>
      <point x="140" y="-88" type="line"/>
      <point x="288" y="68"/>
      <point x="368" y="286"/>
      <point x="368" y="480" type="curve" smooth="yes"/>
      <point x="368" y="605"/>
      <point x="331" y="702"/>
      <point x="292" y="760" type="curve"/>
      <point x="96" y="760" type="line"/>
      <point x="96" y="752" type="line"/>
      <point x="144" y="678"/>
      <point x="172" y="590"/>
      <point x="172" y="480" type="curve" smooth="yes"/>
      <point x="172" y="246"/>
      <point x="64" y="52"/>
    </contour>
  </outline>
</glyph>
<glyph name="asterisk" format="2">
  <advance width="544"/>
  <unicode hex="002A"/>
  <note>
asterisk
</note>
  <outline>
    <contour>
      <point x="172" y="256" type="line"/>
      <point x="312" y="256" type="line"/>
      <point x="332" y="488" type="line"/>
      <point x="404" y="720" type="line"/>
      <point x="264" y="720" type="line"/>
      <point x="240" y="488" type="line"/>
    </contour>
    <contour>
      <point x="260" y="452" type="line"/>
      <point x="428" y="316" type="line"/>
      <point x="508" y="428" type="line"/>
      <point x="312" y="524" type="line"/>
      <point x="152" y="660" type="line"/>
      <point x="72" y="548" type="line"/>
    </contour>
    <contour>
      <point x="88" y="312" type="line"/>
      <point x="304" y="448" type="line"/>
      <point x="536" y="548" type="line"/>
      <point x="488" y="664" type="line"/>
      <point x="272" y="528" type="line"/>
      <point x="40" y="428" type="line"/>
    </contour>
  </outline>
</glyph>
<glyph name="comma" format="2">
  <advance width="284"/>
  <unicode hex="002C"/>
  <note>
comma
</note>
  <outline>
    <contour>
      <point x="40" y="4" type="curve"/>
      <point x="-80" y="-152" type="line"/>
      <point x="-80" y="-160" type="line"/>
      <point x="68" y="-160" type="line"/>
      <point x="144" y="-52" type="line" smooth="yes"/>
      <point x="174" y="-10"/>
      <point x="224" y="54"/>
      <point x="224" y="116" type="curve" smooth="yes"/>
      <point x="224" y="172"/>
      <point x="180" y="208"/>
      <point x="124" y="208" type="curve" smooth="yes"/>
      <point x="51" y="208"/>
      <point x="-4" y="154"/>
      <point x="-4" y="80" type="curve" smooth="yes"/>
      <point x="-4" y="41"/>
      <point x="18" y="16"/>
    </contour>
  </outline>
</glyph>
<glyph name="hyphen" format="2">
  <advance width="548"/>
  <unicode hex="002D"/>
  <note>
hyphen
</note>
  <outline>
    <contour>
      <point x="100" y="396" type="line"/>
      <point x="68" y="232" type="line"/>
      <point x="472" y="232" type="line"/>
      <point x="504" y="396" type="line"/>
    </contour>
  </outline>
</glyph>
<glyph name="slash" format="2">
  <advance width="588"/>
  <unicode hex="002F"/>
  <note>
slash
</note>
  <outline>
    <contour>
      <point x="-16" y="0" type="line"/>
      <point x="168" y="0" type="line"/>
      <point x="644" y="720" type="line"/>
      <point x="460" y="720" type="line"/>
    </contour>
  </outline>
</glyph>
<glyph name="zero" format="2">
  <advance width="616"/>
  <unicode hex="0030"/>
  <note>
zero
</note>
  <outline>
    <contour>
      <point x="284" y="-12" type="curve" smooth="yes" name="hr00"/>
      <point x="532" y="-12"/>
      <point x="628" y="260"/>
      <point x="628" y="452" type="curve" smooth="yes"/>
      <point x="628" y="620"/>
      <point x="548" y="732"/>
      <point x="372" y="732" type="curve" smooth="yes"/>
      <point x="124" y="732"/>
      <point x="28" y="460"/>
      <point x="28" y="268" type="curve" smooth="yes"/>
      <point x="28" y="100"/>
      <point x="108" y="-12"/>
    </contour>
    <contour>
      <point x="292" y="152" type="curve" smooth="yes"/>
      <point x="248" y="152"/>
      <point x="228" y="188"/>
      <point x="228" y="248" type="curve" smooth="yes"/>
      <point x="228" y="357"/>
      <point x="268" y="568"/>
      <point x="364" y="568" type="curve" smooth="yes"/>
      <point x="408" y="568"/>
      <point x="428" y="532"/>
      <point x="428" y="472" type="curve" smooth="yes"/>
      <point x="428" y="363"/>
      <point x="388" y="152"/>
    </contour>
  </outline>
</glyph>
<glyph name="two" format="2">
  <advance width="616"/>
  <unicode hex="0032"/>
  <note>
two
</note>
  <outline>
    <contour>
      <point x="0" y="0" type="curve"/>
      <point x="6" y="0" type="line"/>
      <point x="12" y="0" type="line"/>
      <point x="208" y="84" type="line"/>
      <point x="207" y="87"/>
      <point x="204" y="94"/>
      <point x="204" y="104" type="curve" smooth="yes"/>
      <point x="204" y="170"/>
      <point x="242" y="208"/>
      <point x="308" y="228" type="curve" smooth="yes"/>
      <point x="348" y="240" type="line" smooth="yes"/>
      <point x="519" y="291"/>
      <point x="604" y="360"/>
      <point x="604" y="508" type="curve" smooth="yes"/>
      <point x="604" y="632"/>
      <point x="515" y="732"/>
      <point x="340" y="732" type="curve" smooth="yes"/>
      <point x="264" y="732"/>
      <point x="207" y="720"/>
      <point x="154" y="700" type="curve"/>
      <point x="120" y="528" type="line"/>
      <point x="132" y="528" type="line"/>
      <point x="164" y="544"/>
      <point x="224" y="564"/>
      <point x="284" y="564" type="curve" smooth="yes"/>
      <point x="364" y="564"/>
      <point x="400" y="532"/>
      <point x="400" y="488" type="curve" smooth="yes"/>
      <point x="400" y="436"/>
      <point x="372" y="412"/>
      <point x="304" y="392" type="curve" smooth="yes"/>
      <point x="264" y="380" type="line" smooth="yes"/>
      <point x="74" y="323"/>
      <point x="-4" y="208"/>
      <point x="-4" y="40" type="curve" smooth="yes"/>
      <point x="-4" y="28"/>
      <point x="-2" y="8"/>
    </contour>
    <contour>
      <point x="12" y="0" type="line"/>
      <point x="516" y="0" type="line"/>
      <point x="548" y="168" type="line"/>
      <point x="44" y="168" type="line"/>
    </contour>
  </outline>
</glyph>
<glyph name="three" format="2">
  <advance width="616"/>
  <unicode hex="0033"/>
  <note>
three
</note>
  <outline>
    <contour>
      <point x="164" y="372" type="line"/>
      <point x="328" y="356" type="line"/>
      <point x="576" y="584" type="line" smooth="yes"/>
      <point x="615" y="619"/>
      <point x="636" y="656"/>
      <point x="628" y="708" type="curve"/>
      <point x="620" y="720" type="line"/>
      <point x="508" y="720" type="line"/>
    </contour>
    <contour>
      <point x="110" y="556" type="line"/>
      <point x="468" y="556" type="line"/>
      <point x="548" y="720" type="line"/>
      <point x="140" y="720" type="line"/>
    </contour>
    <contour>
      <point x="12" y="20" type="line"/>
      <point x="44" y="4"/>
      <point x="140" y="-12"/>
      <point x="208" y="-12" type="curve" smooth="yes"/>
      <point x="451" y="-12"/>
      <point x="576" y="92"/>
      <point x="576" y="236" type="curve" smooth="yes"/>
      <point x="576" y="332"/>
      <point x="516" y="416"/>
      <point x="392" y="428" type="curve"/>
      <point x="164" y="372" type="line"/>
      <point x="180" y="300" type="line"/>
      <point x="276" y="300" type="line" smooth="yes"/>
      <point x="340" y="300"/>
      <point x="368" y="276"/>
      <point x="368" y="232" type="curve" smooth="yes"/>
      <point x="368" y="172"/>
      <point x="308" y="144"/>
      <point x="216" y="144" type="curve" smooth="yes"/>
      <point x="144" y="144"/>
      <point x="80" y="172"/>
      <point x="56" y="188" type="curve"/>
      <point x="44" y="188" type="line"/>
    </contour>
  </outline>
</glyph>
<glyph name="five" format="2">
  <advance width="616"/>
  <unicode hex="0035"/>
  <note>
five
</note>
  <outline>
    <contour>
      <point x="156" y="556" type="line"/>
      <point x="600" y="556" type="line"/>
      <point x="632" y="720" type="line"/>
      <point x="292" y="720" type="line" smooth="yes"/>
      <point x="228" y="720"/>
      <point x="192" y="716"/>
      <point x="156" y="708" type="curve"/>
    </contour>
    <contour>
      <point x="80" y="292" type="line"/>
      <point x="292" y="392" type="line"/>
      <point x="311" y="492" type="line" smooth="yes"/>
      <point x="318" y="527"/>
      <point x="320" y="588"/>
      <point x="316" y="616" type="curve"/>
      <point x="316" y="688" type="line"/>
      <point x="156" y="708" type="line"/>
      <point x="152" y="696" type="line"/>
      <point x="148" y="648"/>
      <point x="136" y="588"/>
      <point x="128" y="548" type="curve" smooth="yes"/>
    </contour>
    <contour>
      <point x="4" y="24" type="line"/>
      <point x="36" y="8"/>
      <point x="124" y="-12"/>
      <point x="200" y="-12" type="curve" smooth="yes"/>
      <point x="448" y="-12"/>
      <point x="576" y="84"/>
      <point x="576" y="244" type="curve" smooth="yes"/>
      <point x="576" y="356"/>
      <point x="500" y="444"/>
      <point x="336" y="444" type="curve" smooth="yes"/>
      <point x="256" y="444"/>
      <point x="162" y="420"/>
      <point x="124" y="408" type="curve"/>
      <point x="80" y="292" type="line"/>
      <point x="88" y="288" type="line"/>
      <point x="125" y="296"/>
      <point x="168" y="304"/>
      <point x="240" y="304" type="curve" smooth="yes"/>
      <point x="336" y="304"/>
      <point x="368" y="280"/>
      <point x="368" y="240" type="curve" smooth="yes"/>
      <point x="368" y="180"/>
      <point x="312" y="152"/>
      <point x="208" y="152" type="curve" smooth="yes"/>
      <point x="132" y="152"/>
      <point x="80" y="172"/>
      <point x="48" y="192" type="curve"/>
      <point x="36" y="192" type="line"/>
    </contour>
  </outline>
</glyph>
<glyph name="seven" format="2">
  <advance width="616"/>
  <unicode hex="0037"/>
  <note>
seven
</note>
  <outline>
    <contour>
      <point x="68" y="0" type="line"/>
      <point x="288" y="0" type="line"/>
      <point x="616" y="556" type="line"/>
      <point x="647" y="607"/>
      <point x="662" y="647"/>
      <point x="662" y="683" type="curve" smooth="yes"/>
      <point x="662" y="692"/>
      <point x="661" y="700"/>
      <point x="660" y="708" type="curve"/>
      <point x="648" y="720" type="line"/>
      <point x="508" y="720" type="line"/>
      <point x="508" y="668" type="line"/>
      <point x="68" y="12" type="line"/>
    </contour>
    <contour>
      <point x="116" y="548" type="line"/>
      <point x="500" y="548" type="line"/>
      <point x="580" y="720" type="line"/>
      <point x="148" y="720" type="line"/>
    </contour>
  </outline>
</glyph>
<glyph name="eight" format="2">
  <advance width="616"/>
  <unicode hex="0038"/>
  <note>
eight
</note>
  <outline>
    <contour>
      <point x="12" y="168" type="curve" smooth="yes"/>
      <point x="12" y="68"/>
      <point x="100" y="-12"/>
      <point x="280" y="-12" type="curve" smooth="yes"/>
      <point x="468" y="-12"/>
      <point x="584" y="80"/>
      <point x="584" y="216" type="curve" smooth="yes"/>
      <point x="584" y="316"/>
      <point x="510" y="361"/>
      <point x="424" y="400" type="curve" smooth="yes"/>
      <point x="380" y="420" type="line" smooth="yes"/>
      <point x="317" y="449"/>
      <point x="284" y="468"/>
      <point x="284" y="508" type="curve" smooth="yes"/>
      <point x="284" y="556"/>
      <point x="316" y="584"/>
      <point x="368" y="584" type="curve" smooth="yes"/>
      <point x="417" y="584"/>
      <point x="444" y="560"/>
      <point x="444" y="520" type="curve" smooth="yes"/>
      <point x="444" y="472"/>
      <point x="407" y="431"/>
      <point x="352" y="408" type="curve"/>
      <point x="472" y="344" type="line"/>
      <point x="568" y="384"/>
      <point x="636" y="444"/>
      <point x="636" y="548" type="curve" smooth="yes"/>
      <point x="636" y="648"/>
      <point x="544" y="732"/>
      <point x="380" y="732" type="curve" smooth="yes"/>
      <point x="172" y="732"/>
      <point x="84" y="616"/>
      <point x="84" y="500" type="curve" smooth="yes"/>
      <point x="84" y="404"/>
      <point x="142" y="359"/>
      <point x="220" y="324" type="curve" smooth="yes"/>
      <point x="264" y="304" type="line" smooth="yes"/>
      <point x="327" y="275"/>
      <point x="380" y="260"/>
      <point x="380" y="208" type="curve" smooth="yes"/>
      <point x="380" y="165"/>
      <point x="344" y="136"/>
      <point x="288" y="136" type="curve" smooth="yes"/>
      <point x="228" y="136"/>
      <point x="204" y="166"/>
      <point x="204" y="204" type="curve" smooth="yes"/>
      <point x="204" y="257"/>
      <point x="240" y="289"/>
      <point x="288" y="312" type="curve"/>
      <point x="208" y="392" type="line"/>
      <point x="88" y="352"/>
      <point x="12" y="283"/>
    </contour>
  </outline>
</glyph>
<glyph name="less" format="2">
  <advance width="616"/>
  <unicode hex="003C"/>
  <note>
less
</note>
  <outline>
    <contour>
      <point x="96" y="280" type="line"/>
      <point x="536" y="60" type="line"/>
      <point x="544" y="60" type="line"/>
      <point x="544" y="200" type="line"/>
      <point x="284" y="320" type="line"/>
      <point x="544" y="444" type="line"/>
      <point x="544" y="580" type="line"/>
      <point x="536" y="580" type="line"/>
      <point x="96" y="360" type="line"/>
    </contour>
  </outline>
</glyph>
<glyph name="equal" format="2">
  <advance width="616"/>
  <unicode hex="003D"/>
  <note>
equal
</note>
  <outline>
    <contour>
      <point x="76" y="492" type="line"/>
      <point x="76" y="364" type="line"/>
      <point x="564" y="364" type="line"/>
      <point x="564" y="492" type="line"/>
    </contour>
    <contour>
      <point x="76" y="268" type="line"/>
      <point x="76" y="140" type="line"/>
      <point x="564" y="140" type="line"/>
      <point x="564" y="268" type="line"/>
    </contour>
  </outline>
</glyph>
<glyph name="question" format="2">
  <advance width="508"/>
  <unicode hex="003F"/>
  <note>
question
</note>
  <outline>
    <contour>
      <point x="132" y="288" type="curve" smooth="yes"/>
      <point x="128" y="252" type="line"/>
      <point x="316" y="252" type="line"/>
      <point x="320" y="284" type="line" smooth="yes"/>
      <point x="325" y="320"/>
      <point x="336" y="339"/>
      <point x="372" y="360" type="curve" smooth="yes"/>
      <point x="400" y="376" type="line" smooth="yes"/>
      <point x="442" y="400"/>
      <point x="548" y="460"/>
      <point x="548" y="572" type="curve" smooth="yes"/>
      <point x="548" y="684"/>
      <point x="472" y="732"/>
      <point x="328" y="732" type="curve" smooth="yes"/>
      <point x="264" y="732"/>
      <point x="192" y="720"/>
      <point x="136" y="700" type="curve"/>
      <point x="104" y="540" type="line"/>
      <point x="116" y="540" type="line"/>
      <point x="156" y="560"/>
      <point x="216" y="576"/>
      <point x="260" y="576" type="curve" smooth="yes"/>
      <point x="313" y="576"/>
      <point x="336" y="563"/>
      <point x="336" y="532" type="curve" smooth="yes"/>
      <point x="336" y="497"/>
      <point x="309" y="475"/>
      <point x="260" y="448" type="curve" smooth="yes"/>
      <point x="224" y="428" type="line" smooth="yes"/>
      <point x="164" y="395"/>
      <point x="139" y="352"/>
    </contour>
    <contour>
      <point x="80" y="80" type="curve" smooth="yes"/>
      <point x="80" y="20"/>
      <point x="120" y="-12"/>
      <point x="176" y="-12" type="curve" smooth="yes"/>
      <point x="248" y="-12"/>
      <point x="308" y="44"/>
      <point x="308" y="116" type="curve" smooth="yes"/>
      <point x="308" y="176"/>
      <point x="268" y="208"/>
      <point x="212" y="208" type="curve" smooth="yes"/>
      <point x="140" y="208"/>
      <point x="80" y="152"/>
    </contour>
  </outline>
</glyph>
<glyph name="B" format="2">
  <advance width="704"/>
  <unicode hex="0042"/>
  <note>
B
</note>
  <anchor x="299" y="0" name="bottom"/>
  <anchor x="439" y="720" name="top"/>
  <outline>
    <contour>
      <point x="168" y="0" type="line"/>
      <point x="368" y="0" type="line" smooth="yes"/>
      <point x="528" y="0"/>
      <point x="656" y="74"/>
      <point x="656" y="216" type="curve" smooth="yes"/>
      <point x="656" y="295"/>
      <point x="606" y="344"/>
      <point x="508" y="356" type="curve"/>
      <point x="516" y="308" type="line"/>
      <point x="629" y="348"/>
      <point x="696" y="427"/>
      <point x="696" y="536" type="curve" smooth="yes"/>
      <point x="696" y="632"/>
      <point x="624" y="720"/>
      <point x="456" y="720" type="curve" smooth="yes"/>
      <point x="308" y="720" type="line"/>
      <point x="276" y="548" type="line"/>
      <point x="424" y="548" type="line" smooth="yes"/>
      <point x="456" y="548"/>
      <point x="488" y="536"/>
      <point x="488" y="492" type="curve" smooth="yes"/>
      <point x="488" y="444"/>
      <point x="452" y="404"/>
      <point x="400" y="404" type="curve" smooth="yes"/>
      <point x="248" y="404" type="line"/>
      <point x="220" y="256" type="line"/>
      <point x="408" y="256" type="line" smooth="yes"/>
      <point x="436" y="256"/>
      <point x="448" y="240"/>
      <point x="448" y="220" type="curve" smooth="yes"/>
      <point x="448" y="188"/>
      <point x="424" y="164"/>
      <point x="392" y="164" type="curve" smooth="yes"/>
      <point x="200" y="164" type="line"/>
    </contour>
    <contour>
      <point x="20" y="0" type="line"/>
      <point x="232" y="0" type="line"/>
      <point x="372" y="720" type="line"/>
      <point x="160" y="720" type="line"/>
    </contour>
  </outline>
</glyph>
<glyph name="D" format="2">
  <advance width="776"/>
  <unicode hex="0044"/>
  <note>
D
</note>
  <anchor x="330" y="0" name="bottom"/>
  <anchor x="198" y="362" name="center"/>
  <anchor x="483" y="720" name="top"/>
  <outline>
    <contour>
      <point x="308" y="720" type="line"/>
      <point x="272" y="536" type="line"/>
      <point x="400" y="536" type="line" smooth="yes"/>
      <point x="512" y="536"/>
      <point x="552" y="500"/>
      <point x="552" y="420" type="curve" smooth="yes"/>
      <point x="552" y="284"/>
      <point x="468" y="184"/>
      <point x="336" y="184" type="curve" smooth="yes"/>
      <point x="204" y="184" type="line"/>
      <point x="168" y="0" type="line"/>
      <point x="328" y="0" type="line" smooth="yes"/>
      <point x="628" y="0"/>
      <point x="768" y="220"/>
      <point x="768" y="432" type="curve" smooth="yes"/>
      <point x="768" y="628"/>
      <point x="640" y="720"/>
      <point x="420" y="720" type="curve" smooth="yes"/>
    </contour>
    <contour>
      <point x="20" y="0" type="line"/>
      <point x="232" y="0" type="line"/>
      <point x="372" y="720" type="line"/>
      <point x="160" y="720" type="line"/>
    </contour>
  </outline>
</glyph>
<glyph name="F" format="2">
  <advance width="588"/>
  <unicode hex="0046"/>
  <note>
F
</note>
  <anchor x="241" y="0" name="bottom"/>
  <anchor x="381" y="720" name="top"/>
  <outline>
    <contour>
      <point x="20" y="0" type="line"/>
      <point x="232" y="0" type="line"/>
      <point x="372" y="720" type="line"/>
      <point x="160" y="720" type="line"/>
    </contour>
    <contour>
      <point x="216" y="216" type="line"/>
      <point x="500" y="216" type="line"/>
      <point x="532" y="388" type="line"/>
      <point x="248" y="388" type="line"/>
    </contour>
    <contour>
      <point x="272" y="536" type="line"/>
      <point x="610" y="536" type="line"/>
      <point x="644" y="720" type="line"/>
      <point x="308" y="720" type="line"/>
    </contour>
  </outline>
</glyph>
<glyph name="G" format="2">
  <advance width="724"/>
  <unicode hex="0047"/>
  <note>
G
</note>
  <anchor x="309" y="0" name="bottom"/>
  <anchor x="449" y="720" name="top"/>
  <outline>
    <contour>
      <point x="48" y="314" type="curve" smooth="yes"/>
      <point x="48" y="104"/>
      <point x="168" y="-12"/>
      <point x="424" y="-12" type="curve" smooth="yes"/>
      <point x="480" y="-12"/>
      <point x="568" y="0"/>
      <point x="618" y="20" type="curve"/>
      <point x="684" y="368" type="line"/>
      <point x="490" y="368" type="line"/>
      <point x="434" y="78" type="line"/>
      <point x="488" y="194" type="line"/>
      <point x="473" y="171"/>
      <point x="444" y="160"/>
      <point x="408" y="160" type="curve" smooth="yes"/>
      <point x="300" y="160"/>
      <point x="264" y="228"/>
      <point x="264" y="320" type="curve" smooth="yes"/>
      <point x="264" y="456"/>
      <point x="348" y="556"/>
      <point x="518" y="556" type="curve" smooth="yes"/>
      <point x="588" y="556"/>
      <point x="646" y="538"/>
      <point x="672" y="524" type="curve"/>
      <point x="684" y="524" type="line"/>
      <point x="718" y="704" type="line"/>
      <point x="676" y="720"/>
      <point x="612" y="732"/>
      <point x="512" y="732" type="curve" smooth="yes"/>
      <point x="222" y="732"/>
      <point x="48" y="556"/>
    </contour>
  </outline>
</glyph>
<glyph name="H" format="2">
  <advance width="784"/>
  <unicode hex="0048"/>
  <note>
H
</note>
  <anchor x="334" y="0" name="bottom"/>
  <anchor x="456" y="574" name="center"/>
  <anchor x="480" y="720" name="top"/>
  <anchor x="808" y="720" name="topleft"/>
  <outline>
    <contour>
      <point x="596" y="720" type="line"/>
      <point x="456" y="0" type="line"/>
      <point x="668" y="0" type="line"/>
      <point x="808" y="720" type="line"/>
    </contour>
    <contour>
      <point x="232" y="0" type="line"/>
      <point x="372" y="720" type="line"/>
      <point x="160" y="720" type="line"/>
      <point x="20" y="0" type="line"/>
    </contour>
    <contour>
      <point x="576" y="264" type="line"/>
      <point x="612" y="448" type="line"/>
      <point x="244" y="448" type="line"/>
      <point x="208" y="264" type="line"/>
    </contour>
  </outline>
</glyph>
<glyph name="J" format="2">
  <advance width="484"/>
  <unicode hex="004A"/>
  <note>
J
</note>
  <anchor x="189" y="0" name="bottom"/>
  <anchor x="329" y="720" name="top"/>
  <outline>
    <contour>
      <point x="100" y="-12" type="curve" smooth="yes"/>
      <point x="272" y="-12"/>
      <point x="385" y="64"/>
      <point x="420" y="252" type="curve" smooth="yes"/>
      <point x="508" y="720" type="line"/>
      <point x="296" y="720" type="line"/>
      <point x="210" y="264" type="line" smooth="yes"/>
      <point x="196" y="192"/>
      <point x="152" y="160"/>
      <point x="80" y="160" type="curve" smooth="yes"/>
      <point x="52" y="160"/>
      <point x="36" y="166"/>
      <point x="20" y="176" type="curve"/>
      <point x="8" y="176" type="line"/>
      <point x="-24" y="4" type="line"/>
      <point x="2" y="-4"/>
      <point x="60" y="-12"/>
    </contour>
  </outline>
</glyph>
<glyph name="L" format="2">
  <advance width="572"/>
  <unicode hex="004C"/>
  <note>
L
</note>
  <anchor x="228" y="0" name="bottom"/>
  <anchor x="210" y="392" name="center"/>
  <anchor x="454" y="432" name="periodCAT"/>
  <anchor x="381" y="720" name="top"/>
  <anchor x="514" y="520" name="topright"/>
  <outline>
    <contour>
      <point x="20" y="0" type="line"/>
      <point x="492" y="0" type="line"/>
      <point x="526" y="184" type="line"/>
      <point x="268" y="184" type="line"/>
      <point x="372" y="720" type="line"/>
      <point x="160" y="720" type="line"/>
    </contour>
  </outline>
</glyph>
<glyph name="N" format="2">
  <advance width="788"/>
  <unicode hex="004E"/>
  <note>
N
</note>
  <anchor x="341" y="0" name="bottom"/>
  <anchor x="481" y="720" name="top"/>
  <outline>
    <contour>
      <point x="464" y="0" type="line"/>
      <point x="676" y="0" type="line"/>
      <point x="812" y="720" type="line"/>
      <point x="600" y="720" type="line"/>
    </contour>
    <contour>
      <point x="20" y="0" type="line"/>
      <point x="232" y="0" type="line"/>
      <point x="320" y="468" type="line"/>
      <point x="268" y="472" type="line"/>
      <point x="552" y="104" type="line"/>
      <point x="600" y="364" type="line"/>
      <point x="324" y="720" type="line"/>
      <point x="156" y="720" type="line"/>
    </contour>
  </outline>
</glyph>
<glyph name="Q" format="2">
  <advance width="832"/>
  <unicode hex="0051"/>
  <note>
Q
</note>
  <anchor x="363" y="0" name="bottom"/>
  <anchor x="503" y="720" name="top"/>
  <anchor x="433" y="360" name="center"/>
  <anchor x="503" y="0" name="ogonek"/>
  <anchor x="107" y="720" name="topleft"/>
  <anchor x="587" y="713" name="topright"/>
  <outline>
    <contour>
      <point x="544" y="124" type="line"/>
      <point x="348" y="76" type="line"/>
      <point x="548" y="-160" type="line"/>
      <point x="788" y="-160" type="line"/>
      <point x="788" y="-148" type="line"/>
    </contour>
    <component base="O"/>
  </outline>
</glyph>
<glyph name="S" format="2">
  <advance width="648"/>
  <unicode hex="0053"/>
  <note>
S
</note>
  <anchor x="271" y="0" name="bottom"/>
  <anchor x="411" y="720" name="top"/>
  <outline>
    <contour>
      <point x="52" y="212" type="line"/>
      <point x="18" y="36" type="line"/>
      <point x="80" y="8"/>
      <point x="176" y="-12"/>
      <point x="268" y="-12" type="curve" smooth="yes"/>
      <point x="456" y="-12"/>
      <point x="616" y="48"/>
      <point x="616" y="224" type="curve" smooth="yes"/>
      <point x="616" y="348"/>
      <point x="517" y="393"/>
      <point x="412" y="412" type="curve" smooth="yes"/>
      <point x="368" y="420" type="line" smooth="yes"/>
      <point x="303" y="432"/>
      <point x="280" y="448"/>
      <point x="280" y="484" type="curve" smooth="yes"/>
      <point x="280" y="536"/>
      <point x="332" y="564"/>
      <point x="424" y="564" type="curve" smooth="yes"/>
      <point x="512" y="564"/>
      <point x="580" y="544"/>
      <point x="620" y="524" type="curve"/>
      <point x="632" y="524" type="line"/>
      <point x="666" y="700" type="line"/>
      <point x="625" y="718"/>
      <point x="528" y="732"/>
      <point x="452" y="732" type="curve" smooth="yes"/>
      <point x="180" y="732"/>
      <point x="68" y="620"/>
      <point x="68" y="460" type="curve" smooth="yes"/>
      <point x="68" y="348"/>
      <point x="152" y="281"/>
      <point x="288" y="256" type="curve" smooth="yes"/>
      <point x="332" y="248" type="line" smooth="yes"/>
      <point x="385" y="238"/>
      <point x="404" y="232"/>
      <point x="404" y="204" type="curve" smooth="yes"/>
      <point x="404" y="168"/>
      <point x="360" y="156"/>
      <point x="292" y="156" type="curve" smooth="yes"/>
      <point x="192" y="156"/>
      <point x="112" y="180"/>
      <point x="64" y="212" type="curve"/>
    </contour>
  </outline>
</glyph>
<glyph name="V" format="2">
  <advance width="716"/>
  <unicode hex="0056"/>
  <note>
V
</note>
  <anchor x="305" y="0" name="bottom"/>
  <anchor x="445" y="720" name="top"/>
  <outline>
    <contour>
      <point x="22" y="24" type="curve"/>
      <point x="30" y="12" type="line"/>
      <point x="81" y="0"/>
      <point x="140" y="-8"/>
      <point x="200" y="-8" type="curve" smooth="yes"/>
      <point x="392" y="-8"/>
      <point x="532" y="22"/>
      <point x="614" y="252" type="curve" smooth="yes"/>
      <point x="782" y="720" type="line"/>
      <point x="566" y="720" type="line"/>
      <point x="402" y="260" type="line" smooth="yes"/>
      <point x="379" y="197"/>
      <point x="360" y="168"/>
      <point x="284" y="168" type="curve" smooth="yes"/>
      <point x="272" y="168"/>
      <point x="256" y="168"/>
      <point x="224" y="188" type="curve"/>
      <point x="248" y="124" type="line"/>
      <point x="260" y="144"/>
      <point x="277" y="188"/>
      <point x="285" y="232" type="curve" smooth="yes"/>
      <point x="377" y="720" type="line"/>
      <point x="165" y="720" type="line"/>
      <point x="61" y="168" type="line" smooth="yes"/>
      <point x="53" y="128"/>
      <point x="38" y="60"/>
    </contour>
  </outline>
</glyph>
<glyph name="Y" format="2">
  <advance width="676"/>
  <unicode hex="0059"/>
  <note>
Y
</note>
  <anchor x="285" y="0" name="bottom"/>
  <anchor x="425" y="720" name="top"/>
  <anchor x="107" y="720" name="topleft"/>
  <outline>
    <contour>
      <point x="235" y="304" type="line"/>
      <point x="178" y="0" type="line"/>
      <point x="390" y="0" type="line"/>
      <point x="446" y="295" type="line"/>
      <point x="766" y="708" type="line"/>
      <point x="766" y="720" type="line"/>
      <point x="546" y="720" type="line"/>
      <point x="344" y="420" type="line"/>
      <point x="404" y="404" type="line"/>
      <point x="302" y="720" type="line"/>
      <point x="90" y="720" type="line"/>
      <point x="90" y="708" type="line"/>
    </contour>
  </outline>
</glyph>
<glyph name="Z" format="2">
  <advance width="664"/>
  <unicode hex="005A"/>
  <note>
Z
</note>
  <anchor x="279" y="0" name="bottom"/>
  <anchor x="419" y="720" name="top"/>
  <outline>
    <contour>
      <point x="136" y="720" type="line"/>
      <point x="100" y="536" type="line"/>
      <point x="476" y="536" type="line"/>
      <point x="444" y="600" type="line"/>
      <point x="48" y="156" type="line" smooth="yes"/>
      <point x="13" y="117"/>
      <point x="-13" y="63"/>
      <point x="-8" y="12" type="curve"/>
      <point x="4" y="0" type="line"/>
      <point x="580" y="0" type="line"/>
      <point x="616" y="184" type="line"/>
      <point x="224" y="184" type="line"/>
      <point x="244" y="108" type="line"/>
      <point x="652" y="564" type="line" smooth="yes"/>
      <point x="691" y="607"/>
      <point x="714" y="652"/>
      <point x="708" y="708" type="curve"/>
      <point x="700" y="720" type="line"/>
    </contour>
  </outline>
</glyph>
<glyph name="bracketleft" format="2">
  <advance width="408"/>
  <unicode hex="005B"/>
  <note>
bracketleft
</note>
  <outline>
    <contour>
      <point x="156" y="760" type="line"/>
      <point x="-8" y="-88" type="line"/>
      <point x="320" y="-88" type="line"/>
      <point x="348" y="60" type="line"/>
      <point x="200" y="60" type="line"/>
      <point x="307" y="612" type="line"/>
      <point x="456" y="612" type="line"/>
      <point x="484" y="760" type="line"/>
    </contour>
  </outline>
</glyph>
<glyph name="underscore" format="2">
  <advance width="500"/>
  <unicode hex="005F"/>
  <note>
underscore
</note>
  <outline>
    <contour>
      <point x="432" y="-12" type="line"/>
      <point x="-36" y="-12" type="line"/>
      <point x="-64" y="-152" type="line"/>
      <point x="404" y="-152" type="line"/>
    </contour>
  </outline>
</glyph>
<glyph name="b" format="2">
  <advance width="684"/>
  <unicode hex="0062"/>
  <note>
b
</note>
  <anchor x="289" y="0" name="bottom"/>
  <anchor x="436" y="760" name="top"/>
  <outline>
    <contour>
      <point x="260" y="-12" type="curve" smooth="yes"/>
      <point x="496" y="-12"/>
      <point x="652" y="96"/>
      <point x="652" y="324" type="curve" smooth="yes"/>
      <point x="652" y="480"/>
      <point x="564" y="564"/>
      <point x="432" y="564" type="curve" smooth="yes"/>
      <point x="388" y="564"/>
      <point x="352" y="556"/>
      <point x="320" y="540" type="curve"/>
      <point x="292" y="400" type="line"/>
      <point x="308" y="408"/>
      <point x="324" y="412"/>
      <point x="344" y="412" type="curve" smooth="yes"/>
      <point x="404" y="412"/>
      <point x="436" y="376"/>
      <point x="436" y="304" type="curve" smooth="yes"/>
      <point x="436" y="208"/>
      <point x="388" y="136"/>
      <point x="300" y="136" type="curve" smooth="yes"/>
      <point x="264" y="136"/>
      <point x="244" y="144"/>
      <point x="228" y="156" type="curve"/>
      <point x="236" y="96" type="line"/>
      <point x="248" y="120"/>
      <point x="264" y="163"/>
      <point x="272" y="204" type="curve" smooth="yes"/>
      <point x="380" y="760" type="line"/>
      <point x="157" y="760" type="line"/>
      <point x="149" y="748" type="line"/>
      <point x="151" y="696"/>
      <point x="144" y="644"/>
      <point x="135" y="596" type="curve" smooth="yes"/>
      <point x="54" y="176" type="line" smooth="yes"/>
      <point x="42" y="116"/>
      <point x="34" y="80"/>
      <point x="16" y="24" type="curve"/>
      <point x="20" y="16" type="line"/>
      <point x="72" y="0"/>
      <point x="180" y="-12"/>
    </contour>
  </outline>
</glyph>
<glyph name="c" format="2">
  <advance width="532"/>
  <unicode hex="0063"/>
  <note>
c
</note>
  <anchor x="265" y="0" name="bottom"/>
  <anchor x="362" y="548" name="top"/>
  <outline>
    <contour>
      <point x="40" y="232" type="curve" smooth="yes"/>
      <point x="40" y="60"/>
      <point x="152" y="-12"/>
      <point x="328" y="-12" type="curve" smooth="yes"/>
      <point x="360" y="-12"/>
      <point x="406" y="-6"/>
      <point x="440" y="4" type="curve"/>
      <point x="472" y="168" type="line"/>
      <point x="460" y="168" type="line"/>
      <point x="436" y="160"/>
      <point x="412" y="152"/>
      <point x="376" y="152" type="curve" smooth="yes"/>
      <point x="300" y="152"/>
      <point x="256" y="184"/>
      <point x="256" y="248" type="curve" smooth="yes"/>
      <point x="256" y="344"/>
      <point x="324" y="400"/>
      <point x="412" y="400" type="curve" smooth="yes"/>
      <point x="456" y="400"/>
      <point x="482" y="392"/>
      <point x="500" y="384" type="curve"/>
      <point x="512" y="384" type="line"/>
      <point x="544" y="548" type="line"/>
      <point x="514" y="558"/>
      <point x="460" y="564"/>
      <point x="416" y="564" type="curve" smooth="yes"/>
      <point x="176" y="564"/>
      <point x="40" y="428"/>
    </contour>
  </outline>
</glyph>
<glyph name="d" format="2">
  <advance width="684"/>
  <unicode hex="0064"/>
  <note>
d
</note>
  <anchor x="284" y="0" name="bottom"/>
  <anchor x="574" y="650" name="center"/>
  <anchor x="445" y="760" name="top"/>
  <anchor x="808" y="548" name="topright"/>
  <outline>
    <contour>
      <point x="464" y="400" type="curve"/>
      <point x="500" y="540" type="line"/>
      <point x="476" y="552"/>
      <point x="444" y="564"/>
      <point x="388" y="564" type="curve" smooth="yes"/>
      <point x="132" y="564"/>
      <point x="40" y="384"/>
      <point x="40" y="240" type="curve" smooth="yes"/>
      <point x="40" y="52"/>
      <point x="164" y="-12"/>
      <point x="328" y="-12" type="curve" smooth="yes"/>
      <point x="440" y="-12"/>
      <point x="516" y="8"/>
      <point x="580" y="28" type="curve"/>
      <point x="588" y="36" type="line"/>
      <point x="588" y="88"/>
      <point x="598" y="150"/>
      <point x="608" y="200" type="curve" smooth="yes"/>
      <point x="716" y="760" type="line"/>
      <point x="494" y="760" type="line"/>
      <point x="486" y="748" type="line"/>
      <point x="488" y="696"/>
      <point x="480" y="636"/>
      <point x="472" y="596" type="curve" smooth="yes"/>
      <point x="404" y="240" type="line" smooth="yes"/>
      <point x="394" y="186"/>
      <point x="392" y="136"/>
      <point x="396" y="100" type="curve"/>
      <point x="436" y="164" type="line"/>
      <point x="416" y="156"/>
      <point x="388" y="140"/>
      <point x="348" y="140" type="curve" smooth="yes"/>
      <point x="284" y="140"/>
      <point x="256" y="180"/>
      <point x="256" y="240" type="curve" smooth="yes"/>
      <point x="256" y="340"/>
      <point x="308" y="416"/>
      <point x="396" y="416" type="curve" smooth="yes"/>
      <point x="424" y="416"/>
      <point x="448" y="408"/>
    </contour>
  </outline>
</glyph>
<glyph name="e" format="2">
  <advance width="638"/>
  <unicode hex="0065"/>
  <note>
e
</note>
  <anchor x="275" y="0" name="bottom"/>
  <anchor x="514" y="12" name="ogonek"/>
  <anchor x="380" y="548" name="top"/>
  <outline>
    <contour>
      <point x="354" y="-12" type="curve" smooth="yes"/>
      <point x="414" y="-12"/>
      <point x="466" y="-4"/>
      <point x="514" y="12" type="curve"/>
      <point x="546" y="172" type="line"/>
      <point x="534" y="172" type="line"/>
      <point x="502" y="156"/>
      <point x="442" y="144"/>
      <point x="390" y="144" type="curve" smooth="yes"/>
      <point x="302" y="144"/>
      <point x="250" y="172"/>
      <point x="250" y="252" type="curve"/>
      <point x="250" y="264" type="line"/>
      <point x="250" y="368"/>
      <point x="294" y="424"/>
      <point x="354" y="424" type="curve" smooth="yes"/>
      <point x="398" y="424"/>
      <point x="422" y="400"/>
      <point x="422" y="364" type="curve" smooth="yes"/>
      <point x="422" y="352"/>
      <point x="420" y="342"/>
      <point x="418" y="332" type="curve"/>
      <point x="170" y="332" type="line"/>
      <point x="170" y="220" type="line"/>
      <point x="594" y="220" type="line"/>
      <point x="606" y="264"/>
      <point x="614" y="312"/>
      <point x="614" y="352" type="curve" smooth="yes"/>
      <point x="614" y="480"/>
      <point x="542" y="564"/>
      <point x="362" y="564" type="curve" smooth="yes"/>
      <point x="182" y="564"/>
      <point x="42" y="440"/>
      <point x="42" y="236" type="curve" smooth="yes"/>
      <point x="42" y="52"/>
      <point x="182" y="-12"/>
    </contour>
  </outline>
</glyph>
<glyph name="f" format="2">
  <advance width="464"/>
  <unicode hex="0066"/>
  <note>
f
</note>
  <anchor x="179" y="0" name="bottom"/>
  <anchor x="326" y="760" name="top"/>
  <outline>
    <contour>
      <point x="52" y="0" type="line"/>
      <point x="264" y="0" type="line"/>
      <point x="370" y="548" type="line"/>
      <point x="380" y="600"/>
      <point x="412" y="624"/>
      <point x="468" y="624" type="curve" smooth="yes"/>
      <point x="496" y="624"/>
      <point x="518" y="618"/>
      <point x="528" y="612" type="curve"/>
      <point x="540" y="612" type="line"/>
      <point x="570" y="764" type="line"/>
      <point x="550" y="770"/>
      <point x="508" y="776"/>
      <point x="468" y="776" type="curve" smooth="yes"/>
      <point x="304" y="776"/>
      <point x="192" y="720"/>
      <point x="158" y="548" type="curve"/>
    </contour>
    <contour>
      <point x="32" y="388" type="line"/>
      <point x="456" y="388" type="line"/>
      <point x="488" y="548" type="line"/>
      <point x="64" y="548" type="line"/>
    </contour>
  </outline>
</glyph>
<glyph name="h" format="2">
  <advance width="692"/>
  <unicode hex="0068"/>
  <note>
h
</note>
  <anchor x="300" y="0" name="bottom"/>
  <anchor x="267" y="650" name="center"/>
  <anchor x="274" y="760" name="top"/>
  <outline>
    <contour>
      <point x="232" y="0" type="line"/>
      <point x="380" y="760" type="line"/>
      <point x="157" y="760" type="line"/>
      <point x="149" y="748" type="line"/>
      <point x="151" y="696"/>
      <point x="144" y="644"/>
      <point x="135" y="596" type="curve" smooth="yes"/>
      <point x="20" y="0" type="line"/>
    </contour>
    <contour>
      <point x="284" y="540" type="curve"/>
      <point x="272" y="388" type="line"/>
      <point x="300" y="396"/>
      <point x="332" y="400"/>
      <point x="352" y="400" type="curve" smooth="yes"/>
      <point x="412" y="400"/>
      <point x="428" y="368"/>
      <point x="428" y="332" type="curve" smooth="yes"/>
      <point x="428" y="323"/>
      <point x="427" y="308"/>
      <point x="424" y="292" type="curve" smooth="yes"/>
      <point x="368" y="0" type="line"/>
      <point x="580" y="0" type="line"/>
      <point x="636" y="292" type="line" smooth="yes"/>
      <point x="642" y="322"/>
      <point x="644" y="348"/>
      <point x="644" y="372" type="curve" smooth="yes"/>
      <point x="644" y="472"/>
      <point x="580" y="564"/>
      <point x="420" y="564" type="curve" smooth="yes"/>
      <point x="368" y="564"/>
      <point x="328" y="556"/>
    </contour>
  </outline>
</glyph>
<glyph name="m" format="2">
  <advance width="1032"/>
  <unicode hex="006D"/>
  <note>
m
</note>
  <anchor x="463" y="0" name="bottom"/>
  <anchor x="569" y="548" name="top"/>
  <outline>
    <contour>
      <point x="20" y="0" type="line"/>
      <point x="232" y="0" type="line"/>
      <point x="292" y="312" type="line" smooth="yes"/>
      <point x="301" y="361"/>
      <point x="308" y="412"/>
      <point x="296" y="444" type="curve"/>
      <point x="268" y="380" type="line"/>
      <point x="296" y="392"/>
      <point x="316" y="400"/>
      <point x="348" y="400" type="curve" smooth="yes"/>
      <point x="408" y="400"/>
      <point x="424" y="368"/>
      <point x="424" y="332" type="curve" smooth="yes"/>
      <point x="424" y="323"/>
      <point x="423" y="308"/>
      <point x="420" y="292" type="curve" smooth="yes"/>
      <point x="364" y="0" type="line"/>
      <point x="576" y="0" type="line"/>
      <point x="632" y="292" type="line" smooth="yes"/>
      <point x="638" y="322"/>
      <point x="640" y="348"/>
      <point x="640" y="372" type="curve" smooth="yes"/>
      <point x="640" y="520"/>
      <point x="532" y="564"/>
      <point x="364" y="564" type="curve" smooth="yes"/>
      <point x="272" y="564"/>
      <point x="176" y="544"/>
      <point x="116" y="524" type="curve"/>
      <point x="108" y="516" type="line"/>
      <point x="108" y="464"/>
      <point x="98" y="403"/>
      <point x="88" y="352" type="curve" smooth="yes"/>
    </contour>
    <contour>
      <point x="704" y="0" type="line"/>
      <point x="916" y="0" type="line"/>
      <point x="972" y="292" type="line" smooth="yes"/>
      <point x="978" y="322"/>
      <point x="980" y="348"/>
      <point x="980" y="372" type="curve" smooth="yes"/>
      <point x="980" y="512"/>
      <point x="884" y="564"/>
      <point x="744" y="564" type="curve" smooth="yes"/>
      <point x="668" y="564"/>
      <point x="600" y="544"/>
      <point x="540" y="520" type="curve"/>
      <point x="620" y="384" type="line"/>
      <point x="644" y="396"/>
      <point x="668" y="400"/>
      <point x="688" y="400" type="curve" smooth="yes"/>
      <point x="748" y="400"/>
      <point x="764" y="368"/>
      <point x="764" y="332" type="curve" smooth="yes"/>
      <point x="764" y="323"/>
      <point x="763" y="308"/>
      <point x="760" y="292" type="curve" smooth="yes"/>
    </contour>
  </outline>
</glyph>
<glyph name="o" format="2">
  <advance width="672"/>
  <unicode hex="006F"/>
  <note>
o
</note>
  <anchor x="283" y="0" name="bottom"/>
  <anchor x="336" y="274" name="center"/>
  <anchor x="407" y="0" name="ogonek"/>
  <anchor x="393" y="548" name="top"/>
  <anchor x="482" y="548" name="topright"/>
  <outline>
    <contour>
      <point x="40" y="224" type="curve" smooth="yes"/>
      <point x="40" y="68"/>
      <point x="136" y="-12"/>
      <point x="308" y="-12" type="curve" smooth="yes"/>
      <point x="532" y="-12"/>
      <point x="640" y="148"/>
      <point x="640" y="328" type="curve" smooth="yes"/>
      <point x="640" y="484"/>
      <point x="544" y="564"/>
      <point x="372" y="564" type="curve" smooth="yes"/>
      <point x="148" y="564"/>
      <point x="40" y="404"/>
    </contour>
    <contour>
      <point x="256" y="212" type="curve" smooth="yes"/>
      <point x="256" y="284"/>
      <point x="284" y="416"/>
      <point x="364" y="416" type="curve" smooth="yes"/>
      <point x="404" y="416"/>
      <point x="424" y="388"/>
      <point x="424" y="340" type="curve" smooth="yes"/>
      <point x="424" y="268"/>
      <point x="396" y="136"/>
      <point x="316" y="136" type="curve" smooth="yes"/>
      <point x="276" y="136"/>
      <point x="256" y="164"/>
    </contour>
  </outline>
</glyph>
<glyph name="p" format="2">
  <advance width="688"/>
  <unicode hex="0070"/>
  <note>
p
</note>
  <anchor x="291" y="0" name="bottom"/>
  <anchor x="397" y="548" name="top"/>
  <outline>
    <contour>
      <point x="220" y="168" type="curve"/>
      <point x="200" y="16" type="line"/>
      <point x="216" y="0"/>
      <point x="252" y="-12"/>
      <point x="308" y="-12" type="curve" smooth="yes"/>
      <point x="564" y="-12"/>
      <point x="656" y="168"/>
      <point x="656" y="312" type="curve" smooth="yes"/>
      <point x="656" y="500"/>
      <point x="532" y="564"/>
      <point x="368" y="564" type="curve" smooth="yes"/>
      <point x="256" y="564"/>
      <point x="180" y="544"/>
      <point x="116" y="524" type="curve"/>
      <point x="108" y="516" type="line"/>
      <point x="108" y="464"/>
      <point x="98" y="404"/>
      <point x="88" y="352" type="curve" smooth="yes"/>
      <point x="-24" y="-232" type="line"/>
      <point x="188" y="-232" type="line"/>
      <point x="292" y="312" type="line" smooth="yes"/>
      <point x="302" y="366"/>
      <point x="306" y="418"/>
      <point x="296" y="444" type="curve"/>
      <point x="260" y="380" type="line"/>
      <point x="276" y="396"/>
      <point x="312" y="412"/>
      <point x="348" y="412" type="curve" smooth="yes"/>
      <point x="416" y="412"/>
      <point x="440" y="368"/>
      <point x="440" y="312" type="curve" smooth="yes"/>
      <point x="440" y="212"/>
      <point x="388" y="136"/>
      <point x="300" y="136" type="curve" smooth="yes"/>
      <point x="252" y="136"/>
      <point x="244" y="148"/>
    </contour>
  </outline>
</glyph>
<glyph name="q" format="2">
  <advance width="684"/>
  <unicode hex="0071"/>
  <note>
q
</note>
  <anchor x="289" y="0" name="bottom"/>
  <anchor x="395" y="548" name="top"/>
  <outline>
    <contour>
      <point x="400" y="20" type="curve"/>
      <point x="416" y="160" type="line"/>
      <point x="396" y="148"/>
      <point x="376" y="140"/>
      <point x="348" y="140" type="curve" smooth="yes"/>
      <point x="280" y="140"/>
      <point x="256" y="184"/>
      <point x="256" y="244" type="curve" smooth="yes"/>
      <point x="256" y="340"/>
      <point x="304" y="416"/>
      <point x="392" y="416" type="curve" smooth="yes"/>
      <point x="428" y="416"/>
      <point x="436" y="412"/>
      <point x="480" y="392" type="curve"/>
      <point x="464" y="450" type="line"/>
      <point x="440" y="422"/>
      <point x="434" y="389"/>
      <point x="424" y="340" type="curve" smooth="yes"/>
      <point x="312" y="-232" type="line"/>
      <point x="524" y="-232" type="line"/>
      <point x="642" y="372" type="line" smooth="yes"/>
      <point x="650" y="412"/>
      <point x="664" y="476"/>
      <point x="680" y="512" type="curve"/>
      <point x="672" y="524" type="line"/>
      <point x="599" y="548"/>
      <point x="518" y="564"/>
      <point x="420" y="564" type="curve" smooth="yes"/>
      <point x="184" y="564"/>
      <point x="40" y="444"/>
      <point x="40" y="228" type="curve" smooth="yes"/>
      <point x="40" y="64"/>
      <point x="136" y="-12"/>
      <point x="292" y="-12" type="curve" smooth="yes"/>
      <point x="344" y="-12"/>
      <point x="372" y="0"/>
    </contour>
  </outline>
</glyph>
<glyph name="t" format="2">
  <advance width="500"/>
  <unicode hex="0074"/>
  <note>
t
</note>
  <anchor x="245" y="0" name="bottom"/>
  <anchor x="250" y="274" name="center"/>
  <anchor x="286" y="680" name="top"/>
  <anchor x="516" y="616" name="topright"/>
  <outline>
    <contour>
      <point x="312" y="-8" type="curve" smooth="yes"/>
      <point x="360" y="-8"/>
      <point x="392" y="-2"/>
      <point x="428" y="8" type="curve"/>
      <point x="460" y="172" type="line"/>
      <point x="448" y="172" type="line"/>
      <point x="428" y="162"/>
      <point x="404" y="156"/>
      <point x="380" y="156" type="curve" smooth="yes"/>
      <point x="328" y="156"/>
      <point x="305" y="180"/>
      <point x="305" y="216" type="curve" smooth="yes"/>
      <point x="305" y="223"/>
      <point x="306" y="235"/>
      <point x="308" y="244" type="curve" smooth="yes"/>
      <point x="392" y="680" type="line"/>
      <point x="180" y="680" type="line"/>
      <point x="98" y="248" type="line" smooth="yes"/>
      <point x="93" y="222"/>
      <point x="90" y="198"/>
      <point x="90" y="176" type="curve" smooth="yes"/>
      <point x="90" y="44"/>
      <point x="176" y="-8"/>
    </contour>
    <contour>
      <point x="32" y="388" type="line"/>
      <point x="476" y="388" type="line"/>
      <point x="508" y="548" type="line"/>
      <point x="64" y="548" type="line"/>
    </contour>
  </outline>
</glyph>
<glyph name="v" format="2">
  <advance width="640"/>
  <unicode hex="0076"/>
  <note>
v
</note>
  <anchor x="267" y="0" name="bottom"/>
  <anchor x="373" y="548" name="top"/>
  <outline>
    <contour>
      <point x="60" y="536" type="line"/>
      <point x="132" y="0" type="line"/>
      <point x="396" y="0" type="line"/>
      <point x="692" y="536" type="line"/>
      <point x="692" y="548" type="line"/>
      <point x="468" y="548" type="line"/>
      <point x="272" y="124" type="line"/>
      <point x="320" y="96" type="line"/>
      <point x="280" y="548" type="line"/>
      <point x="60" y="548" type="line"/>
    </contour>
  </outline>
</glyph>
<glyph name="x" format="2">
  <advance width="660"/>
  <unicode hex="0078"/>
  <note>
x
</note>
  <anchor x="277" y="0" name="bottom"/>
  <anchor x="383" y="548" name="top"/>
  <outline>
    <contour>
      <point x="-28" y="0" type="line"/>
      <point x="196" y="0" type="line"/>
      <point x="424" y="248" type="line"/>
      <point x="708" y="536" type="line"/>
      <point x="708" y="548" type="line"/>
      <point x="484" y="548" type="line"/>
      <point x="296" y="340" type="line"/>
      <point x="-28" y="12" type="line"/>
    </contour>
    <contour>
      <point x="368" y="0" type="line"/>
      <point x="600" y="0" type="line"/>
      <point x="600" y="12" type="line"/>
      <point x="412" y="324" type="line"/>
      <point x="296" y="548" type="line"/>
      <point x="64" y="548" type="line"/>
      <point x="64" y="536" type="line"/>
      <point x="252" y="224" type="line"/>
    </contour>
  </outline>
</glyph>
<glyph name="z" format="2">
  <advance width="592"/>
  <unicode hex="007A"/>
  <note>
z
</note>
  <anchor x="243" y="0" name="bottom"/>
  <anchor x="349" y="548" name="top"/>
  <outline>
    <contour>
      <point x="72" y="388" type="line"/>
      <point x="388" y="388" type="line"/>
      <point x="316" y="432" type="line"/>
      <point x="316" y="404"/>
      <point x="286" y="372"/>
      <point x="256" y="344" type="curve" smooth="yes"/>
      <point x="72" y="172" type="line" smooth="yes"/>
      <point x="20" y="124"/>
      <point x="-4" y="80"/>
      <point x="0" y="12" type="curve"/>
      <point x="8" y="0" type="line"/>
      <point x="512" y="0" type="line"/>
      <point x="544" y="160" type="line"/>
      <point x="228" y="160" type="line"/>
      <point x="288" y="124" type="line"/>
      <point x="288" y="144"/>
      <point x="318" y="176"/>
      <point x="348" y="204" type="curve" smooth="yes"/>
      <point x="532" y="376" type="line" smooth="yes"/>
      <point x="584" y="424"/>
      <point x="608" y="468"/>
      <point x="604" y="536" type="curve"/>
      <point x="596" y="548" type="line"/>
      <point x="104" y="548" type="line"/>
    </contour>
  </outline>
</glyph>
<glyph name="braceleft" format="2">
  <advance width="488"/>
  <unicode hex="007B"/>
  <note>
braceleft
</note>
  <outline>
    <contour>
      <point x="124" y="184" type="curve"/>
      <point x="108" y="104" type="line" smooth="yes"/>
      <point x="83" y="-25"/>
      <point x="149" y="-88"/>
      <point x="284" y="-88" type="curve" smooth="yes"/>
      <point x="400" y="-88" type="line"/>
      <point x="430" y="56" type="line"/>
      <point x="356" y="56" type="line" smooth="yes"/>
      <point x="316" y="56"/>
      <point x="295" y="83"/>
      <point x="304" y="124" type="curve" smooth="yes"/>
      <point x="320" y="204" type="line" smooth="yes"/>
      <point x="332" y="268"/>
      <point x="306" y="326"/>
      <point x="232" y="336" type="curve"/>
      <point x="305" y="343"/>
      <point x="358" y="396"/>
      <point x="372" y="468" type="curve" smooth="yes"/>
      <point x="388" y="548" type="line" smooth="yes"/>
      <point x="398" y="596"/>
      <point x="419" y="616"/>
      <point x="464" y="616" type="curve" smooth="yes"/>
      <point x="536" y="616" type="line"/>
      <point x="566" y="760" type="line"/>
      <point x="448" y="760" type="line" smooth="yes"/>
      <point x="319" y="760"/>
      <point x="230" y="716"/>
      <point x="200" y="568" type="curve" smooth="yes"/>
      <point x="184" y="488" type="line" smooth="yes"/>
      <point x="176" y="448"/>
      <point x="152" y="416"/>
      <point x="104" y="416" type="curve" smooth="yes"/>
      <point x="56" y="416" type="line"/>
      <point x="24" y="256" type="line"/>
      <point x="72" y="256" type="line" smooth="yes"/>
      <point x="118" y="256"/>
      <point x="130" y="224"/>
    </contour>
  </outline>
</glyph>
<glyph name="cent" format="2">
  <advance width="616"/>
  <unicode hex="00A2"/>
  <note>
cent
</note>
  <outline>
    <contour>
      <point x="337" y="604" type="line"/>
      <point x="497" y="604" type="line"/>
      <point x="534" y="800" type="line"/>
      <point x="374" y="800" type="line"/>
    </contour>
    <contour>
      <point x="84" y="332" type="curve" smooth="yes"/>
      <point x="84" y="160"/>
      <point x="194" y="88"/>
      <point x="372" y="88" type="curve" smooth="yes"/>
      <point x="404" y="88"/>
      <point x="450" y="94"/>
      <point x="484" y="104" type="curve"/>
      <point x="516" y="268" type="line"/>
      <point x="504" y="268" type="line"/>
      <point x="480" y="260"/>
      <point x="456" y="252"/>
      <point x="420" y="252" type="curve" smooth="yes"/>
      <point x="344" y="252"/>
      <point x="300" y="284"/>
      <point x="300" y="348" type="curve" smooth="yes"/>
      <point x="300" y="444"/>
      <point x="368" y="500"/>
      <point x="456" y="500" type="curve" smooth="yes"/>
      <point x="500" y="500"/>
      <point x="526" y="492"/>
      <point x="544" y="484" type="curve"/>
      <point x="556" y="484" type="line"/>
      <point x="588" y="648" type="line"/>
      <point x="558" y="658"/>
      <point x="504" y="664"/>
      <point x="460" y="664" type="curve" smooth="yes"/>
      <point x="220" y="664"/>
      <point x="84" y="528"/>
    </contour>
    <contour>
      <point x="209" y="-64" type="line"/>
      <point x="369" y="-64" type="line"/>
      <point x="406" y="132" type="line"/>
      <point x="246" y="132" type="line"/>
    </contour>
  </outline>
</glyph>
<glyph name="sterling" format="2">
  <advance width="616"/>
  <unicode hex="00A3"/>
  <note>
sterling
</note>
  <outline>
    <contour>
      <point x="108" y="0" type="line" name="hr00"/>
      <point x="320" y="0" type="line"/>
      <point x="408" y="468" type="line" smooth="yes"/>
      <point x="422" y="544"/>
      <point x="468" y="584"/>
      <point x="540" y="584" type="curve" smooth="yes"/>
      <point x="562" y="584"/>
      <point x="585" y="580"/>
      <point x="600" y="572" type="curve"/>
      <point x="612" y="572" type="line"/>
      <point x="640" y="716" type="line"/>
      <point x="617" y="724"/>
      <point x="576" y="732"/>
      <point x="528" y="732" type="curve" smooth="yes"/>
      <point x="348" y="732"/>
      <point x="228" y="632"/>
      <point x="196" y="464" type="curve" smooth="yes"/>
    </contour>
    <contour>
      <point x="64" y="300" type="line"/>
      <point x="512" y="300" type="line"/>
      <point x="540" y="452" type="line"/>
      <point x="92" y="452" type="line"/>
    </contour>
    <contour>
      <point x="-8" y="0" type="line"/>
      <point x="540" y="0" type="line"/>
      <point x="568" y="152" type="line"/>
      <point x="24" y="152" type="line"/>
    </contour>
  </outline>
</glyph>
<glyph name="brokenbar" format="2">
  <advance width="308"/>
  <unicode hex="00A6"/>
  <note>
brokenbar
</note>
  <outline>
    <contour>
      <point x="160" y="760" type="line"/>
      <point x="95" y="420" type="line"/>
      <point x="287" y="420" type="line"/>
      <point x="352" y="760" type="line"/>
    </contour>
    <contour>
      <point x="221" y="92" type="line"/>
      <point x="29" y="92" type="line"/>
      <point x="-36" y="-248" type="line"/>
      <point x="156" y="-248" type="line"/>
    </contour>
  </outline>
</glyph>
<glyph name="section" format="2">
  <advance width="616"/>
  <unicode hex="00A7"/>
  <note>
section
</note>
  <outline>
    <contour>
      <point x="242" y="56" type="line" name="hr00"/>
      <point x="386" y="56" type="line"/>
      <point x="486" y="108"/>
      <point x="578" y="164"/>
      <point x="578" y="284" type="curve" smooth="yes"/>
      <point x="578" y="370"/>
      <point x="513" y="411"/>
      <point x="434" y="440" type="curve" smooth="yes"/>
      <point x="390" y="456" type="line" smooth="yes"/>
      <point x="353" y="469"/>
      <point x="330" y="480"/>
      <point x="330" y="516" type="curve" smooth="yes"/>
      <point x="330" y="560"/>
      <point x="374" y="584"/>
      <point x="442" y="584" type="curve" smooth="yes"/>
      <point x="498" y="584"/>
      <point x="537" y="572"/>
      <point x="562" y="556" type="curve"/>
      <point x="574" y="556" type="line"/>
      <point x="602" y="712" type="line"/>
      <point x="570" y="724"/>
      <point x="510" y="732"/>
      <point x="446" y="732" type="curve" smooth="yes"/>
      <point x="254" y="732"/>
      <point x="126" y="656"/>
      <point x="126" y="504" type="curve" smooth="yes"/>
      <point x="126" y="400"/>
      <point x="185" y="355"/>
      <point x="278" y="320" type="curve" smooth="yes"/>
      <point x="310" y="308" type="line" smooth="yes"/>
      <point x="365" y="287"/>
      <point x="382" y="272"/>
      <point x="382" y="240" type="curve" smooth="yes"/>
      <point x="382" y="178"/>
      <point x="303" y="146"/>
      <point x="242" y="124" type="curve"/>
    </contour>
    <contour>
      <point x="38" y="-56" type="line"/>
      <point x="10" y="-212" type="line"/>
      <point x="42" y="-224"/>
      <point x="102" y="-232"/>
      <point x="166" y="-232" type="curve" smooth="yes"/>
      <point x="358" y="-232"/>
      <point x="486" y="-156"/>
      <point x="486" y="-4" type="curve" smooth="yes"/>
      <point x="486" y="100"/>
      <point x="427" y="145"/>
      <point x="334" y="180" type="curve" smooth="yes"/>
      <point x="302" y="192" type="line" smooth="yes"/>
      <point x="247" y="213"/>
      <point x="230" y="228"/>
      <point x="230" y="260" type="curve" smooth="yes"/>
      <point x="230" y="322"/>
      <point x="309" y="354"/>
      <point x="370" y="376" type="curve"/>
      <point x="370" y="444" type="line"/>
      <point x="226" y="444" type="line"/>
      <point x="126" y="392"/>
      <point x="34" y="336"/>
      <point x="34" y="216" type="curve" smooth="yes"/>
      <point x="34" y="130"/>
      <point x="99" y="89"/>
      <point x="178" y="60" type="curve" smooth="yes"/>
      <point x="222" y="44" type="line" smooth="yes"/>
      <point x="259" y="31"/>
      <point x="282" y="20"/>
      <point x="282" y="-16" type="curve" smooth="yes"/>
      <point x="282" y="-60"/>
      <point x="238" y="-84"/>
      <point x="170" y="-84" type="curve" smooth="yes"/>
      <point x="114" y="-84"/>
      <point x="75" y="-72"/>
      <point x="50" y="-56" type="curve"/>
    </contour>
  </outline>
</glyph>
<glyph name="guillemetleft" format="2">
  <advance width="668"/>
  <unicode hex="00AB"/>
  <note>
guillemotleft
</note>
  <outline>
    <contour>
      <point x="344" y="256" type="line"/>
      <point x="556" y="36" type="line"/>
      <point x="564" y="36" type="line"/>
      <point x="594" y="196" type="line"/>
      <point x="490" y="294" type="line"/>
      <point x="632" y="392" type="line"/>
      <point x="668" y="580" type="line"/>
      <point x="660" y="580" type="line"/>
      <point x="364" y="360" type="line"/>
    </contour>
    <contour>
      <point x="240" y="36" type="line"/>
      <point x="248" y="36" type="line"/>
      <point x="278" y="196" type="line"/>
      <point x="174" y="294" type="line"/>
      <point x="316" y="392" type="line"/>
      <point x="352" y="580" type="line"/>
      <point x="344" y="580" type="line"/>
      <point x="48" y="360" type="line"/>
      <point x="28" y="256" type="line"/>
    </contour>
  </outline>
</glyph>
<glyph name="logicalnot" format="2">
  <advance width="616"/>
  <unicode hex="00AC"/>
  <note>
logicalnot
</note>
  <outline>
    <contour>
      <point x="76" y="380" type="line"/>
      <point x="76" y="252" type="line"/>
      <point x="436" y="252" type="line"/>
      <point x="436" y="64" type="line"/>
      <point x="564" y="64" type="line"/>
      <point x="564" y="380" type="line"/>
    </contour>
  </outline>
</glyph>
<glyph name="registered" format="2">
  <advance width="872"/>
  <unicode hex="00AE"/>
  <note>
registered
</note>
  <outline>
    <contour>
      <point x="456" y="-28" type="curve" smooth="yes"/>
      <point x="704" y="-28"/>
      <point x="860" y="112"/>
      <point x="860" y="360" type="curve" smooth="yes"/>
      <point x="860" y="608"/>
      <point x="704" y="748"/>
      <point x="456" y="748" type="curve" smooth="yes"/>
      <point x="208" y="748"/>
      <point x="52" y="608"/>
      <point x="52" y="360" type="curve" smooth="yes"/>
      <point x="52" y="112"/>
      <point x="208" y="-28"/>
    </contour>
    <contour>
      <point x="272" y="168" type="line"/>
      <point x="408" y="168" type="line"/>
      <point x="408" y="560" type="line"/>
      <point x="272" y="560" type="line"/>
      <point x="272" y="472" type="line"/>
    </contour>
    <contour>
      <point x="512" y="168" type="line"/>
      <point x="660" y="168" type="line"/>
      <point x="660" y="176" type="line"/>
      <point x="528" y="344" type="line"/>
      <point x="404" y="324" type="line"/>
    </contour>
    <contour>
      <point x="456" y="60" type="curve" smooth="yes"/>
      <point x="272" y="60"/>
      <point x="152" y="152"/>
      <point x="152" y="360" type="curve" smooth="yes"/>
      <point x="152" y="568"/>
      <point x="272" y="660"/>
      <point x="456" y="660" type="curve" smooth="yes"/>
      <point x="640" y="660"/>
      <point x="760" y="568"/>
      <point x="760" y="360" type="curve" smooth="yes"/>
      <point x="760" y="152"/>
      <point x="640" y="60"/>
    </contour>
    <contour>
      <point x="356" y="248" type="line"/>
      <point x="432" y="248" type="line" smooth="yes"/>
      <point x="560" y="248"/>
      <point x="640" y="319"/>
      <point x="640" y="416" type="curve" smooth="yes"/>
      <point x="640" y="508"/>
      <point x="588" y="560"/>
      <point x="456" y="560" type="curve" smooth="yes"/>
      <point x="356" y="560" type="line"/>
      <point x="356" y="460" type="line"/>
      <point x="444" y="460" type="line" smooth="yes"/>
      <point x="481" y="460"/>
      <point x="504" y="448"/>
      <point x="504" y="415" type="curve" smooth="yes"/>
      <point x="504" y="376"/>
      <point x="488" y="344"/>
      <point x="428" y="344" type="curve" smooth="yes"/>
      <point x="356" y="344" type="line"/>
    </contour>
  </outline>
</glyph>
<glyph name="plusminus" format="2">
  <advance width="616"/>
  <unicode hex="00B1"/>
  <note>
plusminus
</note>
  <outline>
    <contour>
      <point x="256" y="204" type="line"/>
      <point x="384" y="204" type="line"/>
      <point x="384" y="692" type="line"/>
      <point x="256" y="692" type="line"/>
    </contour>
    <contour>
      <point x="76" y="0" type="line"/>
      <point x="564" y="0" type="line"/>
      <point x="564" y="128" type="line"/>
      <point x="76" y="128" type="line"/>
    </contour>
    <contour>
      <point x="76" y="384" type="line"/>
      <point x="564" y="384" type="line"/>
      <point x="564" y="512" type="line"/>
      <point x="76" y="512" type="line"/>
    </contour>
  </outline>
</glyph>
<glyph name="paragraph" format="2">
  <advance width="712"/>
  <unicode hex="00B6"/>
  <note>
paragraph
</note>
  <outline>
    <contour>
      <point x="276" y="248" type="curve" smooth="yes"/>
      <point x="290" y="248" type="line"/>
      <point x="196" y="-248" type="line"/>
      <point x="340" y="-248" type="line"/>
      <point x="496" y="572" type="line"/>
      <point x="564" y="572" type="line"/>
      <point x="408" y="-248" type="line"/>
      <point x="544" y="-248" type="line"/>
      <point x="728" y="720" type="line"/>
      <point x="361" y="720" type="line" smooth="yes"/>
      <point x="212" y="720"/>
      <point x="76" y="628"/>
      <point x="76" y="448" type="curve" smooth="yes"/>
      <point x="76" y="320"/>
      <point x="164" y="248"/>
    </contour>
  </outline>
</glyph>
<glyph name="AE" format="2">
  <advance width="1000"/>
  <unicode hex="00C6"/>
  <note>
AE
</note>
  <anchor x="442" y="0" name="bottom"/>
  <anchor x="595" y="720" name="top"/>
  <outline>
    <contour>
      <point x="-21" y="0" type="line"/>
      <point x="195" y="0" type="line"/>
      <point x="359" y="460" type="line" smooth="yes"/>
      <point x="382" y="523"/>
      <point x="415" y="552"/>
      <point x="491" y="552" type="curve" smooth="yes"/>
      <point x="501" y="552"/>
      <point x="524" y="549"/>
      <point x="540" y="544" type="curve"/>
      <point x="534" y="590" type="line"/>
      <point x="526" y="570"/>
      <point x="511" y="531"/>
      <point x="503" y="488" type="curve" smooth="yes"/>
      <point x="407" y="0" type="line"/>
      <point x="619" y="0" type="line"/>
      <point x="727" y="552" type="line" smooth="yes"/>
      <point x="735" y="592"/>
      <point x="750" y="652"/>
      <point x="766" y="688" type="curve"/>
      <point x="758" y="700" type="line"/>
      <point x="703" y="716"/>
      <point x="639" y="728"/>
      <point x="563" y="728" type="curve" smooth="yes"/>
      <point x="383" y="728"/>
      <point x="229" y="698"/>
      <point x="147" y="468" type="curve" smooth="yes"/>
    </contour>
    <contour>
      <point x="188" y="168" type="line"/>
      <point x="492" y="168" type="line"/>
      <point x="524" y="336" type="line"/>
      <point x="236" y="336" type="line"/>
    </contour>
    <contour>
      <point x="556" y="0" type="line"/>
      <point x="900" y="0" type="line"/>
      <point x="934" y="184" type="line"/>
      <point x="592" y="184" type="line"/>
    </contour>
    <contour>
      <point x="612" y="268" type="line"/>
      <point x="896" y="268" type="line"/>
      <point x="928" y="440" type="line"/>
      <point x="644" y="440" type="line"/>
    </contour>
    <contour>
      <point x="600" y="536" type="line"/>
      <point x="998" y="536" type="line"/>
      <point x="1032" y="720" type="line"/>
      <point x="636" y="720" type="line"/>
    </contour>
  </outline>
</glyph>
<glyph name="multiply" format="2">
  <advance width="616"/>
  <unicode hex="00D7"/>
  <note>
multiply
</note>
  <outline>
    <contour>
      <point x="184" y="90" type="line"/>
      <point x="546" y="452" type="line"/>
      <point x="456" y="542" type="line"/>
      <point x="94" y="180" type="line"/>
    </contour>
    <contour>
      <point x="456" y="90" type="line"/>
      <point x="546" y="180" type="line"/>
      <point x="184" y="542" type="line"/>
      <point x="94" y="452" type="line"/>
    </contour>
  </outline>
</glyph>
<glyph name="Thorn" format="2">
  <advance width="708"/>
  <unicode hex="00DE"/>
  <note>
Thorn
</note>
  <outline>
    <contour>
      <point x="296" y="640" type="line"/>
      <point x="264" y="464" type="line"/>
      <point x="416" y="464" type="line" smooth="yes"/>
      <point x="468" y="464"/>
      <point x="504" y="440"/>
      <point x="504" y="384" type="curve" smooth="yes"/>
      <point x="504" y="316"/>
      <point x="456" y="248"/>
      <point x="360" y="248" type="curve" smooth="yes"/>
      <point x="220" y="248" type="line"/>
      <point x="188" y="80" type="line"/>
      <point x="360" y="80" type="line" smooth="yes"/>
      <point x="564" y="80"/>
      <point x="716" y="224"/>
      <point x="716" y="400" type="curve" smooth="yes"/>
      <point x="716" y="564"/>
      <point x="612" y="640"/>
      <point x="432" y="640" type="curve" smooth="yes"/>
    </contour>
    <contour>
      <point x="160" y="720" type="line"/>
      <point x="20" y="0" type="line"/>
      <point x="232" y="0" type="line"/>
      <point x="372" y="720" type="line"/>
    </contour>
  </outline>
</glyph>
<glyph name="eth" format="2">
  <advance width="672"/>
  <unicode hex="00F0"/>
  <note>
eth
</note>
  <outline>
    <contour>
      <point x="288" y="-12" type="curve" smooth="yes"/>
      <point x="552" y="-12"/>
      <point x="656" y="220"/>
      <point x="656" y="420" type="curve" smooth="yes"/>
      <point x="656" y="628"/>
      <point x="540" y="732"/>
      <point x="340" y="732" type="curve" smooth="yes"/>
      <point x="292" y="732"/>
      <point x="248" y="726"/>
      <point x="200" y="716" type="curve"/>
      <point x="168" y="548" type="line"/>
      <point x="180" y="548" type="line"/>
      <point x="212" y="560"/>
      <point x="244" y="572"/>
      <point x="284" y="572" type="curve" smooth="yes"/>
      <point x="392" y="572"/>
      <point x="456" y="540"/>
      <point x="456" y="404" type="curve" smooth="yes"/>
      <point x="456" y="304"/>
      <point x="408" y="144"/>
      <point x="316" y="144" type="curve" smooth="yes"/>
      <point x="260" y="144"/>
      <point x="236" y="168"/>
      <point x="236" y="220" type="curve" smooth="yes"/>
      <point x="236" y="276"/>
      <point x="280" y="324"/>
      <point x="348" y="324" type="curve" smooth="yes"/>
      <point x="408" y="324"/>
      <point x="460" y="296"/>
      <point x="468" y="272" type="curve"/>
      <point x="492" y="408" type="line"/>
      <point x="460" y="440"/>
      <point x="424" y="464"/>
      <point x="324" y="464" type="curve" smooth="yes"/>
      <point x="144" y="464"/>
      <point x="40" y="344"/>
      <point x="40" y="200" type="curve" smooth="yes"/>
      <point x="40" y="52"/>
      <point x="148" y="-12"/>
    </contour>
    <contour>
      <point x="352" y="484" type="line"/>
      <point x="600" y="724" type="line"/>
      <point x="536" y="788" type="line"/>
      <point x="288" y="548" type="line"/>
    </contour>
  </outline>
</glyph>
<glyph name="idotless" format="2">
  <advance width="348"/>
  <unicode hex="0131"/>
  <note>
dotlessi
</note>
  <anchor x="122" y="0" name="bottom"/>
  <anchor x="228" y="0" name="ogonek"/>
  <anchor x="228" y="548" name="top"/>
  <outline>
    <contour>
      <point x="16" y="0" type="line"/>
      <point x="228" y="0" type="line"/>
      <point x="334" y="548" type="line"/>
      <point x="112" y="548" type="line"/>
      <point x="104" y="536" type="line"/>
      <point x="106" y="484"/>
      <point x="99" y="432"/>
      <point x="90" y="384" type="curve" smooth="yes"/>
    </contour>
  </outline>
</glyph>
<glyph name="kgreenlandic" format="2">
  <advance width="680"/>
  <unicode hex="0138"/>
  <note>
k
</note>
  <anchor x="287" y="0" name="bottom"/>
  <anchor x="434" y="760" name="top"/>
  <outline>
    <contour>
      <point x="484" y="548" type="line"/>
      <point x="244" y="288" type="line"/>
      <point x="368" y="0" type="line"/>
      <point x="596" y="0" type="line"/>
      <point x="596" y="12" type="line"/>
      <point x="576" y="40"/>
      <point x="561" y="61"/>
      <point x="544" y="96" type="curve" smooth="yes"/>
      <point x="416" y="358" type="line"/>
      <point x="396" y="231" type="line"/>
      <point x="596" y="432" type="line" smooth="yes"/>
      <point x="628" y="464"/>
      <point x="688" y="516"/>
      <point x="716" y="536" type="curve"/>
      <point x="716" y="548" type="line"/>
    </contour>
    <contour>
      <point x="228" y="0" type="line"/>
      <point x="334" y="548" type="line"/>
      <point x="111" y="548" type="line"/>
      <point x="103" y="536" type="line"/>
      <point x="105" y="484"/>
      <point x="98" y="432"/>
      <point x="89" y="384" type="curve" smooth="yes"/>
      <point x="16" y="0" type="line"/>
    </contour>
  </outline>
</glyph>
<glyph name="Eng" format="2">
  <advance width="784"/>
  <unicode hex="014A"/>
  <note>
Eng
</note>
  <outline>
    <contour>
      <point x="552" y="104" type="line"/>
      <point x="600" y="364" type="line"/>
      <point x="324" y="720" type="line"/>
      <point x="156" y="720" type="line"/>
      <point x="20" y="0" type="line"/>
      <point x="232" y="0" type="line"/>
      <point x="320" y="468" type="line"/>
      <point x="268" y="472" type="line"/>
    </contour>
    <contour>
      <point x="356" y="-240" type="curve" smooth="yes"/>
      <point x="528" y="-240"/>
      <point x="639" y="-163"/>
      <point x="676" y="24" type="curve" smooth="yes"/>
      <point x="812" y="720" type="line"/>
      <point x="600" y="720" type="line"/>
      <point x="466" y="36" type="line" smooth="yes"/>
      <point x="452" y="-36"/>
      <point x="408" y="-68"/>
      <point x="336" y="-68" type="curve" smooth="yes"/>
      <point x="308" y="-68"/>
      <point x="292" y="-62"/>
      <point x="276" y="-52" type="curve"/>
      <point x="264" y="-52" type="line"/>
      <point x="232" y="-224" type="line"/>
      <point x="258" y="-232"/>
      <point x="316" y="-240"/>
    </contour>
  </outline>
</glyph>
<glyph name="OE" format="2">
  <advance width="1130"/>
  <unicode hex="0152"/>
  <note>
OE
</note>
  <anchor x="507" y="0" name="bottom"/>
  <anchor x="660" y="720" name="top"/>
  <outline>
    <contour>
      <point x="392" y="-12" type="curve" smooth="yes"/>
      <point x="660" y="-12"/>
      <point x="824" y="180"/>
      <point x="824" y="416" type="curve" smooth="yes"/>
      <point x="824" y="608"/>
      <point x="696" y="732"/>
      <point x="480" y="732" type="curve" smooth="yes"/>
      <point x="212" y="732"/>
      <point x="48" y="532"/>
      <point x="48" y="304" type="curve" smooth="yes"/>
      <point x="48" y="104"/>
      <point x="176" y="-12"/>
    </contour>
    <contour>
      <point x="404" y="164" type="curve" smooth="yes"/>
      <point x="320" y="164"/>
      <point x="264" y="212"/>
      <point x="264" y="316" type="curve" smooth="yes"/>
      <point x="264" y="412"/>
      <point x="328" y="556"/>
      <point x="468" y="556" type="curve" smooth="yes"/>
      <point x="552" y="556"/>
      <point x="608" y="508"/>
      <point x="608" y="404" type="curve" smooth="yes"/>
      <point x="608" y="308"/>
      <point x="544" y="164"/>
    </contour>
    <contour>
      <point x="476" y="0" type="line"/>
      <point x="1030" y="0" type="line"/>
      <point x="1064" y="184" type="line"/>
      <point x="512" y="184" type="line"/>
    </contour>
    <contour>
      <point x="740" y="268" type="line"/>
      <point x="1026" y="268" type="line"/>
      <point x="1058" y="440" type="line"/>
      <point x="772" y="440" type="line"/>
    </contour>
    <contour>
      <point x="592" y="536" type="line"/>
      <point x="1128" y="536" type="line"/>
      <point x="1162" y="720" type="line"/>
      <point x="540" y="720" type="line"/>
    </contour>
  </outline>
</glyph>
<glyph name="oe" format="2">
  <advance width="1000"/>
  <unicode hex="0153"/>
  <outline>
    <contour>
      <point x="308" y="-12" type="curve" smooth="yes"/>
      <point x="512" y="-12"/>
      <point x="612" y="148"/>
      <point x="612" y="328" type="curve" smooth="yes"/>
      <point x="612" y="484"/>
      <point x="524" y="564"/>
      <point x="372" y="564" type="curve" smooth="yes"/>
      <point x="148" y="564"/>
      <point x="40" y="404"/>
      <point x="40" y="224" type="curve" smooth="yes"/>
      <point x="40" y="68"/>
      <point x="136" y="-12"/>
    </contour>
    <contour>
      <point x="316" y="136" type="curve" smooth="yes"/>
      <point x="276" y="136"/>
      <point x="256" y="164"/>
      <point x="256" y="212" type="curve" smooth="yes"/>
      <point x="256" y="284"/>
      <point x="284" y="416"/>
      <point x="364" y="416" type="curve" smooth="yes"/>
      <point x="404" y="416"/>
      <point x="424" y="388"/>
      <point x="424" y="340" type="curve" smooth="yes"/>
      <point x="424" y="268"/>
      <point x="396" y="136"/>
    </contour>
    <contour>
      <point x="716" y="-12" type="curve" smooth="yes"/>
      <point x="776" y="-12"/>
      <point x="828" y="-4"/>
      <point x="876" y="12" type="curve"/>
      <point x="908" y="172" type="line"/>
      <point x="896" y="172" type="line"/>
      <point x="864" y="156"/>
      <point x="804" y="144"/>
      <point x="752" y="144" type="curve" smooth="yes"/>
      <point x="664" y="144"/>
      <point x="612" y="172"/>
      <point x="612" y="252" type="curve"/>
      <point x="612" y="264" type="line"/>
      <point x="612" y="368"/>
      <point x="656" y="424"/>
      <point x="716" y="424" type="curve" smooth="yes"/>
      <point x="760" y="424"/>
      <point x="784" y="400"/>
      <point x="784" y="364" type="curve" smooth="yes"/>
      <point x="784" y="352"/>
      <point x="782" y="342"/>
      <point x="780" y="332" type="curve"/>
      <point x="532" y="332" type="line"/>
      <point x="532" y="220" type="line"/>
      <point x="956" y="220" type="line"/>
      <point x="968" y="264"/>
      <point x="976" y="312"/>
      <point x="976" y="352" type="curve" smooth="yes"/>
      <point x="976" y="480"/>
      <point x="904" y="564"/>
      <point x="724" y="564" type="curve" smooth="yes"/>
      <point x="552" y="564"/>
      <point x="420" y="452"/>
      <point x="420" y="224" type="curve" smooth="yes"/>
      <point x="420" y="52"/>
      <point x="552" y="-12"/>
    </contour>
  </outline>
</glyph>
<glyph name="longs" format="2">
  <advance width="392"/>
  <unicode hex="017F"/>
  <note>
longs
</note>
  <outline>
    <contour>
      <point x="52" y="0" type="line"/>
      <point x="264" y="0" type="line"/>
      <point x="368" y="536" type="line" smooth="yes"/>
      <point x="380" y="596"/>
      <point x="408" y="624"/>
      <point x="468" y="624" type="curve" smooth="yes"/>
      <point x="496" y="624"/>
      <point x="516" y="618"/>
      <point x="528" y="612" type="curve"/>
      <point x="540" y="612" type="line"/>
      <point x="570" y="764" type="line"/>
      <point x="550" y="770"/>
      <point x="508" y="776"/>
      <point x="468" y="776" type="curve" smooth="yes"/>
      <point x="308" y="776"/>
      <point x="192" y="724"/>
      <point x="156" y="536" type="curve" smooth="yes"/>
    </contour>
    <contour>
      <point x="32" y="388" type="line"/>
      <point x="168" y="388" type="line"/>
      <point x="200" y="548" type="line"/>
      <point x="64" y="548" type="line"/>
    </contour>
  </outline>
</glyph>
<glyph name="Schwa" format="2">
  <advance width="733"/>
  <unicode hex="018F"/>
  <outline>
    <contour>
      <point x="384" y="732" type="curve" smooth="yes"/>
      <point x="308" y="732"/>
      <point x="236" y="720"/>
      <point x="180" y="704" type="curve"/>
      <point x="144" y="520" type="line"/>
      <point x="160" y="520" type="line"/>
      <point x="203" y="540"/>
      <point x="272" y="556"/>
      <point x="340" y="556" type="curve" smooth="yes"/>
      <point x="441" y="556"/>
      <point x="512" y="522"/>
      <point x="512" y="412" type="curve" smooth="yes"/>
      <point x="512" y="309"/>
      <point x="468" y="164"/>
      <point x="344" y="164" type="curve" smooth="yes"/>
      <point x="283" y="164"/>
      <point x="252" y="190"/>
      <point x="252" y="243" type="curve" smooth="yes"/>
      <point x="252" y="253"/>
      <point x="253" y="264"/>
      <point x="257" y="282" type="curve"/>
      <point x="539" y="282" type="line"/>
      <point x="568" y="432" type="line"/>
      <point x="80" y="432" type="line"/>
      <point x="60" y="368"/>
      <point x="48" y="300"/>
      <point x="48" y="244" type="curve" smooth="yes"/>
      <point x="48" y="96"/>
      <point x="123" y="-12"/>
      <point x="328" y="-12" type="curve" smooth="yes"/>
      <point x="592" y="-12"/>
      <point x="724" y="212"/>
      <point x="724" y="412" type="curve" smooth="yes"/>
      <point x="724" y="665"/>
      <point x="570" y="732"/>
    </contour>
  </outline>
</glyph>
<glyph name="florin" format="2">
  <advance width="616"/>
  <unicode hex="0192"/>
  <note>
florin
</note>
  <outline>
    <contour>
      <point x="4" y="-100" type="curve" smooth="yes"/>
      <point x="-20" y="-100"/>
      <point x="-40" y="-96"/>
      <point x="-56" y="-88" type="curve"/>
      <point x="-68" y="-88" type="line"/>
      <point x="-96" y="-232" type="line"/>
      <point x="-72" y="-240"/>
      <point x="-40" y="-248"/>
      <point x="8" y="-248" type="curve" smooth="yes"/>
      <point x="188" y="-248"/>
      <point x="313" y="-164"/>
      <point x="348" y="24" type="curve" smooth="yes"/>
      <point x="428" y="452" type="line" smooth="yes"/>
      <point x="442" y="528"/>
      <point x="480" y="584"/>
      <point x="568" y="584" type="curve" smooth="yes"/>
      <point x="592" y="584"/>
      <point x="612" y="580"/>
      <point x="628" y="572" type="curve"/>
      <point x="640" y="572" type="line"/>
      <point x="668" y="716" type="line"/>
      <point x="644" y="724"/>
      <point x="612" y="732"/>
      <point x="564" y="732" type="curve" smooth="yes"/>
      <point x="384" y="732"/>
      <point x="259" y="648"/>
      <point x="224" y="460" type="curve" smooth="yes"/>
      <point x="144" y="32" type="line" smooth="yes"/>
      <point x="130" y="-44"/>
      <point x="92" y="-100"/>
    </contour>
    <contour>
      <point x="48" y="276" type="line"/>
      <point x="540" y="276" type="line"/>
      <point x="568" y="428" type="line"/>
      <point x="76" y="428" type="line"/>
    </contour>
  </outline>
</glyph>
<glyph name="primemod" format="2">
  <advance width="240"/>
  <unicode hex="02B9"/>
  <outline>
    <contour>
      <point x="70" y="720" type="line"/>
      <point x="18" y="460" type="line"/>
      <point x="162" y="460" type="line"/>
      <point x="230" y="720" type="line"/>
    </contour>
  </outline>
</glyph>
<glyph name="gravecomb" format="2">
  <unicode hex="0300"/>
  <note>
grave
</note>
  <anchor x="389" y="548" name="_top"/>
  <anchor x="430" y="760" name="top"/>
  <outline>
    <contour>
      <point x="342" y="604" type="line"/>
      <point x="474" y="604" type="line"/>
      <point x="474" y="608" type="line"/>
      <point x="422" y="760" type="line"/>
      <point x="250" y="760" type="line"/>
      <point x="250" y="756" type="line"/>
    </contour>
  </outline>
</glyph>
<glyph name="acutecomb" format="2">
  <unicode hex="0301"/>
  <note>
acute
</note>
  <anchor x="416" y="548" name="_top"/>
  <anchor x="461" y="760" name="top"/>
  <outline>
    <contour>
      <point x="300" y="604" type="line"/>
      <point x="440" y="604" type="line"/>
      <point x="588" y="756" type="line"/>
      <point x="588" y="760" type="line"/>
      <point x="412" y="760" type="line"/>
      <point x="300" y="608" type="line"/>
    </contour>
  </outline>
</glyph>
<glyph name="circumflexcomb" format="2">
  <unicode hex="0302"/>
  <note>
circumflex
</note>
  <anchor x="389" y="548" name="_top"/>
  <anchor x="430" y="760" name="top"/>
  <outline>
    <contour>
      <point x="216" y="604" type="line"/>
      <point x="328" y="604" type="line"/>
      <point x="413" y="670" type="line"/>
      <point x="460" y="604" type="line"/>
      <point x="556" y="604" type="line"/>
      <point x="556" y="608" type="line"/>
      <point x="496" y="760" type="line"/>
      <point x="348" y="760" type="line"/>
      <point x="216" y="608" type="line"/>
    </contour>
  </outline>
</glyph>
<glyph name="tildecomb" format="2">
  <unicode hex="0303"/>
  <note>
tilde
</note>
  <anchor x="389" y="548" name="_top"/>
  <anchor x="430" y="760" name="top"/>
  <outline>
    <contour>
      <point x="201" y="607" type="curve"/>
      <point x="297" y="607" type="line"/>
      <point x="305" y="647"/>
      <point x="313" y="675"/>
      <point x="345" y="675" type="curve" smooth="yes"/>
      <point x="368" y="675"/>
      <point x="384" y="659"/>
      <point x="401" y="643" type="curve" smooth="yes"/>
      <point x="422" y="624"/>
      <point x="453" y="607"/>
      <point x="493" y="607" type="curve" smooth="yes"/>
      <point x="585" y="607"/>
      <point x="625" y="687"/>
      <point x="637" y="771" type="curve"/>
      <point x="541" y="771" type="line"/>
      <point x="533" y="731"/>
      <point x="525" y="703"/>
      <point x="493" y="703" type="curve" smooth="yes"/>
      <point x="470" y="703"/>
      <point x="455" y="716"/>
      <point x="437" y="731" type="curve" smooth="yes"/>
      <point x="417" y="747"/>
      <point x="385" y="771"/>
      <point x="345" y="771" type="curve" smooth="yes"/>
      <point x="253" y="771"/>
      <point x="213" y="691"/>
    </contour>
  </outline>
</glyph>
<glyph name="dotaccentcomb" format="2">
  <unicode hex="0307"/>
  <note>
dotaccent
</note>
  <anchor x="393" y="548" name="_top"/>
  <anchor x="438" y="760" name="top"/>
  <outline>
    <contour>
      <point x="412" y="608" type="curve" smooth="yes"/>
      <point x="464" y="608"/>
      <point x="500" y="648"/>
      <point x="500" y="696" type="curve" smooth="yes"/>
      <point x="500" y="736"/>
      <point x="472" y="760"/>
      <point x="432" y="760" type="curve" smooth="yes"/>
      <point x="380" y="760"/>
      <point x="344" y="720"/>
      <point x="344" y="672" type="curve" smooth="yes"/>
      <point x="344" y="632"/>
      <point x="372" y="608"/>
    </contour>
  </outline>
</glyph>
<glyph name="ringcomb" format="2">
  <unicode hex="030A"/>
  <note>
ring
</note>
  <anchor x="389" y="548" name="_top"/>
  <anchor x="445" y="836" name="top"/>
  <outline>
    <contour>
      <point x="411" y="602" type="curve" smooth="yes"/>
      <point x="483" y="602"/>
      <point x="547" y="650"/>
      <point x="547" y="734" type="curve" smooth="yes"/>
      <point x="547" y="798"/>
      <point x="503" y="838"/>
      <point x="435" y="838" type="curve" smooth="yes"/>
      <point x="363" y="838"/>
      <point x="299" y="790"/>
      <point x="299" y="706" type="curve" smooth="yes"/>
      <point x="299" y="642"/>
      <point x="343" y="602"/>
    </contour>
    <contour>
      <point x="415" y="664" type="curve" smooth="yes"/>
      <point x="387" y="664"/>
      <point x="367" y="682"/>
      <point x="367" y="710" type="curve" smooth="yes"/>
      <point x="367" y="749"/>
      <point x="395" y="776"/>
      <point x="431" y="776" type="curve" smooth="yes"/>
      <point x="459" y="776"/>
      <point x="479" y="758"/>
      <point x="479" y="730" type="curve" smooth="yes"/>
      <point x="479" y="691"/>
      <point x="451" y="664"/>
    </contour>
  </outline>
</glyph>
<glyph name="hungarumlautcomb" format="2">
  <unicode hex="030B"/>
  <note>
hungarumlaut
</note>
  <anchor x="432" y="548" name="_top"/>
  <anchor x="477" y="760" name="top"/>
  <outline>
    <contour>
      <point x="428" y="604" type="line"/>
      <point x="552" y="604" type="line"/>
      <point x="700" y="756" type="line"/>
      <point x="700" y="760" type="line"/>
      <point x="540" y="760" type="line"/>
      <point x="428" y="608" type="line"/>
    </contour>
    <contour>
      <point x="220" y="604" type="line"/>
      <point x="344" y="604" type="line"/>
      <point x="492" y="756" type="line"/>
      <point x="492" y="760" type="line"/>
      <point x="332" y="760" type="line"/>
      <point x="220" y="608" type="line"/>
    </contour>
  </outline>
</glyph>
<glyph name="breveinvertedcomb" format="2">
  <unicode hex="0311"/>
  <anchor x="341" y="548" name="_top"/>
  <anchor x="382" y="760" name="top"/>
  <outline>
    <contour>
      <point x="373" y="760" type="curve" smooth="yes"/>
      <point x="261" y="760"/>
      <point x="213" y="680"/>
      <point x="202" y="600" type="curve"/>
      <point x="282" y="600" type="line"/>
      <point x="289" y="648"/>
      <point x="313" y="672"/>
      <point x="365" y="672" type="curve" smooth="yes"/>
      <point x="413" y="672"/>
      <point x="433" y="648"/>
      <point x="422" y="600" type="curve"/>
      <point x="502" y="600" type="line"/>
      <point x="521" y="684"/>
      <point x="485" y="760"/>
    </contour>
  </outline>
</glyph>
<glyph name="commaturnedabovecomb" format="2">
  <unicode hex="0312"/>
  <anchor x="360" y="548" name="_top"/>
  <anchor x="414" y="828" name="top"/>
  <outline>
    <contour>
      <point x="423" y="740" type="curve"/>
      <point x="487" y="824" type="line"/>
      <point x="487" y="828" type="line"/>
      <point x="387" y="828" type="line"/>
      <point x="351" y="780" type="line" smooth="yes"/>
      <point x="332" y="754"/>
      <point x="299" y="711"/>
      <point x="299" y="672" type="curve" smooth="yes"/>
      <point x="299" y="635"/>
      <point x="326" y="608"/>
      <point x="367" y="608" type="curve" smooth="yes"/>
      <point x="418" y="608"/>
      <point x="455" y="640"/>
      <point x="455" y="688" type="curve" smooth="yes"/>
      <point x="455" y="714"/>
      <point x="438" y="732"/>
    </contour>
  </outline>
</glyph>
<glyph name="horncomb" format="2">
  <unicode hex="031B"/>
  <anchor x="204" y="548" name="_topright"/>
  <outline>
    <contour>
      <point x="196" y="429" type="line"/>
      <point x="331" y="429"/>
      <point x="407" y="540"/>
      <point x="418" y="620" type="curve"/>
      <point x="287" y="620" type="line"/>
      <point x="280" y="572"/>
      <point x="256" y="548"/>
      <point x="204" y="548" type="curve"/>
    </contour>
  </outline>
</glyph>
<glyph name="dotbelowcomb" format="2">
  <unicode hex="0323"/>
  <note>
dot.below
</note>
  <anchor x="283" y="0" name="_bottom"/>
  <anchor x="242" y="-212" name="bottom"/>
  <outline>
    <contour>
      <point x="251" y="-212" type="curve" smooth="yes"/>
      <point x="303" y="-212"/>
      <point x="339" y="-172"/>
      <point x="339" y="-124" type="curve" smooth="yes"/>
      <point x="339" y="-84"/>
      <point x="311" y="-60"/>
      <point x="271" y="-60" type="curve" smooth="yes"/>
      <point x="219" y="-60"/>
      <point x="183" y="-100"/>
      <point x="183" y="-148" type="curve" smooth="yes"/>
      <point x="183" y="-188"/>
      <point x="211" y="-212"/>
    </contour>
  </outline>
</glyph>
<glyph name="commaaccentcomb" format="2">
  <unicode hex="0326"/>
  <note>
commaaccent
</note>
  <anchor x="284" y="0" name="_bottom"/>
  <anchor x="229" y="-260" name="bottom"/>
  <outline>
    <contour>
      <point x="222" y="-172" type="curve"/>
      <point x="158" y="-256" type="line"/>
      <point x="158" y="-260" type="line"/>
      <point x="258" y="-260" type="line"/>
      <point x="294" y="-212" type="line" smooth="yes"/>
      <point x="313" y="-186"/>
      <point x="346" y="-143"/>
      <point x="346" y="-104" type="curve" smooth="yes"/>
      <point x="346" y="-67"/>
      <point x="319" y="-40"/>
      <point x="278" y="-40" type="curve" smooth="yes"/>
      <point x="227" y="-40"/>
      <point x="190" y="-72"/>
      <point x="190" y="-120" type="curve" smooth="yes"/>
      <point x="190" y="-146"/>
      <point x="207" y="-164"/>
    </contour>
  </outline>
</glyph>
<glyph name="brevebelowcomb" format="2">
  <unicode hex="032E"/>
  <note>
breve.below
</note>
  <anchor x="283" y="0" name="_bottom"/>
  <anchor x="240" y="-220" name="bottom"/>
  <outline>
    <contour>
      <point x="254" y="-220" type="curve" smooth="yes"/>
      <point x="366" y="-220"/>
      <point x="414" y="-140"/>
      <point x="425" y="-60" type="curve"/>
      <point x="345" y="-60" type="line"/>
      <point x="338" y="-108"/>
      <point x="314" y="-132"/>
      <point x="262" y="-132" type="curve" smooth="yes"/>
      <point x="214" y="-132"/>
      <point x="194" y="-108"/>
      <point x="205" y="-60" type="curve"/>
      <point x="125" y="-60" type="line"/>
      <point x="106" y="-144"/>
      <point x="142" y="-220"/>
    </contour>
  </outline>
</glyph>
<glyph name="slashshortcomb" format="2">
  <unicode hex="0337"/>
  <anchor x="234" y="380" name="_center"/>
  <outline>
    <contour>
      <point x="20" y="204" type="line"/>
      <point x="440" y="424" type="line"/>
      <point x="464" y="560" type="line"/>
      <point x="452" y="560" type="line"/>
      <point x="32" y="340" type="line"/>
      <point x="8" y="204" type="line"/>
    </contour>
  </outline>
</glyph>
<glyph name="Omega" format="2">
  <advance width="798"/>
  <unicode hex="03A9"/>
  <unicode hex="03C9"/>
  <note>
uni03A9
</note>
  <outline>
    <contour>
      <point x="4" y="146" type="line"/>
      <point x="-25" y="0" type="line"/>
      <point x="314" y="0" type="line"/>
      <point x="337" y="116" type="line"/>
      <point x="269" y="159"/>
      <point x="240" y="220"/>
      <point x="240" y="296" type="curve" smooth="yes"/>
      <point x="240" y="453"/>
      <point x="324" y="577"/>
      <point x="465" y="577" type="curve" smooth="yes"/>
      <point x="563" y="577"/>
      <point x="608" y="520"/>
      <point x="608" y="433" type="curve" smooth="yes"/>
      <point x="608" y="296"/>
      <point x="538" y="179"/>
      <point x="415" y="116" type="curve"/>
      <point x="392" y="0" type="line"/>
      <point x="732" y="0" type="line"/>
      <point x="761" y="146" type="line"/>
      <point x="657" y="146" type="line"/>
      <point x="730" y="217"/>
      <point x="799" y="319"/>
      <point x="799" y="453" type="curve" smooth="yes"/>
      <point x="799" y="619"/>
      <point x="674" y="732"/>
      <point x="483" y="732" type="curve" smooth="yes"/>
      <point x="220" y="732"/>
      <point x="59" y="567"/>
      <point x="59" y="325" type="curve" smooth="yes"/>
      <point x="59" y="257"/>
      <point x="78" y="187"/>
      <point x="114" y="146" type="curve"/>
    </contour>
  </outline>
</glyph>
<glyph name="mu" format="2">
  <advance width="692"/>
  <unicode hex="03BC"/>
  <note>
uni03BC
</note>
  <anchor x="293" y="0" name="bottom"/>
  <anchor x="584" y="28" name="ogonek"/>
  <anchor x="399" y="548" name="top"/>
  <anchor x="573" y="548" name="topright"/>
  <outline>
    <contour>
      <point x="-32" y="-232" type="line"/>
      <point x="191" y="-232" type="line"/>
      <point x="199" y="-220" type="line"/>
      <point x="197" y="-168"/>
      <point x="204" y="-116"/>
      <point x="213" y="-68" type="curve" smooth="yes"/>
      <point x="276" y="260" type="line"/>
      <point x="88" y="384" type="line"/>
    </contour>
    <component base="u"/>
  </outline>
</glyph>
<glyph name="perthousand-ar" format="2">
  <advance width="1027"/>
  <unicode hex="0609"/>
  <outline>
    <contour>
      <point x="99" y="12" type="line"/>
      <point x="99" y="0" type="line"/>
      <point x="246" y="0" type="line"/>
      <point x="644" y="708" type="line"/>
      <point x="644" y="720" type="line"/>
      <point x="497" y="720" type="line"/>
    </contour>
    <component base="zero-ar" xOffset="-13" yOffset="205"/>
    <component base="zero-ar" xOffset="674" yOffset="-172"/>
    <component base="zero-ar" xOffset="409" yOffset="-172"/>
  </outline>
</glyph>
<glyph name="hamza-ar" format="2">
  <advance width="454"/>
  <unicode hex="0621"/>
  <note>
uni0621
</note>
  <outline>
    <contour>
      <point x="30" y="214" type="curve" smooth="yes"/>
      <point x="30" y="89"/>
      <point x="123" y="0"/>
      <point x="247" y="0" type="curve" smooth="yes"/>
      <point x="365" y="0" type="line"/>
      <point x="424" y="170" type="line"/>
      <point x="424" y="181" type="line"/>
      <point x="295" y="181" type="line" smooth="yes"/>
      <point x="222" y="181"/>
      <point x="183" y="222"/>
      <point x="210" y="269" type="curve"/>
      <point x="140" y="216" type="line"/>
      <point x="200" y="136" type="line"/>
      <point x="187" y="266"/>
      <point x="247" y="285"/>
      <point x="310" y="285" type="curve" smooth="yes"/>
      <point x="365" y="285" type="line"/>
      <point x="421" y="453" type="line"/>
      <point x="421" y="464" type="line"/>
      <point x="325" y="464" type="line" smooth="yes"/>
      <point x="128" y="464"/>
      <point x="30" y="350"/>
    </contour>
  </outline>
</glyph>
<glyph name="dal-ar" format="2">
  <advance width="764"/>
  <unicode hex="062F"/>
  <note>
uni062F
</note>
  <anchor x="480" y="0" name="*entry"/>
  <anchor x="356" y="0" name="bottom"/>
  <anchor x="326" y="0" name="ring"/>
  <anchor x="396" y="508" name="top"/>
  <outline>
    <contour>
      <point x="32" y="12" type="line"/>
      <point x="32" y="0" type="line"/>
      <point x="424" y="0" type="line" smooth="yes"/>
      <point x="646" y="0"/>
      <point x="712" y="113"/>
      <point x="712" y="234" type="curve" smooth="yes"/>
      <point x="712" y="327"/>
      <point x="647" y="424"/>
      <point x="596" y="476" type="curve"/>
      <point x="584" y="476" type="line"/>
      <point x="544" y="468"/>
      <point x="476" y="464"/>
      <point x="408" y="464" type="curve" smooth="yes"/>
      <point x="376" y="464" type="line" smooth="yes"/>
      <point x="310" y="464"/>
      <point x="238" y="466"/>
      <point x="184" y="484" type="curve"/>
      <point x="172" y="484" type="line"/>
      <point x="120" y="320" type="line"/>
      <point x="181" y="292"/>
      <point x="273" y="288"/>
      <point x="324" y="288" type="curve" smooth="yes"/>
      <point x="364" y="288" type="line" smooth="yes"/>
      <point x="419" y="288"/>
      <point x="468" y="294"/>
      <point x="562" y="316" type="curve"/>
      <point x="479" y="316" type="line"/>
      <point x="489" y="302"/>
      <point x="508" y="277"/>
      <point x="508" y="242" type="curve" smooth="yes"/>
      <point x="508" y="209"/>
      <point x="483" y="176"/>
      <point x="384" y="176" type="curve" smooth="yes"/>
      <point x="96" y="176" type="line"/>
    </contour>
  </outline>
</glyph>
<glyph name="alefMaksura-ar" format="2">
  <advance width="740"/>
  <unicode hex="0649"/>
  <note>
uni0649
</note>
  <anchor x="228" y="-264" name="bottom"/>
  <anchor x="104" y="188" name="center"/>
  <anchor x="540" y="508" name="high"/>
  <anchor x="228" y="-264" name="ring"/>
  <anchor x="51" y="-14" name="tail"/>
  <anchor x="62" y="325" name="top"/>
  <outline>
    <contour>
      <point x="228" y="-264" type="curve" smooth="yes"/>
      <point x="472" y="-264"/>
      <point x="616" y="-141"/>
      <point x="616" y="-33" type="curve" smooth="yes"/>
      <point x="616" y="71"/>
      <point x="436" y="148"/>
      <point x="436" y="216" type="curve" smooth="yes"/>
      <point x="436" y="271"/>
      <point x="509" y="300"/>
      <point x="537" y="286" type="curve"/>
      <point x="455" y="337" type="line"/>
      <point x="510" y="254"/>
      <point x="548" y="206"/>
      <point x="620" y="148" type="curve"/>
      <point x="632" y="148" type="line"/>
      <point x="740" y="304" type="line"/>
      <point x="676" y="357"/>
      <point x="596" y="446"/>
      <point x="552" y="508" type="curve"/>
      <point x="540" y="508" type="line"/>
      <point x="364" y="430"/>
      <point x="232" y="345"/>
      <point x="232" y="192" type="curve" smooth="yes"/>
      <point x="232" y="67"/>
      <point x="368" y="-29"/>
      <point x="472" y="-77" type="curve"/>
      <point x="465" y="-33" type="line"/>
      <point x="412" y="-56"/>
      <point x="338" y="-80"/>
      <point x="245" y="-80" type="curve" smooth="yes"/>
      <point x="126" y="-80"/>
      <point x="41" y="-47"/>
      <point x="20" y="-41" type="curve"/>
      <point x="8" y="-41" type="line"/>
      <point x="-44" y="-221" type="line"/>
      <point x="-44" y="-221"/>
      <point x="57" y="-264"/>
    </contour>
  </outline>
</glyph>
<glyph name="fathatan-ar" format="2">
  <unicode hex="064B"/>
  <note>
uni064B
</note>
  <anchor x="214" y="520" name="_top"/>
  <anchor x="212" y="808" name="top"/>
  <outline>
    <contour>
      <point x="73" y="594" type="line"/>
      <point x="85" y="594" type="line"/>
      <point x="340" y="677" type="line"/>
      <point x="340" y="748" type="line"/>
      <point x="328" y="748" type="line"/>
      <point x="73" y="665" type="line"/>
    </contour>
    <contour>
      <point x="73" y="709" type="line"/>
      <point x="85" y="709" type="line"/>
      <point x="340" y="792" type="line"/>
      <point x="340" y="863" type="line"/>
      <point x="328" y="863" type="line"/>
      <point x="73" y="780" type="line"/>
    </contour>
  </outline>
</glyph>
<glyph name="dammatan-ar" format="2">
  <unicode hex="064C"/>
  <note>
uni064C
</note>
  <anchor x="203" y="518" name="_top"/>
  <anchor x="203" y="874" name="top"/>
  <outline>
    <contour>
      <point x="216" y="632" type="line"/>
      <point x="174" y="665"/>
      <point x="165" y="702"/>
      <point x="165" y="729" type="curve" smooth="yes"/>
      <point x="165" y="796"/>
      <point x="223" y="848"/>
      <point x="288" y="848" type="curve" smooth="yes"/>
      <point x="358" y="848"/>
      <point x="393" y="798"/>
      <point x="393" y="744" type="curve" smooth="yes"/>
      <point x="393" y="665"/>
      <point x="323" y="605"/>
      <point x="221" y="605" type="curve" smooth="yes"/>
      <point x="178" y="605"/>
      <point x="135" y="621"/>
      <point x="107" y="648" type="curve"/>
      <point x="56" y="596" type="line"/>
      <point x="0" y="651" type="line"/>
      <point x="97" y="747" type="line"/>
      <point x="101" y="747" type="line"/>
      <point x="132" y="711"/>
      <point x="160" y="683"/>
      <point x="208" y="683" type="curve" smooth="yes"/>
      <point x="255" y="683"/>
      <point x="307" y="699"/>
      <point x="307" y="740" type="curve" smooth="yes"/>
      <point x="307" y="760"/>
      <point x="294" y="777"/>
      <point x="276" y="779" type="curve"/>
      <point x="291" y="781" type="line"/>
      <point x="266" y="770"/>
      <point x="253" y="747"/>
      <point x="252" y="725" type="curve"/>
      <point x="252" y="709"/>
      <point x="256" y="692"/>
      <point x="263" y="678" type="curve"/>
    </contour>
  </outline>
</glyph>
<glyph name="shadda-ar" format="2">
  <unicode hex="0651"/>
  <note>
uni0651
</note>
  <anchor x="202" y="518" name="_top"/>
  <anchor x="202" y="802" name="top"/>
  <outline>
    <contour>
      <point x="135" y="597" type="curve" smooth="yes"/>
      <point x="168" y="597"/>
      <point x="204" y="617"/>
      <point x="221" y="664" type="curve"/>
      <point x="201" y="655" type="line"/>
      <point x="215" y="646"/>
      <point x="236" y="631"/>
      <point x="266" y="631" type="curve" smooth="yes"/>
      <point x="322" y="631"/>
      <point x="374" y="676"/>
      <point x="374" y="831" type="curve" smooth="yes"/>
      <point x="374" y="843" type="line"/>
      <point x="362" y="843" type="line"/>
      <point x="285" y="835" type="line"/>
      <point x="285" y="815" type="line" smooth="yes"/>
      <point x="285" y="722"/>
      <point x="271" y="706"/>
      <point x="260" y="692" type="curve"/>
      <point x="282" y="710" type="line"/>
      <point x="259" y="710"/>
      <point x="237" y="723"/>
      <point x="225" y="742" type="curve"/>
      <point x="225" y="715" type="line"/>
      <point x="236" y="719"/>
      <point x="236" y="735"/>
      <point x="236" y="750" type="curve" smooth="yes"/>
      <point x="236" y="796" type="line"/>
      <point x="224" y="796" type="line"/>
      <point x="152" y="788" type="line"/>
      <point x="152" y="741" type="line" smooth="yes"/>
      <point x="152" y="709"/>
      <point x="152" y="672"/>
      <point x="141" y="656" type="curve"/>
      <point x="163" y="667" type="line"/>
      <point x="132" y="667"/>
      <point x="115" y="663"/>
      <point x="115" y="727" type="curve" smooth="yes"/>
      <point x="115" y="803" type="line"/>
      <point x="103" y="803" type="line"/>
      <point x="26" y="795" type="line"/>
      <point x="26" y="724" type="line" smooth="yes"/>
      <point x="26" y="648"/>
      <point x="67" y="597"/>
    </contour>
  </outline>
</glyph>
<glyph name="alefbelow-ar" format="2">
  <unicode hex="0656"/>
  <note>
uni0656
</note>
  <anchor x="195" y="606" name="_top"/>
  <anchor x="194" y="799" name="top"/>
  <outline>
    <contour>
      <point x="156" y="778" type="line"/>
      <point x="156" y="606" type="line"/>
      <point x="232" y="606" type="line"/>
      <point x="232" y="630" type="line" smooth="yes"/>
      <point x="232" y="670"/>
      <point x="232" y="740"/>
      <point x="240" y="776" type="curve"/>
      <point x="238" y="784" type="line"/>
    </contour>
  </outline>
</glyph>
<glyph name="two-ar" format="2">
  <advance width="713"/>
  <unicode hex="0662"/>
  <note>
uni0662
</note>
  <outline>
    <contour>
      <point x="80" y="740" type="line"/>
      <point x="80" y="0" type="line"/>
      <point x="292" y="0" type="line"/>
      <point x="292" y="525" type="line"/>
      <point x="263" y="473" type="line"/>
      <point x="292" y="431"/>
      <point x="344" y="386"/>
      <point x="433" y="386" type="curve" smooth="yes"/>
      <point x="544" y="386"/>
      <point x="689" y="458"/>
      <point x="689" y="732" type="curve" smooth="yes"/>
      <point x="689" y="760" type="line"/>
      <point x="677" y="760" type="line"/>
      <point x="476" y="743" type="line"/>
      <point x="476" y="704" type="line" smooth="yes"/>
      <point x="476" y="646"/>
      <point x="465" y="600"/>
      <point x="441" y="566" type="curve"/>
      <point x="427" y="561"/>
      <point x="412" y="559"/>
      <point x="395" y="559" type="curve" smooth="yes"/>
      <point x="331" y="559"/>
      <point x="292" y="595"/>
      <point x="292" y="675" type="curve" smooth="yes"/>
      <point x="292" y="699"/>
      <point x="295" y="725"/>
      <point x="300" y="752" type="curve"/>
      <point x="298" y="760" type="line"/>
    </contour>
  </outline>
</glyph>
<glyph name="seven-ar" format="2">
  <advance width="662"/>
  <unicode hex="0667"/>
  <note>
uni0667
</note>
  <outline>
    <contour>
      <point x="202" y="0" type="line"/>
      <point x="450" y="0" type="line"/>
      <point x="658" y="738" type="line"/>
      <point x="658" y="750" type="line"/>
      <point x="477" y="750" type="line"/>
      <point x="320" y="137" type="line"/>
      <point x="368" y="137" type="line"/>
      <point x="242" y="750" type="line"/>
      <point x="4" y="750" type="line"/>
    </contour>
  </outline>
</glyph>
<glyph name="decimalseparator-ar" format="2">
  <advance width="315"/>
  <unicode hex="066B"/>
  <note>
uni066B
</note>
  <outline>
    <contour>
      <point x="28" y="89" type="curve" smooth="yes"/>
      <point x="28" y="36"/>
      <point x="65" y="10"/>
      <point x="111" y="6" type="curve"/>
      <point x="100" y="-44"/>
      <point x="66" y="-73"/>
      <point x="66" y="-73" type="curve"/>
      <point x="66" y="-86" type="line"/>
      <point x="157" y="-106" type="line"/>
      <point x="157" y="-106"/>
      <point x="243" y="-50"/>
      <point x="243" y="63" type="curve" smooth="yes"/>
      <point x="243" y="131"/>
      <point x="191" y="186"/>
      <point x="130" y="186" type="curve" smooth="yes"/>
      <point x="68" y="186"/>
      <point x="28" y="143"/>
    </contour>
  </outline>
</glyph>
<glyph name="asteriskArt-ar" format="2">
  <advance width="1095"/>
  <unicode hex="06DE"/>
  <outline>
    <contour>
      <point x="196" y="637" type="line"/>
      <point x="196" y="-67" type="line"/>
      <point x="900" y="-67" type="line"/>
      <point x="900" y="637" type="line"/>
    </contour>
    <contour>
      <point x="249" y="584" type="line"/>
      <point x="847" y="584" type="line"/>
      <point x="847" y="-14" type="line"/>
      <point x="249" y="-14" type="line"/>
    </contour>
    <contour>
      <point x="548" y="175" type="curve" smooth="yes"/>
      <point x="611" y="175"/>
      <point x="658" y="223"/>
      <point x="658" y="286" type="curve" smooth="yes"/>
      <point x="658" y="348"/>
      <point x="611" y="395"/>
      <point x="548" y="395" type="curve" smooth="yes"/>
      <point x="485" y="395"/>
      <point x="438" y="348"/>
      <point x="438" y="286" type="curve" smooth="yes"/>
      <point x="438" y="223"/>
      <point x="485" y="175"/>
    </contour>
    <contour>
      <point x="548" y="226" type="curve" smooth="yes"/>
      <point x="514" y="226"/>
      <point x="489" y="252"/>
      <point x="489" y="286" type="curve" smooth="yes"/>
      <point x="489" y="319"/>
      <point x="514" y="344"/>
      <point x="548" y="344" type="curve" smooth="yes"/>
      <point x="582" y="344"/>
      <point x="607" y="319"/>
      <point x="607" y="286" type="curve" smooth="yes"/>
      <point x="607" y="252"/>
      <point x="582" y="226"/>
    </contour>
    <contour>
      <point x="50" y="285" type="line"/>
      <point x="548" y="-213" type="line"/>
      <point x="1046" y="285" type="line"/>
      <point x="548" y="783" type="line"/>
    </contour>
    <contour>
      <point x="125" y="285" type="line"/>
      <point x="548" y="708" type="line"/>
      <point x="971" y="285" type="line"/>
      <point x="548" y="-138" type="line"/>
    </contour>
  </outline>
</glyph>
<glyph name="four-persian" format="2">
  <advance width="725"/>
  <unicode hex="06F4"/>
  <note>
uni06F4
</note>
  <outline>
    <contour>
      <point x="694" y="486" type="line"/>
      <point x="694" y="497" type="line"/>
      <point x="605" y="497" type="line" smooth="yes"/>
      <point x="532" y="497"/>
      <point x="497" y="533"/>
      <point x="478" y="615" type="curve"/>
      <point x="484" y="472" type="line"/>
      <point x="511" y="597"/>
      <point x="557" y="601"/>
      <point x="620" y="601" type="curve" smooth="yes"/>
      <point x="645" y="601" type="line"/>
      <point x="701" y="749" type="line"/>
      <point x="701" y="760" type="line"/>
      <point x="635" y="760" type="line" smooth="yes"/>
      <point x="451" y="760"/>
      <point x="360" y="667"/>
      <point x="360" y="580" type="curve" smooth="yes"/>
      <point x="360" y="496"/>
      <point x="460" y="446"/>
      <point x="562" y="429" type="curve"/>
      <point x="451" y="494" type="line"/>
      <point x="360" y="493"/>
      <point x="287" y="572"/>
      <point x="276" y="615" type="curve"/>
      <point x="292" y="500" type="line"/>
      <point x="292" y="661"/>
      <point x="293" y="719"/>
      <point x="300" y="752" type="curve"/>
      <point x="298" y="760" type="line"/>
      <point x="80" y="740" type="line"/>
      <point x="80" y="0" type="line"/>
      <point x="292" y="0" type="line"/>
      <point x="292" y="488" type="line"/>
      <point x="248" y="453" type="line"/>
      <point x="316" y="349"/>
      <point x="426" y="332"/>
      <point x="515" y="332" type="curve" smooth="yes"/>
      <point x="576" y="332"/>
      <point x="640" y="347"/>
      <point x="640" y="347" type="curve"/>
    </contour>
  </outline>
</glyph>
<glyph name="six-persian" format="2">
  <advance width="513"/>
  <unicode hex="06F6"/>
  <note>
uni06F6
</note>
  <outline>
    <contour>
      <point x="215" y="357" type="line"/>
      <point x="65" y="36" type="line"/>
      <point x="65" y="24" type="line"/>
      <point x="281" y="-15" type="line"/>
      <point x="482" y="431" type="line"/>
      <point x="482" y="443" type="line"/>
      <point x="348" y="443" type="line" smooth="yes"/>
      <point x="266" y="443"/>
      <point x="223" y="499"/>
      <point x="243" y="554" type="curve"/>
      <point x="233" y="461" type="line"/>
      <point x="230" y="561"/>
      <point x="290" y="580"/>
      <point x="353" y="580" type="curve" smooth="yes"/>
      <point x="408" y="580" type="line"/>
      <point x="464" y="748" type="line"/>
      <point x="464" y="759" type="line"/>
      <point x="368" y="759" type="line" smooth="yes"/>
      <point x="171" y="759"/>
      <point x="73" y="645"/>
      <point x="73" y="509" type="curve" smooth="yes"/>
      <point x="73" y="396"/>
      <point x="166" y="315"/>
      <point x="290" y="315" type="curve"/>
    </contour>
  </outline>
</glyph>
<glyph name="Germandbls" format="2">
  <advance width="730"/>
  <unicode hex="1E9E"/>
  <outline>
    <contour>
      <point x="412" y="-12" type="curve" smooth="yes"/>
      <point x="592" y="-12"/>
      <point x="712" y="82"/>
      <point x="712" y="220" type="curve" smooth="yes"/>
      <point x="712" y="315"/>
      <point x="644" y="388"/>
      <point x="506" y="388" type="curve"/>
      <point x="544" y="339" type="line"/>
      <point x="708" y="560" type="line" smooth="yes"/>
      <point x="739" y="602"/>
      <point x="768" y="660"/>
      <point x="746" y="711" type="curve"/>
      <point x="736" y="720" type="line"/>
      <point x="276" y="720" type="line"/>
      <point x="243" y="556" type="line"/>
      <point x="564" y="556" type="line"/>
      <point x="564" y="628" type="line"/>
      <point x="363" y="344" type="line"/>
      <point x="380" y="272" type="line"/>
      <point x="428" y="272" type="line" smooth="yes"/>
      <point x="480" y="272"/>
      <point x="508" y="256"/>
      <point x="508" y="216" type="curve" smooth="yes"/>
      <point x="508" y="164"/>
      <point x="464" y="140"/>
      <point x="396" y="140" type="curve" smooth="yes"/>
      <point x="372" y="140"/>
      <point x="348" y="144"/>
      <point x="333" y="148" type="curve"/>
      <point x="324" y="148" type="line"/>
      <point x="295" y="0" type="line"/>
      <point x="322" y="-7"/>
      <point x="364" y="-12"/>
    </contour>
    <contour>
      <point x="20" y="0" type="line"/>
      <point x="232" y="0" type="line"/>
      <point x="372" y="720" type="line"/>
      <point x="160" y="720" type="line"/>
    </contour>
  </outline>
</glyph>
<glyph name="quoteright" format="2">
  <advance width="300"/>
  <unicode hex="2019"/>
  <note>
quoteright
</note>
  <outline>
    <contour>
      <point x="152" y="524" type="curve"/>
      <point x="32" y="368" type="line"/>
      <point x="32" y="360" type="line"/>
      <point x="180" y="360" type="line"/>
      <point x="256" y="468" type="line" smooth="yes"/>
      <point x="286" y="510"/>
      <point x="336" y="574"/>
      <point x="336" y="636" type="curve" smooth="yes"/>
      <point x="336" y="692"/>
      <point x="292" y="728"/>
      <point x="236" y="728" type="curve" smooth="yes"/>
      <point x="163" y="728"/>
      <point x="108" y="674"/>
      <point x="108" y="600" type="curve" smooth="yes"/>
      <point x="108" y="561"/>
      <point x="130" y="536"/>
    </contour>
  </outline>
</glyph>
<glyph name="dagger" format="2">
  <advance width="616"/>
  <unicode hex="2020"/>
  <note>
dagger
</note>
  <outline>
    <contour>
      <point x="116" y="-248" type="line"/>
      <point x="308" y="-248" type="line"/>
      <point x="492" y="720" type="line"/>
      <point x="300" y="720" type="line"/>
    </contour>
    <contour>
      <point x="54" y="334" type="line"/>
      <point x="600" y="334" type="line"/>
      <point x="630" y="496" type="line"/>
      <point x="84" y="496" type="line"/>
    </contour>
  </outline>
</glyph>
<glyph name="daggerdbl" format="2">
  <advance width="616"/>
  <unicode hex="2021"/>
  <note>
daggerdbl
</note>
  <outline>
    <contour>
      <point x="116" y="-248" type="line"/>
      <point x="308" y="-248" type="line"/>
      <point x="492" y="720" type="line"/>
      <point x="300" y="720" type="line"/>
    </contour>
    <contour>
      <point x="54" y="346" type="line"/>
      <point x="600" y="346" type="line"/>
      <point x="630" y="508" type="line"/>
      <point x="84" y="508" type="line"/>
    </contour>
    <contour>
      <point x="-14" y="0" type="line"/>
      <point x="532" y="0" type="line"/>
      <point x="562" y="162" type="line"/>
      <point x="16" y="162" type="line"/>
    </contour>
  </outline>
</glyph>
<glyph name="ellipsis" format="2">
  <advance width="852"/>
  <unicode hex="2026"/>
  <note>
ellipsis
</note>
  <outline>
    <contour>
      <point x="92" y="-12" type="curve" smooth="yes"/>
      <point x="164" y="-12"/>
      <point x="224" y="40"/>
      <point x="224" y="120" type="curve" smooth="yes"/>
      <point x="224" y="172"/>
      <point x="185" y="208"/>
      <point x="128" y="208" type="curve" smooth="yes"/>
      <point x="55" y="208"/>
      <point x="-4" y="156"/>
      <point x="-4" y="76" type="curve" smooth="yes"/>
      <point x="-4" y="24"/>
      <point x="35" y="-12"/>
    </contour>
    <contour>
      <point x="376" y="-12" type="curve" smooth="yes"/>
      <point x="448" y="-12"/>
      <point x="508" y="40"/>
      <point x="508" y="120" type="curve" smooth="yes"/>
      <point x="508" y="172"/>
      <point x="469" y="208"/>
      <point x="412" y="208" type="curve" smooth="yes"/>
      <point x="339" y="208"/>
      <point x="280" y="156"/>
      <point x="280" y="76" type="curve" smooth="yes"/>
      <point x="280" y="24"/>
      <point x="319" y="-12"/>
    </contour>
    <contour>
      <point x="660" y="-12" type="curve" smooth="yes"/>
      <point x="732" y="-12"/>
      <point x="792" y="40"/>
      <point x="792" y="120" type="curve" smooth="yes"/>
      <point x="792" y="172"/>
      <point x="753" y="208"/>
      <point x="696" y="208" type="curve" smooth="yes"/>
      <point x="623" y="208"/>
      <point x="564" y="156"/>
      <point x="564" y="76" type="curve" smooth="yes"/>
      <point x="564" y="24"/>
      <point x="603" y="-12"/>
    </contour>
  </outline>
</glyph>
<glyph name="minute" format="2">
  <advance width="240"/>
  <unicode hex="2032"/>
  <outline>
    <contour>
      <point x="92" y="460" type="line"/>
      <point x="236" y="460" type="line"/>
      <point x="296" y="720" type="line"/>
      <point x="136" y="720" type="line"/>
    </contour>
  </outline>
</glyph>
<glyph name="fraction" format="2">
  <advance width="128"/>
  <unicode hex="2044"/>
  <note>
fraction
</note>
  <outline>
    <contour>
      <point x="-249" y="0" type="line"/>
      <point x="-137" y="0" type="line"/>
      <point x="426" y="720" type="line"/>
      <point x="314" y="720" type="line"/>
    </contour>
  </outline>
</glyph>
<glyph name="twoinferior" format="2">
  <advance width="397"/>
  <unicode hex="2082"/>
  <note>
uni2082
</note>
  <outline>
    <contour>
      <point x="-45" y="-160" type="curve"/>
      <point x="-27" y="-160" type="line"/>
      <point x="109" y="-104" type="line"/>
      <point x="109" y="-56"/>
      <point x="119" y="-43"/>
      <point x="165" y="-32" type="curve" smooth="yes"/>
      <point x="177" y="-29" type="line" smooth="yes"/>
      <point x="281" y="-3"/>
      <point x="328" y="38"/>
      <point x="328" y="115" type="curve"/>
      <point x="327" y="188"/>
      <point x="267" y="246"/>
      <point x="165" y="246" type="curve" smooth="yes"/>
      <point x="113" y="246"/>
      <point x="78" y="241"/>
      <point x="45" y="229" type="curve"/>
      <point x="21" y="113" type="line"/>
      <point x="29" y="113" type="line"/>
      <point x="44" y="121"/>
      <point x="84" y="132"/>
      <point x="118" y="132" type="curve" smooth="yes"/>
      <point x="160" y="132"/>
      <point x="175" y="122"/>
      <point x="175" y="103" type="curve" smooth="yes"/>
      <point x="175" y="90"/>
      <point x="168" y="79"/>
      <point x="136" y="70" type="curve" smooth="yes"/>
      <point x="116" y="65" type="line" smooth="yes"/>
      <point x="-1" y="36"/>
      <point x="-49" y="-30"/>
      <point x="-48" y="-138" type="curve" smooth="yes"/>
      <point x="-48" y="-142"/>
      <point x="-47" y="-156"/>
    </contour>
    <contour>
      <point x="-27" y="-160" type="line"/>
      <point x="275" y="-160" type="line"/>
      <point x="298" y="-46" type="line"/>
      <point x="13" y="-46" type="line"/>
    </contour>
  </outline>
</glyph>
<glyph name="seveninferior" format="2">
  <advance width="397"/>
  <unicode hex="2087"/>
  <note>
uni2087
</note>
  <outline>
    <contour>
      <point x="38" y="240" type="line"/>
      <point x="18" y="124" type="line"/>
      <point x="278" y="124" type="line"/>
      <point x="239" y="198" type="line"/>
      <point x="-4" y="-154" type="line"/>
      <point x="-4" y="-160" type="line"/>
      <point x="155" y="-160" type="line"/>
      <point x="338" y="148" type="line" smooth="yes"/>
      <point x="354" y="176"/>
      <point x="362" y="203"/>
      <point x="362" y="232" type="curve"/>
      <point x="354" y="240" type="line"/>
    </contour>
  </outline>
</glyph>
<glyph name="eightinferior" format="2">
  <advance width="397"/>
  <unicode hex="2088"/>
  <note>
uni2088
</note>
  <outline>
    <contour>
      <point x="130" y="-168" type="curve" smooth="yes"/>
      <point x="254" y="-168"/>
      <point x="318" y="-114"/>
      <point x="318" y="-39" type="curve"/>
      <point x="317" y="3"/>
      <point x="294" y="30"/>
      <point x="261" y="49" type="curve"/>
      <point x="211" y="72" type="line"/>
      <point x="165" y="88"/>
      <point x="148" y="97"/>
      <point x="148" y="118" type="curve" smooth="yes"/>
      <point x="148" y="137"/>
      <point x="158" y="147"/>
      <point x="177" y="147" type="curve" smooth="yes"/>
      <point x="196" y="147"/>
      <point x="208" y="137"/>
      <point x="208" y="123" type="curve" smooth="yes"/>
      <point x="208" y="104"/>
      <point x="197" y="86"/>
      <point x="163" y="70" type="curve"/>
      <point x="256" y="33" type="line"/>
      <point x="318" y="55"/>
      <point x="352" y="86"/>
      <point x="352" y="141" type="curve" smooth="yes"/>
      <point x="352" y="201"/>
      <point x="289" y="248"/>
      <point x="186" y="248" type="curve" smooth="yes"/>
      <point x="51" y="248"/>
      <point x="-3" y="181"/>
      <point x="-3" y="113" type="curve" smooth="yes"/>
      <point x="-3" y="72"/>
      <point x="14" y="46"/>
      <point x="56" y="23" type="curve"/>
      <point x="106" y="-2" type="line"/>
      <point x="153" y="-18"/>
      <point x="168" y="-23"/>
      <point x="168" y="-42" type="curve" smooth="yes"/>
      <point x="168" y="-57"/>
      <point x="154" y="-67"/>
      <point x="134" y="-67" type="curve" smooth="yes"/>
      <point x="109" y="-67"/>
      <point x="101" y="-53"/>
      <point x="101" y="-38" type="curve" smooth="yes"/>
      <point x="101" y="-23"/>
      <point x="108" y="-8"/>
      <point x="133" y="8" type="curve"/>
      <point x="48" y="44" type="line"/>
      <point x="-11" y="20"/>
      <point x="-40" y="-12"/>
      <point x="-40" y="-68" type="curve" smooth="yes"/>
      <point x="-39" y="-123"/>
      <point x="18" y="-168"/>
    </contour>
  </outline>
</glyph>
<glyph name="nineinferior" format="2">
  <advance width="397"/>
  <unicode hex="2089"/>
  <note>
uni2089
</note>
  <outline>
    <contour>
      <point x="54" y="-168" type="curve" smooth="yes"/>
      <point x="276" y="-168"/>
      <point x="337" y="-33"/>
      <point x="336" y="94" type="curve" smooth="yes"/>
      <point x="335" y="183"/>
      <point x="286" y="245"/>
      <point x="169" y="245" type="curve" smooth="yes"/>
      <point x="71" y="245"/>
      <point x="-16" y="204"/>
      <point x="-16" y="88" type="curve" smooth="yes"/>
      <point x="-16" y="40"/>
      <point x="14" y="-23"/>
      <point x="110" y="-23" type="curve" smooth="yes"/>
      <point x="147" y="-23"/>
      <point x="160" y="-20"/>
      <point x="175" y="-13" type="curve"/>
      <point x="210" y="-13" type="line"/>
      <point x="210" y="78" type="line"/>
      <point x="191" y="78" type="line"/>
      <point x="184" y="76"/>
      <point x="174" y="74"/>
      <point x="163" y="74" type="curve" smooth="yes"/>
      <point x="139" y="74"/>
      <point x="132" y="84"/>
      <point x="132" y="103" type="curve" smooth="yes"/>
      <point x="132" y="124"/>
      <point x="144" y="142"/>
      <point x="164" y="142" type="curve" smooth="yes"/>
      <point x="181" y="142"/>
      <point x="189" y="130"/>
      <point x="189" y="110" type="curve" smooth="yes"/>
      <point x="189" y="-15"/>
      <point x="154" y="-59"/>
      <point x="63" y="-59" type="curve" smooth="yes"/>
      <point x="39" y="-59"/>
      <point x="22" y="-56"/>
      <point x="10" y="-50" type="curve"/>
      <point x="1" y="-50" type="line"/>
      <point x="-19" y="-164" type="line"/>
      <point x="5" y="-167"/>
      <point x="35" y="-168"/>
    </contour>
  </outline>
</glyph>
<glyph name="colonsign" format="2">
  <advance width="616"/>
  <unicode hex="20A1"/>
  <outline>
    <contour>
      <point x="356" y="-12" type="curve" smooth="yes"/>
      <point x="434" y="-12"/>
      <point x="475" y="-8"/>
      <point x="513" y="4" type="curve"/>
      <point x="545" y="168" type="line"/>
      <point x="533" y="168" type="line"/>
      <point x="507" y="156"/>
      <point x="477" y="148"/>
      <point x="401" y="148" type="curve" smooth="yes"/>
      <point x="284" y="148"/>
      <point x="234" y="190"/>
      <point x="234" y="317" type="curve" smooth="yes"/>
      <point x="234" y="448"/>
      <point x="310" y="572"/>
      <point x="484" y="572" type="curve" smooth="yes"/>
      <point x="560" y="572"/>
      <point x="586" y="564"/>
      <point x="608" y="552" type="curve"/>
      <point x="620" y="552" type="line"/>
      <point x="652" y="716" type="line"/>
      <point x="618" y="728"/>
      <point x="579" y="732"/>
      <point x="499" y="732" type="curve" smooth="yes"/>
      <point x="190" y="732"/>
      <point x="36" y="528"/>
      <point x="36" y="307" type="curve" smooth="yes"/>
      <point x="36" y="121"/>
      <point x="141" y="-12"/>
    </contour>
    <contour>
      <point x="430" y="800" type="line"/>
      <point x="140" y="-84" type="line"/>
      <point x="228" y="-84" type="line"/>
      <point x="518" y="800" type="line"/>
    </contour>
    <contour>
      <point x="560" y="800" type="line"/>
      <point x="270" y="-84" type="line"/>
      <point x="358" y="-84" type="line"/>
      <point x="648" y="800" type="line"/>
    </contour>
  </outline>
</glyph>
<glyph name="franc" format="2">
  <advance width="588"/>
  <unicode hex="20A3"/>
  <outline>
    <contour>
      <point x="28" y="0" type="line"/>
      <point x="240" y="0" type="line"/>
      <point x="380" y="720" type="line"/>
      <point x="168" y="720" type="line"/>
    </contour>
    <contour>
      <point x="194" y="276" type="line"/>
      <point x="522" y="276" type="line"/>
      <point x="555" y="448" type="line"/>
      <point x="227" y="448" type="line"/>
    </contour>
    <contour>
      <point x="244" y="536" type="line"/>
      <point x="620" y="536" type="line"/>
      <point x="656" y="720" type="line"/>
      <point x="280" y="720" type="line"/>
    </contour>
    <contour>
      <point x="-9" y="96" type="line"/>
      <point x="355" y="96" type="line"/>
      <point x="380" y="228" type="line"/>
      <point x="16" y="228" type="line"/>
    </contour>
  </outline>
</glyph>
<glyph name="peseta" format="2">
  <advance width="1362"/>
  <unicode hex="20A7"/>
  <outline>
    <contour>
      <point x="142" y="160" type="line"/>
      <point x="302" y="160" type="line" smooth="yes"/>
      <point x="506" y="160"/>
      <point x="661" y="302"/>
      <point x="661" y="485" type="curve" smooth="yes"/>
      <point x="661" y="645"/>
      <point x="579" y="720"/>
      <point x="385" y="720" type="curve" smooth="yes"/>
      <point x="251" y="720" type="line"/>
      <point x="216" y="544" type="line"/>
      <point x="376" y="544" type="line" smooth="yes"/>
      <point x="424" y="544"/>
      <point x="452" y="524"/>
      <point x="452" y="470" type="curve" smooth="yes"/>
      <point x="452" y="394"/>
      <point x="400" y="328"/>
      <point x="334" y="328" type="curve" smooth="yes"/>
      <point x="174" y="328" type="line"/>
    </contour>
    <contour>
      <point x="-1" y="0" type="line"/>
      <point x="211" y="0" type="line"/>
      <point x="351" y="720" type="line"/>
      <point x="139" y="720" type="line"/>
    </contour>
    <contour>
      <point x="813" y="-6" type="curve" smooth="yes"/>
      <point x="847" y="-6"/>
      <point x="869" y="-3"/>
      <point x="895" y="2" type="curve"/>
      <point x="920" y="130" type="line"/>
      <point x="911" y="130" type="line"/>
      <point x="899" y="126"/>
      <point x="882" y="122"/>
      <point x="867" y="122" type="curve" smooth="yes"/>
      <point x="837" y="122"/>
      <point x="820" y="131"/>
      <point x="820" y="158" type="curve" smooth="yes"/>
      <point x="820" y="163"/>
      <point x="821" y="168"/>
      <point x="822" y="174" type="curve" smooth="yes"/>
      <point x="842" y="275" type="line"/>
      <point x="933" y="275" type="line"/>
      <point x="957" y="400" type="line"/>
      <point x="866" y="400" type="line"/>
      <point x="885" y="495" type="line"/>
      <point x="718" y="495" type="line"/>
      <point x="699" y="400" type="line"/>
      <point x="580" y="400" type="line"/>
      <point x="556" y="275" type="line"/>
      <point x="675" y="275" type="line"/>
      <point x="653" y="161" type="line" smooth="yes"/>
      <point x="650" y="143"/>
      <point x="648" y="128"/>
      <point x="648" y="113" type="curve" smooth="yes"/>
      <point x="648" y="16"/>
      <point x="723.997" y="-6"/>
    </contour>
    <contour>
      <point x="1069" y="-6" type="curve" smooth="yes"/>
      <point x="1196" y="-6"/>
      <point x="1288" y="41"/>
      <point x="1288" y="142" type="curve" smooth="yes"/>
      <point x="1288" y="207"/>
      <point x="1237" y="232"/>
      <point x="1188" y="247" type="curve" smooth="yes"/>
      <point x="1158" y="256" type="line" smooth="yes"/>
      <point x="1131" y="264"/>
      <point x="1119" y="264"/>
      <point x="1119" y="275" type="curve" smooth="yes"/>
      <point x="1119" y="285"/>
      <point x="1136" y="290"/>
      <point x="1170" y="290" type="curve" smooth="yes"/>
      <point x="1201" y="290"/>
      <point x="1235" y="286"/>
      <point x="1277" y="267" type="curve"/>
      <point x="1283" y="267" type="line"/>
      <point x="1307" y="395" type="line"/>
      <point x="1264" y="406"/>
      <point x="1232" y="409"/>
      <point x="1186" y="409" type="curve" smooth="yes"/>
      <point x="1059" y="409"/>
      <point x="963" y="354"/>
      <point x="963" y="259" type="curve" smooth="yes"/>
      <point x="963" y="199"/>
      <point x="1003" y="170"/>
      <point x="1055" y="157" type="curve" smooth="yes"/>
      <point x="1086" y="149" type="line" smooth="yes"/>
      <point x="1121" y="140"/>
      <point x="1129" y="139"/>
      <point x="1129" y="128" type="curve" smooth="yes"/>
      <point x="1129" y="118"/>
      <point x="1120" y="112"/>
      <point x="1082" y="112" type="curve" smooth="yes"/>
      <point x="1027" y="112"/>
      <point x="982" y="127"/>
      <point x="950" y="142" type="curve"/>
      <point x="944" y="142" type="line"/>
      <point x="919" y="14" type="line"/>
      <point x="959" y="2"/>
      <point x="1006" y="-6"/>
    </contour>
  </outline>
</glyph>
<glyph name="won" format="2">
  <advance width="1140"/>
  <unicode hex="20A9"/>
  <outline>
    <contour>
      <point x="645" y="-8" type="curve" smooth="yes"/>
      <point x="806" y="-8"/>
      <point x="957" y="62"/>
      <point x="1017" y="240" type="curve" smooth="yes"/>
      <point x="1179" y="720" type="line"/>
      <point x="967" y="720" type="line"/>
      <point x="817" y="260" type="line" smooth="yes"/>
      <point x="797" y="198"/>
      <point x="745" y="168"/>
      <point x="665" y="168" type="curve" smooth="yes"/>
      <point x="644" y="168"/>
      <point x="633" y="170"/>
      <point x="608" y="174" type="curve"/>
      <point x="680" y="125" type="line"/>
      <point x="689" y="157"/>
      <point x="697" y="203"/>
      <point x="705" y="260" type="curve" smooth="yes"/>
      <point x="767" y="720" type="line"/>
      <point x="567" y="720" type="line"/>
      <point x="502" y="179" type="line" smooth="yes"/>
      <point x="495" y="123"/>
      <point x="485" y="75"/>
      <point x="471" y="24" type="curve"/>
      <point x="471" y="12" type="line"/>
      <point x="524" y="0"/>
      <point x="586" y="-8"/>
    </contour>
    <contour>
      <point x="185" y="-8" type="curve" smooth="yes"/>
      <point x="334" y="-8"/>
      <point x="452" y="58"/>
      <point x="521" y="170" type="curve" smooth="yes"/>
      <point x="561" y="235" type="line"/>
      <point x="591" y="573" type="line"/>
      <point x="428" y="272" type="line" smooth="yes"/>
      <point x="396" y="213"/>
      <point x="371" y="168"/>
      <point x="291" y="168" type="curve" smooth="yes"/>
      <point x="279" y="168"/>
      <point x="263" y="169"/>
      <point x="248" y="172" type="curve"/>
      <point x="279" y="125" type="line"/>
      <point x="283" y="157"/>
      <point x="293" y="203"/>
      <point x="301" y="260" type="curve" smooth="yes"/>
      <point x="363" y="720" type="line"/>
      <point x="151" y="720" type="line"/>
      <point x="83" y="184" type="line" smooth="yes"/>
      <point x="78" y="144"/>
      <point x="68" y="68"/>
      <point x="55" y="24" type="curve"/>
      <point x="57" y="12" type="line"/>
      <point x="103" y="-2"/>
      <point x="138" y="-8"/>
    </contour>
    <contour>
      <point x="42" y="428" type="line"/>
      <point x="1158" y="428" type="line"/>
      <point x="1180" y="540" type="line"/>
      <point x="64" y="540" type="line"/>
    </contour>
    <contour>
      <point x="7" y="248" type="line"/>
      <point x="1123" y="248" type="line"/>
      <point x="1145" y="360" type="line"/>
      <point x="29" y="360" type="line"/>
    </contour>
  </outline>
</glyph>
<glyph name="kip" format="2">
  <advance width="705"/>
  <unicode hex="20AD"/>
  <outline>
    <contour>
      <point x="29" y="0" type="line"/>
      <point x="241" y="0" type="line"/>
      <point x="381" y="720" type="line"/>
      <point x="169" y="720" type="line"/>
    </contour>
    <contour>
      <point x="8" y="244" type="line"/>
      <point x="676" y="244" type="line"/>
      <point x="707" y="400" type="line"/>
      <point x="39" y="400" type="line"/>
    </contour>
    <contour>
      <point x="448" y="215" type="line"/>
      <point x="761" y="708" type="line"/>
      <point x="761" y="720" type="line"/>
      <point x="553" y="720" type="line"/>
      <point x="311" y="308" type="line"/>
      <point x="424" y="0" type="line"/>
      <point x="632" y="0" type="line"/>
      <point x="632" y="12" type="line"/>
      <point x="481" y="368" type="line"/>
    </contour>
  </outline>
</glyph>
<glyph name="ruble" format="2">
  <advance width="688"/>
  <unicode hex="20BD"/>
  <outline>
    <contour>
      <point x="14" y="220" type="line"/>
      <point x="350" y="220" type="line" smooth="yes"/>
      <point x="556" y="220"/>
      <point x="712" y="329"/>
      <point x="712" y="513" type="curve" smooth="yes"/>
      <point x="712" y="653"/>
      <point x="629" y="720"/>
      <point x="456" y="720" type="curve" smooth="yes"/>
      <point x="311" y="720" type="line"/>
      <point x="279" y="556" type="line"/>
      <point x="435" y="556" type="line" smooth="yes"/>
      <point x="483" y="556"/>
      <point x="506" y="536"/>
      <point x="506" y="497" type="curve" smooth="yes"/>
      <point x="506" y="429"/>
      <point x="460" y="380"/>
      <point x="381" y="380" type="curve" smooth="yes"/>
      <point x="45" y="380" type="line"/>
    </contour>
    <contour>
      <point x="59" y="0" type="line"/>
      <point x="271" y="0" type="line"/>
      <point x="411" y="720" type="line"/>
      <point x="199" y="720" type="line"/>
    </contour>
    <contour>
      <point x="-16" y="68" type="line"/>
      <point x="456" y="68" type="line"/>
      <point x="480" y="188" type="line"/>
      <point x="8" y="188" type="line"/>
    </contour>
  </outline>
</glyph>
<glyph name="numero" format="2">
  <advance width="1266"/>
  <unicode hex="2116"/>
  <note>
afii61352
</note>
  <anchor x="357" y="0" name="bottom"/>
  <anchor x="497" y="720" name="top"/>
  <outline>
    <contour>
      <point x="796" y="88" type="line"/>
      <point x="1156" y="88" type="line"/>
      <point x="1172" y="184" type="line"/>
      <point x="812" y="184" type="line"/>
    </contour>
    <contour>
      <point x="824" y="244" type="line"/>
      <point x="1184" y="244" type="line"/>
      <point x="1200" y="340" type="line"/>
      <point x="840" y="340" type="line"/>
    </contour>
    <contour>
      <point x="1040" y="388" type="curve" smooth="yes"/>
      <point x="1157" y="388"/>
      <point x="1272" y="443"/>
      <point x="1272" y="588" type="curve" smooth="yes"/>
      <point x="1272" y="684"/>
      <point x="1190" y="732"/>
      <point x="1088" y="732" type="curve" smooth="yes"/>
      <point x="971" y="732"/>
      <point x="856" y="675"/>
      <point x="856" y="528" type="curve" smooth="yes"/>
      <point x="856" y="433"/>
      <point x="939" y="388"/>
    </contour>
    <contour>
      <point x="1052" y="484" type="curve" smooth="yes"/>
      <point x="1022" y="484"/>
      <point x="1000" y="499"/>
      <point x="1000" y="536" type="curve" smooth="yes"/>
      <point x="1000" y="603"/>
      <point x="1043" y="636"/>
      <point x="1080" y="636" type="curve" smooth="yes"/>
      <point x="1110" y="636"/>
      <point x="1132" y="617"/>
      <point x="1132" y="580" type="curve" smooth="yes"/>
      <point x="1132" y="513"/>
      <point x="1090" y="484"/>
    </contour>
    <component base="N" xOffset="16"/>
  </outline>
</glyph>
<glyph name="upArrow" format="2">
  <advance width="632"/>
  <unicode hex="2191"/>
  <note>
uni2191
</note>
  <outline>
    <contour>
      <point x="260" y="-72" type="line"/>
      <point x="412" y="-72" type="line"/>
      <point x="408" y="264" type="line" smooth="yes"/>
      <point x="407" y="332"/>
      <point x="403" y="382"/>
      <point x="398" y="420" type="curve"/>
      <point x="413" y="404"/>
      <point x="428" y="390"/>
      <point x="440" y="380" type="curve" smooth="yes"/>
      <point x="528" y="304" type="line"/>
      <point x="612" y="400" type="line"/>
      <point x="440" y="548" type="line" smooth="yes"/>
      <point x="419" y="567"/>
      <point x="388" y="596"/>
      <point x="364" y="624" type="curve"/>
      <point x="308" y="624" type="line"/>
      <point x="284" y="596"/>
      <point x="253" y="567"/>
      <point x="232" y="548" type="curve" smooth="yes"/>
      <point x="60" y="400" type="line"/>
      <point x="144" y="304" type="line"/>
      <point x="232" y="380" type="line" smooth="yes"/>
      <point x="243" y="390"/>
      <point x="259" y="404"/>
      <point x="273" y="420" type="curve"/>
      <point x="269" y="382"/>
      <point x="265" y="331"/>
      <point x="264" y="264" type="curve" smooth="yes"/>
    </contour>
  </outline>
</glyph>
<glyph name="rightArrow" format="2">
  <advance width="772"/>
  <unicode hex="2192"/>
  <note>
uni2192
</note>
  <outline>
    <contour>
      <point x="56" y="352" type="line"/>
      <point x="56" y="200" type="line"/>
      <point x="392" y="204" type="line" smooth="yes"/>
      <point x="460" y="205"/>
      <point x="510" y="208"/>
      <point x="548" y="213" type="curve"/>
      <point x="532" y="199"/>
      <point x="518" y="183"/>
      <point x="508" y="172" type="curve" smooth="yes"/>
      <point x="432" y="84" type="line"/>
      <point x="528" y="0" type="line"/>
      <point x="676" y="172" type="line" smooth="yes"/>
      <point x="695" y="193"/>
      <point x="724" y="224"/>
      <point x="752" y="248" type="curve"/>
      <point x="752" y="304" type="line"/>
      <point x="724" y="328"/>
      <point x="695" y="359"/>
      <point x="676" y="380" type="curve" smooth="yes"/>
      <point x="528" y="552" type="line"/>
      <point x="432" y="468" type="line"/>
      <point x="508" y="380" type="line" smooth="yes"/>
      <point x="518" y="368"/>
      <point x="532" y="353"/>
      <point x="548" y="338" type="curve"/>
      <point x="510" y="343"/>
      <point x="459" y="347"/>
      <point x="392" y="348" type="curve" smooth="yes"/>
    </contour>
  </outline>
</glyph>
<glyph name="northWestArrow" format="2">
  <advance width="655"/>
  <unicode hex="2196"/>
  <note>
uni2196
</note>
  <outline>
    <contour>
      <point x="531" y="-24" type="line"/>
      <point x="639" y="84" type="line"/>
      <point x="398" y="318" type="line" smooth="yes"/>
      <point x="349" y="366"/>
      <point x="311" y="398"/>
      <point x="281" y="422" type="curve"/>
      <point x="303" y="421"/>
      <point x="323" y="422"/>
      <point x="339" y="423" type="curve" smooth="yes"/>
      <point x="455" y="432" type="line"/>
      <point x="446" y="559" type="line"/>
      <point x="220" y="542" type="line" smooth="yes"/>
      <point x="192" y="540"/>
      <point x="149" y="539"/>
      <point x="113" y="542" type="curve"/>
      <point x="73" y="502" type="line"/>
      <point x="76" y="466"/>
      <point x="75" y="423"/>
      <point x="73" y="395" type="curve" smooth="yes"/>
      <point x="56" y="169" type="line"/>
      <point x="183" y="160" type="line"/>
      <point x="192" y="276" type="line" smooth="yes"/>
      <point x="193" y="291"/>
      <point x="194" y="312"/>
      <point x="193" y="334" type="curve"/>
      <point x="216" y="304"/>
      <point x="250" y="265"/>
      <point x="297" y="217" type="curve" smooth="yes"/>
    </contour>
  </outline>
</glyph>
<glyph name="northEastArrow" format="2">
  <advance width="655"/>
  <unicode hex="2197"/>
  <note>
uni2197
</note>
  <outline>
    <contour>
      <point x="56" y="84" type="line"/>
      <point x="164" y="-24" type="line"/>
      <point x="398" y="217" type="line" smooth="yes"/>
      <point x="446" y="266"/>
      <point x="478" y="304"/>
      <point x="502" y="334" type="curve"/>
      <point x="501" y="312"/>
      <point x="502" y="291"/>
      <point x="503" y="276" type="curve" smooth="yes"/>
      <point x="512" y="160" type="line"/>
      <point x="639" y="169" type="line"/>
      <point x="622" y="395" type="line" smooth="yes"/>
      <point x="620" y="423"/>
      <point x="619" y="466"/>
      <point x="622" y="502" type="curve"/>
      <point x="582" y="542" type="line"/>
      <point x="546" y="539"/>
      <point x="503" y="540"/>
      <point x="475" y="542" type="curve" smooth="yes"/>
      <point x="249" y="559" type="line"/>
      <point x="240" y="432" type="line"/>
      <point x="356" y="423" type="line" smooth="yes"/>
      <point x="371" y="422"/>
      <point x="392" y="421"/>
      <point x="414" y="422" type="curve"/>
      <point x="384" y="398"/>
      <point x="345" y="365"/>
      <point x="297" y="318" type="curve" smooth="yes"/>
    </contour>
  </outline>
</glyph>
<glyph name="southEastArrow" format="2">
  <advance width="655"/>
  <unicode hex="2198"/>
  <note>
uni2198
</note>
  <outline>
    <contour>
      <point x="164" y="576" type="line"/>
      <point x="56" y="468" type="line"/>
      <point x="297" y="234" type="line" smooth="yes"/>
      <point x="346" y="185"/>
      <point x="384" y="153"/>
      <point x="414" y="130" type="curve"/>
      <point x="392" y="131"/>
      <point x="371" y="130"/>
      <point x="356" y="129" type="curve" smooth="yes"/>
      <point x="240" y="120" type="line"/>
      <point x="249" y="-7" type="line"/>
      <point x="475" y="10" type="line" smooth="yes"/>
      <point x="503" y="12"/>
      <point x="546" y="13"/>
      <point x="582" y="10" type="curve"/>
      <point x="622" y="50" type="line"/>
      <point x="619" y="86"/>
      <point x="620" y="129"/>
      <point x="622" y="157" type="curve" smooth="yes"/>
      <point x="639" y="383" type="line"/>
      <point x="512" y="392" type="line"/>
      <point x="503" y="276" type="line" smooth="yes"/>
      <point x="502" y="260"/>
      <point x="501" y="240"/>
      <point x="502" y="218" type="curve"/>
      <point x="478" y="248"/>
      <point x="445" y="287"/>
      <point x="398" y="335" type="curve" smooth="yes"/>
    </contour>
  </outline>
</glyph>
<glyph name="southWestArrow" format="2">
  <advance width="655"/>
  <unicode hex="2199"/>
  <note>
uni2199
</note>
  <outline>
    <contour>
      <point x="639" y="468" type="line"/>
      <point x="531" y="576" type="line"/>
      <point x="297" y="335" type="line" smooth="yes"/>
      <point x="248" y="286"/>
      <point x="216" y="248"/>
      <point x="193" y="218" type="curve"/>
      <point x="194" y="240"/>
      <point x="193" y="260"/>
      <point x="192" y="276" type="curve" smooth="yes"/>
      <point x="183" y="392" type="line"/>
      <point x="56" y="383" type="line"/>
      <point x="73" y="157" type="line" smooth="yes"/>
      <point x="75" y="129"/>
      <point x="76" y="86"/>
      <point x="73" y="50" type="curve"/>
      <point x="113" y="10" type="line"/>
      <point x="149" y="13"/>
      <point x="192" y="12"/>
      <point x="220" y="10" type="curve" smooth="yes"/>
      <point x="446" y="-7" type="line"/>
      <point x="455" y="120" type="line"/>
      <point x="339" y="129" type="line" smooth="yes"/>
      <point x="323" y="130"/>
      <point x="303" y="131"/>
      <point x="281" y="130" type="curve"/>
      <point x="311" y="153"/>
      <point x="350" y="187"/>
      <point x="398" y="234" type="curve" smooth="yes"/>
    </contour>
  </outline>
</glyph>
<glyph name="product" format="2">
  <advance width="760"/>
  <unicode hex="220F"/>
  <note>
product
</note>
  <outline>
    <contour>
      <point x="160" y="720" type="line"/>
      <point x="20" y="0" type="line"/>
      <point x="216" y="0" type="line"/>
      <point x="323" y="552" type="line"/>
      <point x="555" y="552" type="line"/>
      <point x="448" y="0" type="line"/>
      <point x="644" y="0" type="line"/>
      <point x="784" y="720" type="line"/>
    </contour>
  </outline>
</glyph>
<glyph name="summation" format="2">
  <advance width="554"/>
  <unicode hex="2211"/>
  <note>
summation
</note>
  <outline>
    <contour>
      <point x="244" y="316" type="line"/>
      <point x="-20" y="-28" type="line"/>
      <point x="-36" y="-120" type="line"/>
      <point x="452" y="-120" type="line"/>
      <point x="480" y="16" type="line"/>
      <point x="205" y="16" type="line"/>
      <point x="436" y="314" type="line"/>
      <point x="313" y="584" type="line"/>
      <point x="588" y="584" type="line"/>
      <point x="616" y="720" type="line"/>
      <point x="124" y="720" type="line"/>
      <point x="108" y="624" type="line"/>
    </contour>
  </outline>
</glyph>
<glyph name="bulletoperator" format="2">
  <advance width="304"/>
  <unicode hex="2219"/>
  <note>
uni2219
</note>
  <outline>
    <contour>
      <point x="148" y="260" type="curve" smooth="yes"/>
      <point x="220" y="260"/>
      <point x="280" y="312"/>
      <point x="280" y="392" type="curve" smooth="yes"/>
      <point x="280" y="444"/>
      <point x="241" y="480"/>
      <point x="184" y="480" type="curve" smooth="yes"/>
      <point x="111" y="480"/>
      <point x="52" y="428"/>
      <point x="52" y="348" type="curve" smooth="yes"/>
      <point x="52" y="296"/>
      <point x="91" y="260"/>
    </contour>
  </outline>
</glyph>
<glyph name="radical" format="2">
  <advance width="668"/>
  <unicode hex="221A"/>
  <note>
radical
</note>
  <outline>
    <contour>
      <point x="48" y="396" type="line"/>
      <point x="20" y="260" type="line"/>
      <point x="151" y="260" type="line"/>
      <point x="204" y="-120" type="line"/>
      <point x="408" y="-120" type="line"/>
      <point x="836" y="772" type="line"/>
      <point x="668" y="772" type="line"/>
      <point x="336" y="61" type="line"/>
      <point x="296" y="396" type="line"/>
    </contour>
  </outline>
</glyph>
<glyph name="integral" format="2">
  <advance width="485"/>
  <unicode hex="222B"/>
  <note>
integral
</note>
  <outline>
    <contour>
      <point x="24" y="-208" type="curve" smooth="yes"/>
      <point x="172" y="-208"/>
      <point x="250" y="-120"/>
      <point x="280" y="32" type="curve" smooth="yes"/>
      <point x="372" y="492" type="line" smooth="yes"/>
      <point x="387" y="568"/>
      <point x="425" y="596"/>
      <point x="484" y="596" type="curve" smooth="yes"/>
      <point x="501" y="596"/>
      <point x="518" y="593"/>
      <point x="528" y="588" type="curve"/>
      <point x="556" y="720" type="line"/>
      <point x="544" y="728"/>
      <point x="507" y="732"/>
      <point x="464" y="732" type="curve" smooth="yes"/>
      <point x="316" y="732"/>
      <point x="233" y="644"/>
      <point x="204" y="492" type="curve" smooth="yes"/>
      <point x="116" y="32" type="line" smooth="yes"/>
      <point x="101" y="-44"/>
      <point x="62" y="-72"/>
      <point x="4" y="-72" type="curve" smooth="yes"/>
      <point x="-13" y="-72"/>
      <point x="-30" y="-69"/>
      <point x="-40" y="-64" type="curve"/>
      <point x="-68" y="-196" type="line"/>
      <point x="-56" y="-204"/>
      <point x="-17" y="-208"/>
    </contour>
  </outline>
</glyph>
<glyph name="greaterequal" format="2">
  <advance width="616"/>
  <unicode hex="2265"/>
  <note>
greaterequal
</note>
  <outline>
    <contour>
      <point x="104" y="188" type="line"/>
      <point x="544" y="408" type="line"/>
      <point x="544" y="488" type="line"/>
      <point x="104" y="708" type="line"/>
      <point x="96" y="708" type="line"/>
      <point x="96" y="572" type="line"/>
      <point x="356" y="448" type="line"/>
      <point x="96" y="328" type="line"/>
      <point x="96" y="188" type="line"/>
    </contour>
    <contour>
      <point x="96" y="128" type="line"/>
      <point x="96" y="0" type="line"/>
      <point x="544" y="0" type="line"/>
      <point x="544" y="128" type="line"/>
    </contour>
  </outline>
</glyph>
<glyph name="whiteSquare" format="2">
  <advance width="908"/>
  <unicode hex="25A1"/>
  <note>
uni25A1
</note>
  <outline>
    <contour>
      <point x="116" y="720" type="line"/>
      <point x="116" y="0" type="line"/>
      <point x="832" y="0" type="line"/>
      <point x="832" y="720" type="line"/>
    </contour>
    <contour>
      <point x="656" y="156" type="line"/>
      <point x="292" y="156" type="line"/>
      <point x="292" y="564" type="line"/>
      <point x="656" y="564" type="line"/>
    </contour>
  </outline>
</glyph>
<glyph name="upWhiteTriangle" format="2">
  <advance width="648"/>
  <unicode hex="25B3"/>
  <note>
uni25C1
</note>
  <outline>
    <contour>
      <point x="28" y="0" type="line"/>
      <point x="620" y="0" type="line"/>
      <point x="324" y="532" type="line"/>
    </contour>
    <contour>
      <point x="242" y="140" type="line"/>
      <point x="324" y="290" type="line"/>
      <point x="406" y="140" type="line"/>
    </contour>
  </outline>
</glyph>
<glyph name="rightWhiteTriangle" format="2">
  <advance width="648"/>
  <unicode hex="25B7"/>
  <note>
uni25B7
</note>
  <outline>
    <contour>
      <point x="116" y="-30" type="line"/>
      <point x="648" y="266" type="line"/>
      <point x="116" y="562" type="line"/>
    </contour>
    <contour>
      <point x="256" y="184" type="line"/>
      <point x="256" y="348" type="line"/>
      <point x="406" y="266" type="line"/>
    </contour>
  </outline>
</glyph>
<glyph name="leftWhiteTriangle" format="2">
  <advance width="648"/>
  <unicode hex="25C1"/>
  <note>
uni25C1
</note>
  <outline>
    <contour>
      <point x="572" y="-30" type="line"/>
      <point x="572" y="562" type="line"/>
      <point x="40" y="266" type="line"/>
    </contour>
    <contour>
      <point x="432" y="184" type="line"/>
      <point x="282" y="266" type="line"/>
      <point x="432" y="348" type="line"/>
    </contour>
  </outline>
</glyph>
<glyph name="whiteDiamond" format="2">
  <advance width="662"/>
  <unicode hex="25C7"/>
  <outline>
    <contour>
      <point x="331" y="-16" type="line"/>
      <point x="622" y="275" type="line"/>
      <point x="331" y="566" type="line"/>
      <point x="40" y="275" type="line"/>
    </contour>
    <contour>
      <point x="331" y="125" type="line"/>
      <point x="181" y="275" type="line"/>
      <point x="331" y="425" type="line"/>
      <point x="481" y="275" type="line"/>
    </contour>
  </outline>
</glyph>
<glyph name="lozenge" format="2">
  <advance width="674"/>
  <unicode hex="25CA"/>
  <note>
lozenge
</note>
  <outline>
    <contour>
      <point x="352" y="-120" type="line"/>
      <point x="660" y="300" type="line"/>
      <point x="516" y="720" type="line"/>
      <point x="348" y="720" type="line"/>
      <point x="40" y="300" type="line"/>
      <point x="184" y="-120" type="line"/>
    </contour>
    <contour>
      <point x="400" y="559" type="line"/>
      <point x="488" y="300" type="line"/>
      <point x="300" y="41" type="line"/>
      <point x="212" y="300" type="line"/>
    </contour>
  </outline>
</glyph>
<glyph name="whiteCircle" format="2">
  <advance width="682"/>
  <unicode hex="25CB"/>
  <note>
uni25CB
</note>
  <outline>
    <contour>
      <point x="68" y="272" type="curve" smooth="yes"/>
      <point x="68" y="101"/>
      <point x="185" y="-12"/>
      <point x="361" y="-12" type="curve" smooth="yes"/>
      <point x="537" y="-12"/>
      <point x="654" y="101"/>
      <point x="654" y="272" type="curve" smooth="yes"/>
      <point x="654" y="443"/>
      <point x="537" y="556"/>
      <point x="361" y="556" type="curve" smooth="yes"/>
      <point x="185" y="556"/>
      <point x="68" y="443"/>
    </contour>
    <contour>
      <point x="216" y="272" type="curve" smooth="yes"/>
      <point x="216" y="366"/>
      <point x="269" y="424"/>
      <point x="362" y="424" type="curve" smooth="yes"/>
      <point x="455" y="424"/>
      <point x="508" y="366"/>
      <point x="508" y="272" type="curve" smooth="yes"/>
      <point x="508" y="178"/>
      <point x="455" y="120"/>
      <point x="362" y="120" type="curve" smooth="yes"/>
      <point x="269" y="120"/>
      <point x="216" y="178"/>
    </contour>
  </outline>
</glyph>
<glyph name="dottedCircle" format="2">
  <advance width="608"/>
  <unicode hex="25CC"/>
  <note>
uni25CC
</note>
  <outline>
    <contour>
      <point x="304" y="468" type="curve" smooth="yes"/>
      <point x="320" y="468"/>
      <point x="334" y="482"/>
      <point x="334" y="498" type="curve" smooth="yes"/>
      <point x="334" y="514"/>
      <point x="320" y="528"/>
      <point x="304" y="528" type="curve" smooth="yes"/>
      <point x="288" y="528"/>
      <point x="274" y="514"/>
      <point x="274" y="498" type="curve" smooth="yes"/>
      <point x="274" y="482"/>
      <point x="288" y="468"/>
    </contour>
    <contour>
      <point x="386" y="453" type="curve" smooth="yes"/>
      <point x="402" y="453"/>
      <point x="416" y="467"/>
      <point x="416" y="483" type="curve" smooth="yes"/>
      <point x="416" y="499"/>
      <point x="402" y="513"/>
      <point x="386" y="513" type="curve" smooth="yes"/>
      <point x="370" y="513"/>
      <point x="356" y="499"/>
      <point x="356" y="483" type="curve" smooth="yes"/>
      <point x="356" y="467"/>
      <point x="370" y="453"/>
    </contour>
    <contour>
      <point x="222" y="453" type="curve" smooth="yes"/>
      <point x="238" y="453"/>
      <point x="252" y="467"/>
      <point x="252" y="483" type="curve" smooth="yes"/>
      <point x="252" y="499"/>
      <point x="238" y="513"/>
      <point x="222" y="513" type="curve" smooth="yes"/>
      <point x="206" y="513"/>
      <point x="192" y="499"/>
      <point x="192" y="483" type="curve" smooth="yes"/>
      <point x="192" y="467"/>
      <point x="206" y="453"/>
    </contour>
    <contour>
      <point x="428" y="442" type="curve" smooth="yes"/>
      <point x="428" y="426"/>
      <point x="442" y="412"/>
      <point x="458" y="412" type="curve" smooth="yes"/>
      <point x="474" y="412"/>
      <point x="488" y="426"/>
      <point x="488" y="442" type="curve" smooth="yes"/>
      <point x="488" y="458"/>
      <point x="474" y="472"/>
      <point x="458" y="472" type="curve" smooth="yes"/>
      <point x="442" y="472"/>
      <point x="428" y="458"/>
    </contour>
    <contour>
      <point x="150" y="412" type="curve" smooth="yes"/>
      <point x="166" y="412"/>
      <point x="180" y="426"/>
      <point x="180" y="442" type="curve" smooth="yes"/>
      <point x="180" y="458"/>
      <point x="166" y="472"/>
      <point x="150" y="472" type="curve" smooth="yes"/>
      <point x="134" y="472"/>
      <point x="120" y="458"/>
      <point x="120" y="442" type="curve" smooth="yes"/>
      <point x="120" y="426"/>
      <point x="134" y="412"/>
    </contour>
    <contour>
      <point x="482" y="378" type="curve" smooth="yes"/>
      <point x="482" y="362"/>
      <point x="496" y="348"/>
      <point x="512" y="348" type="curve" smooth="yes"/>
      <point x="528" y="348"/>
      <point x="542" y="362"/>
      <point x="542" y="378" type="curve" smooth="yes"/>
      <point x="542" y="394"/>
      <point x="528" y="408"/>
      <point x="512" y="408" type="curve" smooth="yes"/>
      <point x="496" y="408"/>
      <point x="482" y="394"/>
    </contour>
    <contour>
      <point x="96" y="348" type="curve" smooth="yes"/>
      <point x="112" y="348"/>
      <point x="126" y="362"/>
      <point x="126" y="378" type="curve" smooth="yes"/>
      <point x="126" y="394"/>
      <point x="112" y="408"/>
      <point x="96" y="408" type="curve" smooth="yes"/>
      <point x="80" y="408"/>
      <point x="66" y="394"/>
      <point x="66" y="378" type="curve" smooth="yes"/>
      <point x="66" y="362"/>
      <point x="80" y="348"/>
    </contour>
    <contour>
      <point x="510" y="299" type="curve" smooth="yes"/>
      <point x="510" y="283"/>
      <point x="524" y="269"/>
      <point x="540" y="269" type="curve" smooth="yes"/>
      <point x="556" y="269"/>
      <point x="570" y="283"/>
      <point x="570" y="299" type="curve" smooth="yes"/>
      <point x="570" y="315"/>
      <point x="556" y="329"/>
      <point x="540" y="329" type="curve" smooth="yes"/>
      <point x="524" y="329"/>
      <point x="510" y="315"/>
    </contour>
    <contour>
      <point x="68" y="269" type="curve" smooth="yes"/>
      <point x="84" y="269"/>
      <point x="98" y="283"/>
      <point x="98" y="299" type="curve" smooth="yes"/>
      <point x="98" y="315"/>
      <point x="84" y="329"/>
      <point x="68" y="329" type="curve" smooth="yes"/>
      <point x="52" y="329"/>
      <point x="38" y="315"/>
      <point x="38" y="299" type="curve" smooth="yes"/>
      <point x="38" y="283"/>
      <point x="52" y="269"/>
    </contour>
    <contour>
      <point x="510" y="217" type="curve" smooth="yes"/>
      <point x="510" y="201"/>
      <point x="524" y="187"/>
      <point x="540" y="187" type="curve" smooth="yes"/>
      <point x="556" y="187"/>
      <point x="570" y="201"/>
      <point x="570" y="217" type="curve" smooth="yes"/>
      <point x="570" y="233"/>
      <point x="556" y="247"/>
      <point x="540" y="247" type="curve" smooth="yes"/>
      <point x="524" y="247"/>
      <point x="510" y="233"/>
    </contour>
    <contour>
      <point x="68" y="187" type="curve" smooth="yes"/>
      <point x="84" y="187"/>
      <point x="98" y="201"/>
      <point x="98" y="217" type="curve" smooth="yes"/>
      <point x="98" y="233"/>
      <point x="84" y="247"/>
      <point x="68" y="247" type="curve" smooth="yes"/>
      <point x="52" y="247"/>
      <point x="38" y="233"/>
      <point x="38" y="217" type="curve" smooth="yes"/>
      <point x="38" y="201"/>
      <point x="52" y="187"/>
    </contour>
    <contour>
      <point x="482" y="138" type="curve" smooth="yes"/>
      <point x="482" y="122"/>
      <point x="496" y="108"/>
      <point x="512" y="108" type="curve" smooth="yes"/>
      <point x="528" y="108"/>
      <point x="542" y="122"/>
      <point x="542" y="138" type="curve" smooth="yes"/>
      <point x="542" y="154"/>
      <point x="528" y="168"/>
      <point x="512" y="168" type="curve" smooth="yes"/>
      <point x="496" y="168"/>
      <point x="482" y="154"/>
    </contour>
    <contour>
      <point x="96" y="108" type="curve" smooth="yes"/>
      <point x="112" y="108"/>
      <point x="126" y="122"/>
      <point x="126" y="138" type="curve" smooth="yes"/>
      <point x="126" y="154"/>
      <point x="112" y="168"/>
      <point x="96" y="168" type="curve" smooth="yes"/>
      <point x="80" y="168"/>
      <point x="66" y="154"/>
      <point x="66" y="138" type="curve" smooth="yes"/>
      <point x="66" y="122"/>
      <point x="80" y="108"/>
    </contour>
    <contour>
      <point x="428" y="74" type="curve" smooth="yes"/>
      <point x="428" y="58"/>
      <point x="442" y="44"/>
      <point x="458" y="44" type="curve" smooth="yes"/>
      <point x="474" y="44"/>
      <point x="488" y="58"/>
      <point x="488" y="74" type="curve" smooth="yes"/>
      <point x="488" y="90"/>
      <point x="474" y="104"/>
      <point x="458" y="104" type="curve" smooth="yes"/>
      <point x="442" y="104"/>
      <point x="428" y="90"/>
    </contour>
    <contour>
      <point x="120" y="74" type="curve" smooth="yes"/>
      <point x="120" y="58"/>
      <point x="134" y="44"/>
      <point x="150" y="44" type="curve" smooth="yes"/>
      <point x="166" y="44"/>
      <point x="180" y="58"/>
      <point x="180" y="74" type="curve" smooth="yes"/>
      <point x="180" y="90"/>
      <point x="166" y="104"/>
      <point x="150" y="104" type="curve" smooth="yes"/>
      <point x="134" y="104"/>
      <point x="120" y="90"/>
    </contour>
    <contour>
      <point x="356" y="33" type="curve" smooth="yes"/>
      <point x="356" y="17"/>
      <point x="370" y="3"/>
      <point x="386" y="3" type="curve" smooth="yes"/>
      <point x="402" y="3"/>
      <point x="416" y="17"/>
      <point x="416" y="33" type="curve" smooth="yes"/>
      <point x="416" y="49"/>
      <point x="402" y="63"/>
      <point x="386" y="63" type="curve" smooth="yes"/>
      <point x="370" y="63"/>
      <point x="356" y="49"/>
    </contour>
    <contour>
      <point x="192" y="33" type="curve" smooth="yes"/>
      <point x="192" y="17"/>
      <point x="206" y="3"/>
      <point x="222" y="3" type="curve" smooth="yes"/>
      <point x="238" y="3"/>
      <point x="252" y="17"/>
      <point x="252" y="33" type="curve" smooth="yes"/>
      <point x="252" y="49"/>
      <point x="238" y="63"/>
      <point x="222" y="63" type="curve" smooth="yes"/>
      <point x="206" y="63"/>
      <point x="192" y="49"/>
    </contour>
    <contour>
      <point x="274" y="18" type="curve" smooth="yes"/>
      <point x="274" y="2"/>
      <point x="288" y="-12"/>
      <point x="304" y="-12" type="curve" smooth="yes"/>
      <point x="320" y="-12"/>
      <point x="334" y="2"/>
      <point x="334" y="18" type="curve" smooth="yes"/>
      <point x="334" y="34"/>
      <point x="320" y="48"/>
      <point x="304" y="48" type="curve" smooth="yes"/>
      <point x="288" y="48"/>
      <point x="274" y="34"/>
    </contour>
  </outline>
</glyph>
<glyph name="mediumWhiteSquare" format="2">
  <advance width="748"/>
  <unicode hex="25FB"/>
  <note>
uni25FB
</note>
  <outline>
    <contour>
      <point x="116" y="536" type="line"/>
      <point x="116" y="0" type="line"/>
      <point x="672" y="0" type="line"/>
      <point x="672" y="536" type="line"/>
    </contour>
    <contour>
      <point x="512" y="136" type="line"/>
      <point x="276" y="136" type="line"/>
      <point x="276" y="400" type="line"/>
      <point x="512" y="400" type="line"/>
    </contour>
  </outline>
</glyph>
<glyph name="fi" format="2">
  <advance width="788"/>
  <unicode hex="FB01"/>
  <note>
fi
</note>
  <outline>
    <contour>
      <point x="688" y="620" type="curve" smooth="yes"/>
      <point x="756" y="620"/>
      <point x="812" y="668"/>
      <point x="812" y="740" type="curve" smooth="yes"/>
      <point x="812" y="788"/>
      <point x="780" y="828"/>
      <point x="716" y="828" type="curve" smooth="yes"/>
      <point x="648" y="828"/>
      <point x="592" y="780"/>
      <point x="592" y="708" type="curve" smooth="yes"/>
      <point x="592" y="660"/>
      <point x="624" y="620"/>
    </contour>
    <contour>
      <point x="562" y="548" type="line"/>
      <point x="456" y="0" type="line"/>
      <point x="668" y="0" type="line"/>
      <point x="774" y="548" type="line"/>
    </contour>
    <component base="_part.f.liga"/>
  </outline>
</glyph>
<glyph name="allah-ar" format="2">
  <advance width="1653"/>
  <unicode hex="FDF2"/>
  <outline>
    <contour>
      <point x="1369" y="740" type="line"/>
      <point x="1369" y="0" type="line"/>
      <point x="1581" y="0" type="line"/>
      <point x="1581" y="604" type="line" smooth="yes"/>
      <point x="1581" y="644"/>
      <point x="1581" y="716"/>
      <point x="1589" y="752" type="curve"/>
      <point x="1585" y="760" type="line"/>
    </contour>
    <contour>
      <point x="775" y="176" type="line"/>
      <point x="502" y="176" type="line"/>
      <point x="588" y="90" type="line"/>
      <point x="588" y="592" type="line"/>
      <point x="576" y="592" type="line"/>
      <point x="376" y="572" type="line"/>
      <point x="376" y="95" type="line"/>
      <point x="408" y="148" type="line"/>
      <point x="408" y="0" type="line"/>
      <point x="1082" y="0" type="line" smooth="yes"/>
      <point x="1166" y="0"/>
      <point x="1218" y="8"/>
      <point x="1258" y="24" type="curve"/>
      <point x="1258" y="32" type="line"/>
      <point x="1250" y="68"/>
      <point x="1250" y="152"/>
      <point x="1250" y="192" type="curve" smooth="yes"/>
      <point x="1250" y="700" type="line"/>
      <point x="1238" y="700" type="line"/>
      <point x="1038" y="680" type="line"/>
      <point x="1038" y="264" type="line" smooth="yes"/>
      <point x="1038" y="203"/>
      <point x="1043" y="161"/>
      <point x="1063" y="147" type="curve"/>
      <point x="1132" y="176" type="line"/>
      <point x="833" y="176" type="line"/>
      <point x="919" y="90" type="line"/>
      <point x="919" y="642" type="line"/>
      <point x="907" y="642" type="line"/>
      <point x="707" y="622" type="line"/>
      <point x="707" y="264" type="line" smooth="yes"/>
      <point x="707" y="203"/>
      <point x="712" y="161"/>
      <point x="732" y="147" type="curve"/>
    </contour>
    <contour>
      <point x="440" y="225" type="line"/>
      <point x="388" y="180"/>
      <point x="348" y="164"/>
      <point x="308" y="164" type="curve" smooth="yes"/>
      <point x="262" y="164"/>
      <point x="236" y="188"/>
      <point x="236" y="236" type="curve" smooth="yes"/>
      <point x="236" y="271"/>
      <point x="246" y="307"/>
      <point x="265" y="331" type="curve"/>
      <point x="191" y="248" type="line"/>
      <point x="265" y="306"/>
      <point x="351" y="339"/>
      <point x="426" y="363" type="curve"/>
      <point x="475" y="531" type="line"/>
      <point x="141" y="421"/>
      <point x="40" y="354"/>
      <point x="40" y="200" type="curve" smooth="yes"/>
      <point x="40" y="78"/>
      <point x="134" y="0"/>
      <point x="240" y="0" type="curve" smooth="yes"/>
      <point x="342" y="0"/>
      <point x="410" y="58"/>
      <point x="430" y="94" type="curve"/>
    </contour>
    <contour>
      <point x="744" y="700" type="curve" smooth="yes"/>
      <point x="777" y="700"/>
      <point x="813" y="720"/>
      <point x="830" y="767" type="curve"/>
      <point x="810" y="758" type="line"/>
      <point x="824" y="749"/>
      <point x="845" y="734"/>
      <point x="875" y="734" type="curve" smooth="yes"/>
      <point x="931" y="734"/>
      <point x="983" y="779"/>
      <point x="983" y="934" type="curve" smooth="yes"/>
      <point x="983" y="946" type="line"/>
      <point x="971" y="946" type="line"/>
      <point x="894" y="938" type="line"/>
      <point x="894" y="918" type="line" smooth="yes"/>
      <point x="894" y="825"/>
      <point x="880" y="809"/>
      <point x="869" y="795" type="curve"/>
      <point x="891" y="813" type="line"/>
      <point x="868" y="813"/>
      <point x="846" y="826"/>
      <point x="834" y="845" type="curve"/>
      <point x="834" y="818" type="line"/>
      <point x="845" y="822"/>
      <point x="845" y="838"/>
      <point x="845" y="853" type="curve" smooth="yes"/>
      <point x="845" y="899" type="line"/>
      <point x="833" y="899" type="line"/>
      <point x="761" y="891" type="line"/>
      <point x="761" y="844" type="line" smooth="yes"/>
      <point x="761" y="812"/>
      <point x="761" y="775"/>
      <point x="750" y="759" type="curve"/>
      <point x="772" y="770" type="line"/>
      <point x="741" y="770"/>
      <point x="724" y="766"/>
      <point x="724" y="830" type="curve" smooth="yes"/>
      <point x="724" y="906" type="line"/>
      <point x="712" y="906" type="line"/>
      <point x="635" y="898" type="line"/>
      <point x="635" y="827" type="line" smooth="yes"/>
      <point x="635" y="751"/>
      <point x="676" y="700"/>
    </contour>
    <contour>
      <point x="766" y="1133" type="line"/>
      <point x="766" y="961" type="line"/>
      <point x="842" y="961" type="line"/>
      <point x="842" y="985" type="line" smooth="yes"/>
      <point x="842" y="1025"/>
      <point x="842" y="1095"/>
      <point x="850" y="1131" type="curve"/>
      <point x="848" y="1139" type="line"/>
    </contour>
  </outline>
</glyph>
<glyph name="kashidaFina-ar" format="2">
  <advance width="274"/>
  <unicode hex="FE73"/>
  <outline>
    <contour>
      <point x="274" y="176" type="line"/>
      <point x="62" y="176" type="line"/>
      <point x="0" y="12" type="line"/>
      <point x="0" y="0" type="line"/>
      <point x="254" y="0" type="line"/>
      <point x="274" y="20" type="line"/>
    </contour>
  </outline>
</glyph>
<glyph name="_baseline" format="2">
  <advance width="112"/>
  <anchor x="-10" y="0" name="*exit"/>
  <outline>
    <contour>
      <point x="-45" y="0" type="line"/>
      <point x="92" y="0" type="line"/>
      <point x="112" y="20" type="line"/>
      <point x="112" y="176" type="line"/>
      <point x="-45" y="176" type="line"/>
    </contour>
  </outline>
</glyph>
<glyph name="_baselineLEFT" format="2">
  <advance width="112"/>
  <anchor x="117" y="0" name="*entry"/>
  <outline>
    <contour>
      <point x="324" y="176" type="line"/>
      <point x="-10" y="176" type="line"/>
      <point x="-30" y="156" type="line"/>
      <point x="-30" y="0" type="line"/>
      <point x="324" y="0" type="line"/>
    </contour>
  </outline>
</glyph>
<glyph name="_hamza-ar" format="2">
  <advance width="286"/>
  <anchor x="169" y="168" name="_center"/>
  <outline>
    <contour>
      <point x="20" y="129" type="curve" smooth="yes"/>
      <point x="20" y="55"/>
      <point x="78" y="0"/>
      <point x="153" y="0" type="curve" smooth="yes"/>
      <point x="227" y="0" type="line"/>
      <point x="266" y="102" type="line"/>
      <point x="266" y="112" type="line"/>
      <point x="185" y="112" type="line" smooth="yes"/>
      <point x="153" y="112"/>
      <point x="132" y="123"/>
      <point x="121" y="155" type="curve"/>
      <point x="123" y="116" type="line"/>
      <point x="138" y="164"/>
      <point x="165" y="168"/>
      <point x="202" y="168" type="curve" smooth="yes"/>
      <point x="226" y="168" type="line"/>
      <point x="264" y="272" type="line"/>
      <point x="264" y="282" type="line"/>
      <point x="196" y="282" type="line" smooth="yes"/>
      <point x="87" y="282"/>
      <point x="20" y="212"/>
    </contour>
  </outline>
</glyph>
<glyph name="_horizontalbar-ar" format="2">
  <advance width="432"/>
  <anchor x="138" y="147" name="_verticalbar"/>
  <outline>
    <contour>
      <point x="138" y="147" type="curve"/>
      <point x="325" y="90" type="line"/>
      <point x="325" y="760" type="line"/>
      <point x="313" y="760" type="line"/>
      <point x="113" y="740" type="line"/>
      <point x="113" y="264" type="line" smooth="yes"/>
      <point x="113" y="203"/>
      <point x="118" y="161"/>
    </contour>
  </outline>
</glyph>
<glyph name="_kafbar-ar" format="2">
  <advance width="468"/>
  <anchor x="22" y="513" name="_kafbar"/>
  <outline>
    <contour>
      <point x="2" y="671" type="line"/>
      <point x="10" y="603" type="line"/>
      <point x="22" y="603" type="line"/>
      <point x="422" y="950" type="line"/>
      <point x="388" y="1004" type="line"/>
      <point x="376" y="1004" type="line"/>
    </contour>
  </outline>
</glyph>
<glyph name="_loopconn-ar" format="2">
  <advance width="934"/>
  <anchor x="676" y="0" name="*entry"/>
  <anchor x="33" y="0" name="*exit"/>
  <anchor x="352" y="0" name="bottom"/>
  <anchor x="349" y="488" name="top"/>
  <anchor x="-158" y="147" name="verticalbar"/>
  <outline>
    <contour>
      <point x="10" y="176" type="line"/>
      <point x="10" y="0" type="line"/>
      <point x="600" y="0" type="line" smooth="yes"/>
      <point x="661" y="0"/>
      <point x="710" y="8"/>
      <point x="749" y="22" type="curve"/>
      <point x="778" y="89" type="line"/>
      <point x="856" y="137"/>
      <point x="884" y="199"/>
      <point x="884" y="264" type="curve" smooth="yes"/>
      <point x="884" y="345"/>
      <point x="821" y="430"/>
      <point x="772" y="476" type="curve"/>
      <point x="760" y="476" type="line"/>
      <point x="720" y="468"/>
      <point x="652" y="464"/>
      <point x="584" y="464" type="curve" smooth="yes"/>
      <point x="78" y="464" type="line"/>
      <point x="10" y="288" type="line"/>
      <point x="542" y="288" type="line" smooth="yes"/>
      <point x="597" y="288"/>
      <point x="646" y="294"/>
      <point x="740" y="316" type="curve"/>
      <point x="657" y="316" type="line"/>
      <point x="667" y="302"/>
      <point x="686" y="277"/>
      <point x="686" y="242" type="curve" smooth="yes"/>
      <point x="686" y="200"/>
      <point x="661" y="176"/>
      <point x="562" y="176" type="curve" smooth="yes"/>
    </contour>
  </outline>
</glyph>
<glyph name=".notdef" format="2">
  <advance width="856"/>
  <note>
.notdef
</note>
  <outline>
    <contour>
      <point x="116" y="720" type="line"/>
      <point x="116" y="0" type="line"/>
      <point x="780" y="0" type="line"/>
      <point x="780" y="720" type="line"/>
    </contour>
    <contour>
      <point x="188" y="64" type="line"/>
      <point x="188" y="656" type="line"/>
      <point x="708" y="656" type="line"/>
      <point x="708" y="64" type="line"/>
    </contour>
    <contour>
      <point x="319" y="526" type="line"/>
      <point x="274" y="481" type="line"/>
      <point x="407" y="348" type="line"/>
      <point x="274" y="215" type="line"/>
      <point x="319" y="170" type="line"/>
      <point x="452" y="303" type="line"/>
      <point x="585" y="170" type="line"/>
      <point x="630" y="215" type="line"/>
      <point x="497" y="348" type="line"/>
      <point x="630" y="481" type="line"/>
      <point x="585" y="526" type="line"/>
      <point x="452" y="393" type="line"/>
    </contour>
  </outline>
</glyph>
<glyph name="_part.doublebar-ar" format="2">
  <advance width="280"/>
  <anchor x="140" y="400" name="_bar"/>
  <outline>
    <contour>
      <point x="-70" y="285" type="line"/>
      <point x="350" y="285" type="line"/>
      <point x="350" y="369" type="line"/>
      <point x="-70" y="369" type="line"/>
    </contour>
    <contour>
      <point x="-70" y="433" type="line"/>
      <point x="350" y="433" type="line"/>
      <point x="350" y="517" type="line"/>
      <point x="-70" y="517" type="line"/>
    </contour>
  </outline>
</glyph>
<glyph name="_part.reh-ar" format="2">
  <advance width="500"/>
  <anchor x="444" y="0" name="*entry"/>
  <anchor x="263" y="52" name="bar"/>
  <anchor x="88" y="-260" name="bottom"/>
  <anchor x="88" y="-260" name="ring"/>
  <anchor x="288" y="553" name="top"/>
  <outline>
    <contour>
      <point x="16" y="-68" type="curve"/>
      <point x="-40" y="-232" type="line"/>
      <point x="-40" y="-244" type="line" smooth="yes"/>
      <point x="-40" y="-245"/>
      <point x="36" y="-260"/>
      <point x="88" y="-260" type="curve" smooth="yes"/>
      <point x="293" y="-260"/>
      <point x="436" y="-151"/>
      <point x="436" y="168" type="curve" smooth="yes"/>
      <point x="436" y="276"/>
      <point x="425" y="400"/>
      <point x="412" y="494" type="curve"/>
      <point x="400" y="494" type="line"/>
      <point x="196" y="474" type="line"/>
      <point x="209" y="379"/>
      <point x="224" y="270"/>
      <point x="224" y="152" type="curve" smooth="yes"/>
      <point x="224" y="34"/>
      <point x="211" y="-60"/>
      <point x="178" y="-103" type="curve"/>
      <point x="224" y="-55" type="line"/>
      <point x="215" y="-65"/>
      <point x="176" y="-84"/>
      <point x="124" y="-84" type="curve" smooth="yes"/>
      <point x="91" y="-84"/>
      <point x="55" y="-77"/>
    </contour>
  </outline>
</glyph>
<glyph name="_tahbarfinal-ar" format="2">
  <advance width="553"/>
  <note>
uni066E.medi
</note>
  <anchor x="433" y="0" name="*entry"/>
  <outline>
    <contour>
      <point x="0" y="0" type="line"/>
      <point x="533" y="0" type="line"/>
      <point x="553" y="20" type="line"/>
      <point x="553" y="176" type="line"/>
      <point x="343" y="176" type="line"/>
      <point x="429" y="90" type="line"/>
      <point x="429" y="760" type="line"/>
      <point x="417" y="760" type="line"/>
      <point x="217" y="740" type="line"/>
      <point x="217" y="264" type="line" smooth="yes"/>
      <point x="217" y="203"/>
      <point x="222" y="161"/>
      <point x="242" y="147" type="curve"/>
      <point x="311" y="176" type="line"/>
      <point x="62" y="176" type="line"/>
      <point x="0" y="12" type="line"/>
    </contour>
  </outline>
</glyph>
<glyph name="_wavyhamza-ar" format="2">
  <advance width="397"/>
  <outline>
    <contour>
      <point x="174" y="445" type="line"/>
      <point x="160" y="445" type="line" smooth="yes"/>
      <point x="73" y="445"/>
      <point x="31" y="397"/>
      <point x="31" y="301" type="curve"/>
      <point x="146" y="301" type="line"/>
      <point x="146" y="336"/>
      <point x="163" y="353"/>
      <point x="214" y="353" type="curve"/>
    </contour>
    <contour>
      <point x="131" y="502" type="curve" smooth="yes"/>
      <point x="131" y="449"/>
      <point x="154" y="421"/>
      <point x="192" y="397" type="curve"/>
      <point x="214" y="353" type="line"/>
      <point x="338" y="353" type="line"/>
      <point x="377" y="455" type="line"/>
      <point x="377" y="465" type="line"/>
      <point x="296" y="465" type="line" smooth="yes"/>
      <point x="244" y="465"/>
      <point x="221" y="499"/>
      <point x="251" y="537" type="curve"/>
      <point x="244" y="391" type="line"/>
      <point x="217" y="507"/>
      <point x="261" y="521"/>
      <point x="313" y="521" type="curve" smooth="yes"/>
      <point x="337" y="521" type="line"/>
      <point x="375" y="625" type="line"/>
      <point x="375" y="635" type="line"/>
      <point x="307" y="635" type="line" smooth="yes"/>
      <point x="198" y="635"/>
      <point x="131" y="565"/>
    </contour>
  </outline>
</glyph>
<glyph name="ae.sc" format="2">
  <advance width="872"/>
  <note>
ae.sc
</note>
  <anchor x="480" y="0" name="bottom"/>
  <anchor x="592" y="572" name="top"/>
  <anchor x="556" y="0" name="ogonek"/>
  <outline>
    <contour>
      <point x="472" y="0" type="line"/>
      <point x="776" y="0" type="line"/>
      <point x="808" y="160" type="line"/>
      <point x="504" y="160" type="line"/>
    </contour>
    <contour>
      <point x="512" y="208" type="line"/>
      <point x="772" y="208" type="line"/>
      <point x="800" y="356" type="line"/>
      <point x="540" y="356" type="line"/>
    </contour>
    <contour>
      <point x="548" y="412" type="line"/>
      <point x="852" y="412" type="line"/>
      <point x="884" y="572" type="line"/>
      <point x="580" y="572" type="line"/>
    </contour>
    <component base="a.sc"/>
  </outline>
</glyph>
<glyph name="ain-ar.fina" format="2">
  <advance width="692"/>
  <note>
uni0639.fina
</note>
  <anchor x="253" y="-256" name="bottom"/>
  <anchor x="344" y="609" name="top"/>
  <outline>
    <contour>
      <point x="215" y="63" type="line"/>
      <point x="204" y="154" type="line"/>
      <point x="77" y="118"/>
      <point x="16" y="39"/>
      <point x="16" y="-53" type="curve" smooth="yes"/>
      <point x="16" y="-177"/>
      <point x="109" y="-256"/>
      <point x="266" y="-256" type="curve" smooth="yes"/>
      <point x="448" y="-256" type="line"/>
      <point x="508" y="-96" type="line"/>
      <point x="508" y="-84" type="line"/>
      <point x="272" y="-84" type="line" smooth="yes"/>
      <point x="228" y="-84"/>
      <point x="204" y="-75"/>
      <point x="194" y="-58" type="curve"/>
      <point x="194" y="-83" type="line"/>
      <point x="194" y="-45"/>
      <point x="225" y="0"/>
      <point x="356" y="0" type="curve" smooth="yes"/>
      <point x="692" y="0" type="line"/>
      <point x="712" y="20" type="line"/>
      <point x="712" y="176" type="line"/>
      <point x="477" y="176" type="line"/>
      <point x="510" y="155" type="line"/>
      <point x="587" y="188"/>
      <point x="642" y="280"/>
      <point x="642" y="367" type="curve" smooth="yes"/>
      <point x="642" y="494"/>
      <point x="536" y="587"/>
      <point x="374" y="587" type="curve" smooth="yes"/>
      <point x="251" y="587"/>
      <point x="129" y="531"/>
      <point x="38" y="455" type="curve"/>
      <point x="42" y="443" type="line"/>
      <point x="76" y="409"/>
      <point x="130" y="297"/>
      <point x="150" y="247" type="curve" smooth="yes"/>
    </contour>
    <contour>
      <point x="390" y="100" type="line"/>
      <point x="346" y="243" type="line" smooth="yes"/>
      <point x="306" y="355"/>
      <point x="293" y="393"/>
      <point x="243" y="442" type="curve"/>
      <point x="238" y="382" type="line"/>
      <point x="261" y="401"/>
      <point x="305" y="431"/>
      <point x="356" y="431" type="curve" smooth="yes"/>
      <point x="405" y="431"/>
      <point x="446" y="395"/>
      <point x="446" y="340" type="curve" smooth="yes"/>
      <point x="446" y="253"/>
      <point x="388" y="193"/>
      <point x="299" y="150" type="curve"/>
    </contour>
  </outline>
</glyph>
<glyph name="ain-ar.init" format="2">
  <advance width="588"/>
  <note>
uni0639.init
</note>
  <anchor x="253" y="0" name="bottom"/>
  <anchor x="166" y="540" name="top"/>
  <outline>
    <contour>
      <point x="-20" y="0" type="line"/>
      <point x="510" y="0" type="line"/>
      <point x="574" y="164" type="line"/>
      <point x="574" y="176" type="line"/>
      <point x="330" y="176" type="line" smooth="yes"/>
      <point x="276" y="176"/>
      <point x="256" y="200"/>
      <point x="256" y="228" type="curve" smooth="yes"/>
      <point x="256" y="279"/>
      <point x="336" y="326"/>
      <point x="464" y="404" type="curve"/>
      <point x="416" y="584" type="line"/>
      <point x="404" y="584" type="line"/>
      <point x="121" y="436"/>
      <point x="68" y="350"/>
      <point x="68" y="260" type="curve" smooth="yes"/>
      <point x="68" y="188"/>
      <point x="113" y="123"/>
      <point x="184" y="104" type="curve"/>
      <point x="200" y="176" type="line"/>
      <point x="0" y="176" type="line"/>
      <point x="-20" y="156" type="line"/>
    </contour>
  </outline>
</glyph>
<glyph name="alef-ar.short" format="2">
  <advance width="356"/>
  <note>
uni0627.short
</note>
  <anchor x="284" y="0" name="*entry"/>
  <anchor x="179" y="0" name="bottom"/>
  <anchor x="173" y="668" name="top"/>
  <outline>
    <contour>
      <point x="72" y="640" type="line"/>
      <point x="72" y="0" type="line"/>
      <point x="284" y="0" type="line"/>
      <point x="284" y="504" type="line" smooth="yes"/>
      <point x="284" y="544"/>
      <point x="284" y="616"/>
      <point x="292" y="652" type="curve"/>
      <point x="288" y="660" type="line"/>
    </contour>
  </outline>
</glyph>
<glyph name="ampersand.sc" format="2">
  <advance width="624"/>
  <note>
ampersand.sc
</note>
  <outline>
    <contour>
      <point x="20" y="152" type="curve" smooth="yes"/>
      <point x="20" y="44"/>
      <point x="116" y="-12"/>
      <point x="268" y="-12" type="curve" smooth="yes"/>
      <point x="352" y="-12"/>
      <point x="432" y="4"/>
      <point x="504" y="24" type="curve"/>
      <point x="508" y="28" type="line"/>
      <point x="512" y="80"/>
      <point x="517" y="116"/>
      <point x="528" y="168" type="curve" smooth="yes"/>
      <point x="539" y="220" type="line"/>
      <point x="592" y="220" type="line"/>
      <point x="617" y="352" type="line"/>
      <point x="348" y="352" type="line" smooth="yes"/>
      <point x="296" y="352"/>
      <point x="272" y="360"/>
      <point x="272" y="388" type="curve" smooth="yes"/>
      <point x="272" y="412"/>
      <point x="296" y="428"/>
      <point x="376" y="428" type="curve" smooth="yes"/>
      <point x="448" y="428"/>
      <point x="499" y="417"/>
      <point x="536" y="400" type="curve"/>
      <point x="548" y="400" type="line"/>
      <point x="576" y="548" type="line"/>
      <point x="536" y="564"/>
      <point x="476" y="580"/>
      <point x="380" y="580" type="curve" smooth="yes"/>
      <point x="148" y="580"/>
      <point x="60" y="504"/>
      <point x="60" y="384" type="curve" smooth="yes"/>
      <point x="60" y="320"/>
      <point x="108" y="268"/>
      <point x="176" y="248" type="curve"/>
      <point x="184" y="296" type="line"/>
      <point x="84" y="280"/>
      <point x="20" y="244"/>
    </contour>
    <contour>
      <point x="288" y="128" type="curve" smooth="yes"/>
      <point x="252" y="128"/>
      <point x="220" y="140"/>
      <point x="220" y="172" type="curve" smooth="yes"/>
      <point x="220" y="204"/>
      <point x="244" y="220"/>
      <point x="292" y="220" type="curve" smooth="yes"/>
      <point x="347" y="220" type="line"/>
      <point x="344" y="204" type="line" smooth="yes"/>
      <point x="336" y="160"/>
      <point x="328" y="116"/>
      <point x="356" y="92" type="curve"/>
      <point x="360" y="160" type="line"/>
      <point x="344" y="140"/>
      <point x="332" y="128"/>
    </contour>
  </outline>
</glyph>
<glyph name="approxequal.sc" format="2">
  <advance width="568"/>
  <note>
approxequal.sc
</note>
  <outline>
    <contour>
      <point x="68" y="64" type="curve"/>
      <point x="184" y="64" type="line"/>
      <point x="184" y="107"/>
      <point x="195" y="136"/>
      <point x="224" y="136" type="curve" smooth="yes"/>
      <point x="260" y="136"/>
      <point x="296" y="64"/>
      <point x="380" y="64" type="curve" smooth="yes"/>
      <point x="470" y="64"/>
      <point x="516" y="138"/>
      <point x="516" y="260" type="curve"/>
      <point x="400" y="260" type="line"/>
      <point x="400" y="217"/>
      <point x="389" y="188"/>
      <point x="360" y="188" type="curve" smooth="yes"/>
      <point x="324" y="188"/>
      <point x="288" y="260"/>
      <point x="204" y="260" type="curve" smooth="yes"/>
      <point x="114" y="260"/>
      <point x="68" y="186"/>
    </contour>
    <contour>
      <point x="68" y="316" type="curve"/>
      <point x="184" y="316" type="line"/>
      <point x="184" y="359"/>
      <point x="195" y="388"/>
      <point x="224" y="388" type="curve" smooth="yes"/>
      <point x="260" y="388"/>
      <point x="296" y="316"/>
      <point x="380" y="316" type="curve" smooth="yes"/>
      <point x="470" y="316"/>
      <point x="516" y="390"/>
      <point x="516" y="512" type="curve"/>
      <point x="400" y="512" type="line"/>
      <point x="400" y="469"/>
      <point x="389" y="440"/>
      <point x="360" y="440" type="curve" smooth="yes"/>
      <point x="324" y="440"/>
      <point x="288" y="512"/>
      <point x="204" y="512" type="curve" smooth="yes"/>
      <point x="114" y="512"/>
      <point x="68" y="438"/>
    </contour>
  </outline>
</glyph>
<glyph name="asterisk.sc" format="2">
  <advance width="544"/>
  <note>
asterisk.sc
</note>
  <outline>
    <contour>
      <point x="44" y="280" type="line"/>
      <point x="92" y="164" type="line"/>
      <point x="215" y="241" type="line"/>
      <point x="176" y="108" type="line"/>
      <point x="316" y="108" type="line"/>
      <point x="328" y="251" type="line"/>
      <point x="432" y="168" type="line"/>
      <point x="512" y="280" type="line"/>
      <point x="395" y="337" type="line"/>
      <point x="540" y="400" type="line"/>
      <point x="492" y="516" type="line"/>
      <point x="366" y="436" type="line"/>
      <point x="408" y="572" type="line"/>
      <point x="268" y="572" type="line"/>
      <point x="253" y="429" type="line"/>
      <point x="156" y="512" type="line"/>
      <point x="76" y="400" type="line"/>
      <point x="189" y="342" type="line"/>
    </contour>
  </outline>
</glyph>
